{"glyphs":{"0":{"ha":837,"x_min":75,"x_max":762,"o":"m 418 -25 q 169 118 262 -25 q 75 503 75 261 q 169 886 75 743 q 418 1029 262 1029 q 668 886 575 1029 q 762 503 762 743 q 668 118 762 261 q 418 -25 575 -25 m 418 75 q 619 503 619 75 q 418 928 619 928 q 218 503 218 928 q 418 75 218 75 z "},"1":{"ha":837,"x_min":125,"x_max":795,"o":"m 125 0 l 125 100 l 393 100 l 393 881 l 125 821 l 125 903 l 527 1029 l 527 100 l 795 100 l 795 0 l 125 0 z "},"2":{"ha":837,"x_min":114,"x_max":688,"o":"m 114 0 l 114 117 q 361 440 197 277 l 421 500 q 546 751 546 625 q 498 880 546 831 q 370 928 450 928 q 139 858 273 928 l 139 976 q 383 1029 264 1029 q 605 954 521 1029 q 688 756 688 879 q 650 607 688 677 q 519 451 611 537 l 462 397 q 273 117 304 251 l 683 117 l 683 0 l 114 0 z "},"3":{"ha":837,"x_min":159,"x_max":713,"o":"m 159 5 l 159 123 q 368 75 295 75 q 515 131 459 75 q 570 278 570 187 q 504 435 570 380 q 316 490 438 490 l 251 490 l 251 586 l 290 586 q 419 597 378 586 q 494 642 460 608 q 548 778 548 694 q 505 888 548 848 q 389 928 463 928 q 173 873 287 928 l 173 991 q 397 1029 283 1029 q 607 969 531 1029 q 682 800 682 908 q 501 548 682 632 q 713 278 713 475 q 619 57 713 139 q 366 -25 525 -25 q 159 5 267 -25 z "},"4":{"ha":837,"x_min":75,"x_max":753,"o":"m 494 0 l 494 268 l 75 268 l 75 380 l 494 1004 l 619 1004 l 619 368 l 753 368 l 753 268 l 619 268 l 619 0 l 494 0 m 188 368 l 494 368 l 494 824 l 188 368 z "},"5":{"ha":837,"x_min":183,"x_max":699,"o":"m 183 5 l 183 120 q 367 75 298 75 q 503 139 450 75 q 556 303 556 203 q 262 528 556 528 q 202 525 237 528 l 202 1004 l 673 1004 l 673 887 l 315 887 l 315 627 q 595 537 492 627 q 699 294 699 448 q 605 66 699 157 q 370 -25 511 -25 q 183 5 291 -25 z "},"6":{"ha":837,"x_min":110,"x_max":762,"o":"m 707 991 l 707 877 q 515 929 587 929 q 319 821 389 929 q 250 513 250 712 q 479 642 339 642 q 680 551 597 642 q 762 328 762 460 q 673 75 762 174 q 446 -25 584 -25 q 196 105 283 -25 q 110 482 110 235 q 217 880 110 731 q 503 1029 324 1029 q 707 991 585 1029 m 463 75 q 584 138 537 75 q 631 302 631 201 q 581 478 631 411 q 448 546 530 546 q 316 487 366 546 q 267 330 267 428 q 320 144 267 213 q 463 75 373 75 z "},"7":{"ha":837,"x_min":136,"x_max":741,"o":"m 191 0 q 239 194 203 109 q 405 509 275 279 l 614 878 l 136 878 l 136 1004 l 741 1004 l 741 891 l 709 837 q 350 0 385 292 l 191 0 z "},"8":{"ha":837,"x_min":109,"x_max":747,"o":"m 296 547 q 159 777 159 647 q 238 960 159 892 q 447 1029 316 1029 q 638 972 570 1029 q 707 812 707 916 q 531 553 707 659 q 700 416 652 479 q 747 264 747 353 q 655 57 747 138 q 420 -25 563 -25 q 195 52 281 -25 q 109 252 109 129 q 296 547 109 433 m 368 492 q 240 270 240 388 q 293 129 240 183 q 433 75 347 75 q 561 121 509 75 q 613 236 613 168 q 457 439 613 347 l 368 492 m 456 598 q 587 791 587 681 q 545 891 587 853 q 435 928 503 928 q 325 892 366 928 q 284 796 284 857 q 419 620 284 701 l 456 598 z "},"9":{"ha":837,"x_min":101,"x_max":752,"o":"m 156 10 l 156 125 q 349 75 282 75 q 543 184 474 75 q 612 491 612 293 q 382 362 524 362 q 183 453 264 362 q 101 675 101 545 q 190 929 101 829 q 416 1029 279 1029 q 666 899 580 1029 q 752 522 752 769 q 645 124 752 273 q 361 -25 538 -25 q 156 10 282 -25 m 400 928 q 278 865 326 928 q 231 703 231 802 q 281 526 231 593 q 414 458 332 458 q 546 517 496 458 q 595 675 595 576 q 542 860 595 791 q 400 928 489 928 z "}," ":{"ha":837,"x_min":0,"x_max":0,"o":""},"!":{"ha":837,"x_min":334,"x_max":502,"o":"m 368 284 l 351 803 l 351 1004 l 485 1004 l 485 803 l 468 284 l 368 284 m 334 0 l 334 151 l 502 151 l 502 0 l 334 0 z "},"\"":{"ha":837,"x_min":168,"x_max":669,"o":"m 201 703 l 168 1071 l 335 1071 l 301 703 l 201 703 m 536 703 l 502 1071 l 669 1071 l 636 703 l 536 703 z "},"#":{"ha":837,"x_min":35,"x_max":809,"o":"m 115 0 l 191 305 l 35 305 l 55 406 l 216 406 l 265 604 l 95 604 l 115 705 l 290 705 l 365 1004 l 468 1004 l 394 705 l 551 705 l 625 1004 l 729 1004 l 654 705 l 809 705 l 789 604 l 628 604 l 579 406 l 749 406 l 730 305 l 554 305 l 480 0 l 376 0 l 450 305 l 293 305 l 219 0 l 115 0 m 319 406 l 475 406 l 525 604 l 369 604 l 319 406 z "},"$":{"ha":837,"x_min":146,"x_max":718,"o":"m 395 -83 l 395 0 q 146 54 286 0 l 146 168 q 395 98 291 98 l 395 463 l 346 495 q 166 756 166 616 q 232 926 166 857 q 404 1004 298 995 l 404 1088 l 487 1088 l 487 1004 q 692 960 587 998 l 692 850 q 487 910 594 899 l 487 551 l 532 524 q 718 266 718 415 q 653 87 718 159 q 479 0 588 15 l 479 -83 l 395 -83 m 479 100 q 596 251 596 126 q 509 391 596 332 l 479 413 l 479 100 m 404 604 l 404 903 q 321 857 353 897 q 290 760 290 817 q 375 625 290 687 l 404 604 z "},"%":{"ha":837,"x_min":0,"x_max":837,"o":"m 0 -25 l 734 1029 l 837 1029 l 102 -25 l 0 -25 m 205 544 q 58 609 116 544 q 1 774 1 673 q 58 939 1 875 q 205 1004 116 1004 q 353 939 296 1004 q 411 774 411 875 q 353 609 411 673 q 205 544 296 544 m 205 611 q 281 656 252 611 q 311 774 311 701 q 281 892 311 847 q 205 937 252 937 q 130 892 159 937 q 101 774 101 847 q 130 656 101 701 q 205 611 159 611 m 631 0 q 484 65 542 0 q 427 230 427 130 q 484 396 427 331 q 631 460 542 460 q 779 396 722 460 q 837 230 837 331 q 779 65 837 130 q 631 0 722 0 m 631 67 q 707 112 678 67 q 736 230 736 157 q 707 348 736 303 q 631 393 678 393 q 556 348 585 393 q 527 230 527 303 q 556 112 527 157 q 631 67 585 67 z "},"&":{"ha":837,"x_min":16,"x_max":837,"o":"m 652 0 l 602 60 q 343 -25 492 -25 q 109 65 201 -25 q 16 292 16 155 q 72 470 16 399 q 254 596 127 542 q 194 809 194 728 q 255 968 194 907 q 415 1029 317 1029 q 568 975 509 1029 q 627 835 627 921 q 414 563 627 684 q 641 231 492 411 q 704 483 704 325 l 703 534 l 837 534 q 703 151 823 283 q 837 0 766 75 l 652 0 m 543 138 q 294 513 383 332 q 155 319 155 444 q 217 146 155 218 q 367 75 279 75 q 543 138 452 75 m 374 652 q 503 825 503 713 q 479 900 503 871 q 417 928 455 928 q 353 898 380 928 q 327 823 327 867 q 374 652 327 760 z "},"'":{"ha":837,"x_min":318,"x_max":519,"o":"m 368 652 l 318 1071 l 519 1071 l 469 652 l 368 652 z "},"(":{"ha":837,"x_min":234,"x_max":736,"o":"m 736 -201 q 375 2 515 -176 q 234 435 234 180 q 375 868 234 690 q 736 1071 515 1046 l 736 979 q 463 802 559 943 q 368 435 368 661 q 463 68 368 210 q 736 -109 559 -73 l 736 -201 z "},")":{"ha":837,"x_min":100,"x_max":602,"o":"m 100 1071 q 462 868 321 1046 q 602 435 602 690 q 461 2 602 180 q 100 -201 321 -176 l 100 -109 q 373 68 277 -73 q 469 435 469 209 q 373 802 469 661 q 100 979 278 943 l 100 1071 z "},"*":{"ha":837,"x_min":111,"x_max":726,"o":"m 477 766 l 684 860 l 726 732 l 503 686 l 503 696 q 477 766 503 732 m 496 667 l 650 498 l 541 420 l 429 617 q 496 667 471 629 m 408 617 l 296 420 l 187 498 l 340 667 q 408 617 366 629 m 334 686 l 111 732 l 153 860 l 359 766 q 334 695 334 732 l 334 686 m 376 778 l 351 1004 l 486 1004 l 460 778 q 418 787 437 787 q 376 778 400 787 z "},"+":{"ha":837,"x_min":58,"x_max":778,"o":"m 368 0 l 368 309 l 58 309 l 58 410 l 368 410 l 368 720 l 469 720 l 469 410 l 778 410 l 778 309 l 469 309 l 469 0 l 368 0 z "},",":{"ha":837,"x_min":318,"x_max":519,"o":"m 318 -218 l 318 -151 q 399 -31 387 -141 l 401 0 l 318 0 l 318 201 l 519 201 l 519 79 q 318 -218 519 -207 z "},"-":{"ha":837,"x_min":142,"x_max":694,"o":"m 142 368 l 142 469 l 694 469 l 694 368 l 142 368 z "},".":{"ha":837,"x_min":318,"x_max":519,"o":"m 318 0 l 318 201 l 519 201 l 519 0 l 318 0 z "},"/":{"ha":837,"x_min":51,"x_max":787,"o":"m 787 1071 l 163 -201 l 51 -201 l 675 1071 l 787 1071 z "},":":{"ha":837,"x_min":318,"x_max":519,"o":"m 318 536 l 318 736 l 519 736 l 519 536 l 318 536 m 318 0 l 318 201 l 519 201 l 519 0 l 318 0 z "},";":{"ha":837,"x_min":318,"x_max":519,"o":"m 318 -218 l 318 -151 q 401 0 393 -142 l 318 0 l 318 201 l 519 201 l 519 79 q 318 -218 519 -207 m 318 536 l 318 736 l 519 736 l 519 536 l 318 536 z "},"<":{"ha":837,"x_min":58,"x_max":778,"o":"m 778 0 l 58 359 l 778 720 l 778 607 l 283 359 l 778 113 l 778 0 z "},"=":{"ha":837,"x_min":58,"x_max":778,"o":"m 58 193 l 58 293 l 778 293 l 778 193 l 58 193 m 58 444 l 58 544 l 778 544 l 778 444 l 58 444 z "},">":{"ha":837,"x_min":58,"x_max":778,"o":"m 58 720 l 778 359 l 58 0 l 58 113 l 553 359 l 58 607 l 58 720 z "},"?":{"ha":837,"x_min":111,"x_max":736,"o":"m 284 0 l 284 151 l 451 151 l 451 0 l 284 0 m 300 284 l 300 303 q 335 457 300 392 q 451 591 370 523 l 498 630 q 596 789 596 711 q 368 929 596 929 q 212 909 292 929 l 212 793 l 111 793 l 111 989 q 391 1029 249 1029 q 647 972 558 1029 q 736 808 736 915 q 606 587 736 692 l 539 532 q 458 441 481 485 q 435 332 435 397 l 435 284 l 300 284 z "},"@":{"ha":837,"x_min":50,"x_max":837,"o":"m 653 22 q 437 -25 529 -25 q 158 113 266 -25 q 50 470 50 251 q 172 872 50 715 q 484 1029 294 1029 q 753 729 753 1029 l 753 284 l 837 284 l 837 201 l 653 201 l 653 426 q 458 193 575 193 q 351 263 393 193 q 310 445 310 334 q 384 705 310 598 q 566 811 458 811 q 653 789 604 811 q 477 945 627 945 q 245 807 340 945 q 151 469 151 669 q 235 174 151 289 q 450 58 319 58 q 653 115 538 58 l 653 22 m 653 594 l 653 711 q 574 739 610 739 q 454 664 498 739 q 410 460 410 589 q 472 292 410 288 q 562 380 511 294 q 653 594 614 466 z "},"A":{"ha":837,"x_min":8,"x_max":828,"o":"m 8 0 l 351 870 l 485 870 l 828 0 l 686 0 l 604 218 l 207 218 l 123 0 l 8 0 m 247 318 l 564 318 l 405 734 l 247 318 z "},"B":{"ha":837,"x_min":125,"x_max":754,"o":"m 125 0 l 125 870 l 406 870 q 711 668 711 870 q 659 535 711 591 q 512 455 606 479 q 754 225 754 406 q 683 64 754 122 q 578 13 637 25 q 388 0 519 0 l 125 0 m 259 494 l 306 494 q 576 644 576 494 q 524 744 576 718 q 321 770 471 770 l 259 770 l 259 494 m 259 100 l 380 100 q 562 127 512 100 q 612 227 612 155 q 530 361 612 311 q 308 410 448 410 l 259 410 l 259 100 z "},"C":{"ha":837,"x_min":69,"x_max":783,"o":"m 783 27 q 530 -21 649 -21 q 196 103 323 -21 q 69 431 69 228 q 195 764 69 636 q 525 891 321 891 q 772 852 640 891 l 772 729 q 521 791 637 791 q 299 692 386 791 q 212 439 212 593 q 310 186 212 285 q 563 88 408 88 q 783 137 656 88 l 783 27 z "},"D":{"ha":837,"x_min":88,"x_max":785,"o":"m 88 0 l 88 870 l 351 870 q 785 452 785 870 q 690 140 785 259 q 545 32 631 64 q 315 0 458 0 l 88 0 m 222 100 l 289 100 q 561 176 480 100 q 642 431 642 252 q 569 691 642 613 q 325 770 496 770 l 222 770 l 222 100 z "},"E":{"ha":837,"x_min":146,"x_max":766,"o":"m 146 0 l 146 870 l 734 870 l 734 770 l 280 770 l 280 506 l 665 506 l 665 406 l 280 406 l 280 100 l 766 100 l 766 0 l 146 0 z "},"F":{"ha":837,"x_min":168,"x_max":787,"o":"m 168 0 l 168 870 l 787 870 l 787 770 l 301 770 l 301 470 l 715 470 l 715 370 l 301 370 l 301 0 l 168 0 z "},"G":{"ha":837,"x_min":52,"x_max":766,"o":"m 755 852 l 755 729 q 504 791 621 791 q 282 692 369 791 q 195 439 195 593 q 293 187 195 286 q 544 88 391 88 q 632 96 578 88 l 632 326 l 469 326 l 469 427 l 766 427 l 766 22 q 507 -21 629 -21 q 179 104 305 -21 q 52 431 52 230 q 178 764 52 636 q 508 891 304 891 q 755 852 623 891 z "},"H":{"ha":837,"x_min":100,"x_max":736,"o":"m 100 0 l 100 870 l 234 870 l 234 490 l 602 490 l 602 870 l 736 870 l 736 0 l 602 0 l 602 389 l 234 389 l 234 0 l 100 0 z "},"I":{"ha":837,"x_min":117,"x_max":720,"o":"m 117 0 l 117 100 l 351 100 l 351 770 l 117 770 l 117 870 l 720 870 l 720 770 l 486 770 l 486 100 l 720 100 l 720 0 l 117 0 z "},"J":{"ha":837,"x_min":134,"x_max":631,"o":"m 134 12 l 134 125 l 178 110 q 326 79 271 79 q 459 129 421 79 q 498 304 498 178 l 498 770 l 197 770 l 197 870 l 631 870 l 631 375 q 616 178 631 243 q 556 65 600 114 q 335 -21 479 -21 q 134 12 257 -21 z "},"K":{"ha":837,"x_min":115,"x_max":815,"o":"m 115 0 l 115 870 l 249 870 l 249 444 l 613 870 l 748 870 l 397 460 l 815 0 l 655 0 l 249 444 l 249 0 l 115 0 z "},"L":{"ha":837,"x_min":151,"x_max":753,"o":"m 151 0 l 151 870 l 284 870 l 284 100 l 753 100 l 753 0 l 151 0 z "},"M":{"ha":837,"x_min":64,"x_max":772,"o":"m 64 0 l 64 870 l 224 870 l 416 334 l 417 334 l 605 870 l 772 870 l 772 0 l 663 0 l 663 747 l 662 747 l 466 184 l 353 184 l 158 731 l 157 731 l 157 0 l 64 0 z "},"N":{"ha":837,"x_min":100,"x_max":736,"o":"m 100 0 l 100 873 l 227 873 l 626 240 l 627 240 l 627 870 l 736 870 l 736 0 l 613 0 l 211 637 l 209 637 l 209 0 l 100 0 z "},"O":{"ha":837,"x_min":42,"x_max":795,"o":"m 42 435 q 144 767 42 644 q 418 891 246 891 q 693 767 591 891 q 795 435 795 644 q 693 103 795 227 q 418 -21 591 -21 q 144 103 246 -21 q 42 435 42 227 m 184 435 q 245 172 184 264 q 418 79 306 79 q 592 172 531 79 q 653 435 653 264 q 592 698 653 606 q 418 791 531 791 q 245 698 306 791 q 184 435 184 606 z "},"P":{"ha":837,"x_min":155,"x_max":785,"o":"m 155 0 l 155 870 l 437 870 q 653 843 589 870 q 785 623 785 786 q 679 408 785 486 q 386 330 572 330 l 288 330 l 288 0 l 155 0 m 288 431 l 372 431 q 643 621 643 431 q 592 735 643 701 q 421 770 541 770 l 288 770 l 288 431 z "},"Q":{"ha":837,"x_min":42,"x_max":837,"o":"m 580 12 q 837 -101 694 -68 l 766 -218 q 459 -19 592 -149 q 407 -21 425 -21 q 143 105 244 -21 q 42 435 42 231 q 144 767 42 644 q 418 891 246 891 q 693 767 591 891 q 795 435 795 644 q 740 175 795 284 q 580 12 684 66 m 184 435 q 245 172 184 264 q 418 79 306 79 q 592 172 531 79 q 653 435 653 264 q 592 698 653 606 q 418 791 531 791 q 245 698 306 791 q 184 435 184 606 z "},"R":{"ha":837,"x_min":125,"x_max":816,"o":"m 125 0 l 125 870 l 368 870 q 579 845 520 870 q 705 661 705 793 q 660 509 705 570 q 508 396 614 448 l 816 0 l 654 0 l 379 362 l 258 362 l 258 0 l 125 0 m 258 463 l 329 463 q 500 511 437 463 q 563 639 563 558 q 515 742 563 714 q 340 770 468 770 l 258 770 l 258 463 z "},"S":{"ha":837,"x_min":111,"x_max":758,"o":"m 685 850 l 685 734 q 423 791 538 791 q 242 669 242 791 q 276 589 242 619 q 401 527 310 559 l 487 497 l 568 469 q 758 244 758 403 q 661 51 758 123 q 402 -21 564 -21 q 111 27 290 -21 l 111 159 q 406 79 289 79 q 564 118 505 79 q 623 223 623 157 q 588 302 623 273 q 444 372 553 332 l 355 404 q 169 506 221 454 q 117 645 117 558 q 197 827 117 762 q 421 891 277 891 q 685 850 538 891 z "},"T":{"ha":837,"x_min":17,"x_max":820,"o":"m 351 0 l 351 770 l 17 770 l 17 870 l 820 870 l 820 770 l 486 770 l 486 0 l 351 0 z "},"U":{"ha":837,"x_min":104,"x_max":733,"o":"m 104 870 l 237 870 l 237 342 q 281 141 237 203 q 422 79 325 79 q 571 141 526 79 q 616 345 616 203 l 616 870 l 733 870 l 733 365 q 694 130 733 201 q 424 -21 612 -21 q 182 68 260 -21 q 104 344 104 158 l 104 870 z "},"V":{"ha":837,"x_min":9,"x_max":827,"o":"m 347 0 l 9 870 l 151 870 l 429 178 l 713 870 l 827 870 l 481 0 l 347 0 z "},"W":{"ha":837,"x_min":11,"x_max":825,"o":"m 140 0 l 11 870 l 125 870 l 231 147 l 233 147 l 358 686 l 487 686 l 610 155 l 612 155 l 724 870 l 825 870 l 682 0 l 537 0 l 417 511 l 416 511 l 295 0 l 140 0 z "},"X":{"ha":837,"x_min":7,"x_max":827,"o":"m 7 0 l 349 443 l 37 870 l 195 870 l 430 548 l 679 870 l 809 870 l 493 462 l 827 0 l 668 0 l 411 354 l 138 0 l 7 0 z "},"Y":{"ha":837,"x_min":22,"x_max":832,"o":"m 352 0 l 352 356 l 22 870 l 176 870 l 429 469 l 705 870 l 832 870 l 486 356 l 486 0 l 352 0 z "},"Z":{"ha":837,"x_min":67,"x_max":770,"o":"m 67 0 l 67 100 l 613 770 l 100 770 l 100 870 l 764 870 l 764 770 l 219 100 l 770 100 l 770 0 l 67 0 z "},"[":{"ha":837,"x_min":301,"x_max":720,"o":"m 301 -201 l 301 1071 l 720 1071 l 720 970 l 418 970 l 418 -100 l 720 -100 l 720 -201 l 301 -201 z "},"\\":{"ha":837,"x_min":50,"x_max":786,"o":"m 674 -201 l 50 1071 l 162 1071 l 786 -201 l 674 -201 z "},"]":{"ha":837,"x_min":117,"x_max":536,"o":"m 536 1071 l 536 -201 l 117 -201 l 117 -100 l 418 -100 l 418 970 l 117 970 l 117 1071 l 536 1071 z "},"^":{"ha":837,"x_min":58,"x_max":778,"o":"m 58 201 l 418 1004 l 778 201 l 665 201 l 418 753 l 171 201 l 58 201 z "},"_":{"ha":837,"x_min":0,"x_max":837,"o":"m 0 -100 l 0 0 l 837 0 l 837 -100 l 0 -100 z "},"`":{"ha":837,"x_min":251,"x_max":585,"o":"m 585 945 l 477 945 l 251 1096 l 435 1096 l 585 945 z "},"a":{"ha":837,"x_min":92,"x_max":802,"o":"m 566 89 q 324 -13 445 -13 q 158 45 223 -13 q 92 191 92 102 q 194 375 92 305 q 463 445 296 445 l 545 445 l 545 508 q 511 619 545 586 q 396 652 476 652 q 156 587 280 652 l 156 702 q 423 753 298 753 q 622 697 564 753 q 680 505 680 642 l 680 197 q 694 106 680 130 q 747 82 708 82 q 789 89 760 82 l 802 9 q 700 -13 734 -13 q 566 89 601 -13 m 545 176 l 545 361 l 505 361 q 231 213 231 361 q 266 127 231 159 q 359 94 301 94 q 545 176 447 94 z "},"b":{"ha":837,"x_min":117,"x_max":762,"o":"m 117 -8 l 117 1071 l 251 1071 l 251 598 q 492 753 348 753 q 689 656 617 753 q 762 393 762 559 q 676 96 762 210 q 452 -17 591 -17 q 251 83 334 -17 l 218 -8 l 117 -8 m 251 184 q 434 83 344 83 q 571 161 522 83 q 619 378 619 239 q 464 639 619 639 q 251 498 351 639 l 251 184 z "},"c":{"ha":837,"x_min":111,"x_max":748,"o":"m 748 24 q 511 -17 629 -17 q 215 83 319 -17 q 111 368 111 184 q 213 651 111 549 q 499 753 316 753 q 734 718 616 753 l 734 606 q 511 652 604 652 q 322 576 391 652 q 253 368 253 500 q 327 159 253 235 q 530 83 400 83 q 748 129 627 83 l 748 24 z "},"d":{"ha":837,"x_min":86,"x_max":730,"o":"m 597 0 l 597 138 q 355 -17 499 -17 q 158 80 231 -17 q 86 344 86 177 q 172 640 86 527 q 395 753 257 753 q 597 652 514 753 l 597 1071 l 730 1071 l 730 0 l 597 0 m 597 552 q 414 652 503 652 q 277 575 326 652 q 229 357 229 498 q 384 98 229 98 q 597 239 497 98 l 597 552 z "},"e":{"ha":837,"x_min":96,"x_max":745,"o":"m 745 29 q 490 -17 606 -17 q 198 81 300 -17 q 96 360 96 178 q 194 642 96 532 q 443 753 292 753 q 668 661 595 753 q 740 376 740 570 l 740 334 l 238 334 q 508 83 253 83 q 745 135 616 83 l 745 29 m 242 434 l 597 434 l 597 453 q 431 652 597 652 q 301 595 351 652 q 242 434 252 537 z "},"f":{"ha":837,"x_min":100,"x_max":814,"o":"m 301 0 l 301 619 l 100 619 l 100 720 l 301 720 l 301 798 q 373 1020 301 952 q 609 1088 445 1088 q 814 1059 718 1088 l 814 953 q 619 987 715 987 q 476 948 517 987 q 435 812 435 909 l 435 720 l 787 720 l 787 619 l 435 619 l 435 0 l 301 0 z "},"g":{"ha":837,"x_min":83,"x_max":731,"o":"m 144 -246 l 158 -134 q 381 -184 278 -184 q 595 20 595 -184 l 602 153 q 358 0 517 0 q 158 96 232 0 q 83 355 83 192 q 170 643 83 532 q 393 753 256 753 q 606 652 501 753 l 606 736 l 731 736 l 731 147 q 712 -68 731 4 q 641 -196 693 -140 q 380 -285 557 -285 q 144 -246 275 -285 m 597 261 l 597 551 q 411 652 507 652 q 275 576 323 652 q 226 363 226 500 q 269 182 226 248 q 388 117 311 117 q 597 261 507 117 z "},"h":{"ha":837,"x_min":123,"x_max":718,"o":"m 123 0 l 123 1071 l 257 1071 l 257 736 l 257 598 q 508 753 349 753 q 718 504 718 753 l 718 0 l 584 0 l 584 467 q 557 590 584 553 q 467 626 530 626 q 257 481 367 626 l 257 0 l 123 0 z "},"i":{"ha":837,"x_min":117,"x_max":536,"o":"m 385 0 l 385 636 l 117 636 l 117 736 l 519 736 l 519 0 l 385 0 m 368 903 l 368 1071 l 536 1071 l 536 903 l 368 903 z "},"j":{"ha":837,"x_min":100,"x_max":606,"o":"m 100 -249 l 100 -137 q 307 -184 205 -184 q 424 -141 393 -184 q 456 18 456 -98 l 456 636 l 155 636 l 155 736 l 589 736 l 589 45 q 522 -205 589 -126 q 307 -284 454 -284 q 100 -249 211 -284 m 439 903 l 439 1071 l 606 1071 l 606 903 l 439 903 z "},"k":{"ha":837,"x_min":144,"x_max":806,"o":"m 144 0 l 144 1071 l 278 1071 l 278 385 l 587 736 l 732 736 l 441 405 l 806 0 l 625 0 l 278 385 l 278 0 l 144 0 z "},"l":{"ha":837,"x_min":117,"x_max":536,"o":"m 401 0 l 401 970 l 117 970 l 117 1071 l 536 1071 l 536 0 l 401 0 z "},"m":{"ha":837,"x_min":63,"x_max":774,"o":"m 63 0 l 63 736 l 180 736 l 180 598 q 345 753 267 753 q 473 598 444 753 l 477 598 q 643 753 548 753 q 743 702 712 753 q 774 539 774 652 l 774 0 l 657 0 l 657 534 q 648 616 657 594 q 615 637 640 637 q 477 475 551 637 l 477 0 l 360 0 l 360 509 q 351 611 360 585 q 316 636 342 636 q 249 590 288 636 q 180 474 210 543 l 180 0 l 63 0 z "},"n":{"ha":837,"x_min":123,"x_max":718,"o":"m 123 0 l 123 736 l 257 736 l 257 598 q 508 753 349 753 q 718 504 718 753 l 718 0 l 584 0 l 584 467 q 557 590 584 553 q 467 626 530 626 q 257 481 367 626 l 257 0 l 123 0 z "},"o":{"ha":837,"x_min":71,"x_max":766,"o":"m 418 -17 q 164 86 256 -17 q 71 368 71 189 q 164 650 71 547 q 418 753 257 753 q 673 650 581 753 q 766 368 766 547 q 673 86 766 189 q 418 -17 581 -17 m 418 83 q 569 159 515 83 q 623 368 623 234 q 569 577 623 502 q 418 652 515 652 q 268 577 322 652 q 214 368 214 502 q 268 159 214 234 q 418 83 322 83 z "},"p":{"ha":837,"x_min":121,"x_max":766,"o":"m 121 -268 l 121 736 l 255 736 l 255 598 q 496 753 352 753 q 693 656 621 753 q 766 393 766 559 q 680 96 766 210 q 456 -17 595 -17 q 255 83 338 -17 l 255 -268 l 121 -268 m 255 184 q 438 83 348 83 q 575 161 526 83 q 623 378 623 239 q 468 639 623 639 q 255 498 355 639 l 255 184 z "},"q":{"ha":837,"x_min":75,"x_max":720,"o":"m 720 736 l 720 -268 l 586 -268 l 586 138 q 345 -17 488 -17 q 148 80 220 -17 q 75 344 75 177 q 161 640 75 527 q 385 753 246 753 q 586 652 503 753 l 590 652 l 611 736 l 720 736 m 586 552 q 403 652 492 652 q 266 575 315 652 q 218 357 218 498 q 373 98 218 98 q 586 239 486 98 l 586 552 z "},"r":{"ha":837,"x_min":209,"x_max":753,"o":"m 209 0 l 209 736 l 342 736 l 342 598 q 616 753 444 753 q 753 736 676 753 l 753 527 l 652 527 l 652 629 q 598 636 623 636 q 464 601 522 636 q 342 479 406 565 l 342 0 l 209 0 z "},"s":{"ha":837,"x_min":127,"x_max":715,"o":"m 127 30 l 127 151 q 395 83 282 83 q 530 116 477 83 q 583 199 583 149 q 456 304 583 264 l 313 351 q 146 543 146 406 q 221 698 146 643 q 435 753 297 753 q 676 721 539 753 l 676 612 q 435 652 544 652 q 318 626 361 652 q 274 555 274 600 q 374 465 274 500 l 543 406 q 675 329 635 374 q 715 212 715 283 q 629 45 715 107 q 398 -17 543 -17 q 127 30 271 -17 z "},"t":{"ha":837,"x_min":88,"x_max":747,"o":"m 747 1 q 553 -17 647 -17 q 331 42 390 -17 q 272 264 272 100 l 272 619 l 88 619 l 88 720 l 272 720 l 272 878 l 406 878 l 406 720 l 732 720 l 732 619 l 406 619 l 406 242 q 414 155 406 179 q 448 114 422 132 q 582 83 494 83 q 747 102 665 83 l 747 1 z "},"u":{"ha":837,"x_min":119,"x_max":713,"o":"m 713 736 l 713 0 l 580 0 l 580 138 q 328 -17 488 -17 q 119 233 119 -17 l 119 736 l 253 736 l 253 269 q 279 146 253 182 q 370 110 306 110 q 580 255 470 110 l 580 736 l 713 736 z "},"v":{"ha":837,"x_min":42,"x_max":795,"o":"m 347 0 l 42 736 l 179 736 l 424 146 l 676 736 l 795 736 l 481 0 l 347 0 z "},"w":{"ha":837,"x_min":8,"x_max":828,"o":"m 142 0 l 8 736 l 132 736 l 229 160 l 231 160 l 361 669 l 491 669 l 615 140 l 617 140 l 726 736 l 828 736 l 681 0 l 549 0 l 420 551 l 418 551 l 275 0 l 142 0 z "},"x":{"ha":837,"x_min":63,"x_max":783,"o":"m 63 0 l 337 372 l 64 736 l 232 736 l 435 465 l 622 736 l 754 736 l 504 373 l 783 0 l 616 0 l 405 281 l 198 0 l 63 0 z "},"y":{"ha":837,"x_min":58,"x_max":800,"o":"m 96 -268 l 96 -168 l 151 -168 q 261 -143 227 -168 q 334 -38 296 -119 l 367 33 l 58 736 l 196 736 l 437 185 l 680 736 l 800 736 l 429 -94 q 325 -230 385 -191 q 153 -268 264 -268 l 96 -268 z "},"z":{"ha":837,"x_min":92,"x_max":745,"o":"m 92 0 l 92 100 l 574 636 l 109 636 l 109 736 l 732 736 l 732 636 l 250 100 l 745 100 l 745 0 l 92 0 z "},"{":{"ha":837,"x_min":159,"x_max":694,"o":"m 694 1071 l 694 970 l 641 970 q 498 946 540 970 q 457 860 457 921 q 464 798 457 838 l 479 703 q 488 625 488 656 q 353 435 488 479 q 487 243 487 391 q 479 167 487 213 l 464 73 q 457 10 457 33 q 498 -76 457 -51 q 641 -100 540 -100 l 694 -100 l 694 -201 l 621 -201 q 409 -151 482 -201 q 335 -5 335 -100 q 345 86 335 35 l 368 207 q 372 260 372 234 q 220 385 372 385 l 159 385 l 159 486 l 220 486 q 372 610 372 486 q 368 663 372 636 l 345 784 q 335 876 335 835 q 621 1071 335 1071 l 694 1071 z "},"|":{"ha":837,"x_min":368,"x_max":469,"o":"m 368 -201 l 368 1071 l 469 1071 l 469 -201 l 368 -201 z "},"}":{"ha":837,"x_min":142,"x_max":678,"o":"m 142 -201 l 142 -100 l 195 -100 q 338 -76 297 -100 q 380 10 380 -51 q 373 73 380 33 l 357 167 q 349 245 349 214 q 483 435 349 391 q 349 625 349 479 q 357 703 349 656 l 373 798 q 380 860 380 838 q 338 946 380 921 q 195 970 296 970 l 142 970 l 142 1071 l 216 1071 q 428 1021 355 1071 q 501 876 501 970 q 492 784 501 835 l 469 663 q 464 610 464 636 q 616 486 464 486 l 678 486 l 678 385 l 616 385 q 464 260 464 385 q 469 207 464 234 l 492 86 q 501 -5 501 36 q 216 -201 501 -201 l 142 -201 z "},"~":{"ha":837,"x_min":58,"x_max":778,"o":"m 58 259 q 110 421 58 359 q 243 483 161 483 q 385 439 307 483 l 485 383 q 602 340 561 340 q 686 460 680 340 l 778 460 q 727 299 778 361 q 593 237 675 237 q 451 281 530 237 l 351 336 q 234 380 275 380 q 151 259 156 380 l 58 259 z "},"Ä":{"ha":837,"x_min":8,"x_max":828,"o":"m 8 0 l 351 870 l 485 870 l 828 0 l 686 0 l 604 218 l 207 218 l 123 0 l 8 0 m 247 318 l 564 318 l 405 734 l 247 318 m 192 979 l 192 1096 l 309 1096 l 309 979 l 192 979 m 526 979 l 526 1096 l 644 1096 l 644 979 l 526 979 z "},"Å":{"ha":837,"x_min":8,"x_max":828,"o":"m 485 870 l 828 0 l 686 0 l 608 218 l 207 218 l 123 0 l 8 0 l 351 870 l 352 870 q 296 973 296 909 q 331 1060 296 1025 q 418 1096 367 1096 q 505 1060 469 1096 q 541 973 541 1025 q 484 870 541 910 l 485 870 m 248 318 l 571 318 l 405 734 l 248 318 m 418 901 q 469 923 448 901 q 490 974 490 944 q 469 1025 490 1004 q 418 1046 448 1046 q 367 1025 388 1046 q 346 974 346 1004 q 367 923 346 944 q 418 901 388 901 z "},"Ç":{"ha":837,"x_min":69,"x_max":783,"o":"m 783 27 q 530 -21 649 -21 q 196 103 323 -21 q 69 431 69 228 q 195 764 69 636 q 525 891 321 891 q 772 852 640 891 l 772 729 q 521 791 637 791 q 299 692 386 791 q 212 439 212 593 q 310 186 212 285 q 563 88 408 88 q 783 137 656 88 l 783 27 m 475 0 l 541 0 l 500 -74 q 592 -106 552 -74 q 631 -181 631 -138 q 592 -260 631 -228 q 495 -293 552 -293 q 396 -279 446 -293 l 396 -224 q 467 -234 427 -234 q 537 -184 537 -234 q 410 -119 537 -119 l 475 0 z "},"É":{"ha":837,"x_min":146,"x_max":766,"o":"m 146 0 l 146 870 l 734 870 l 734 770 l 280 770 l 280 506 l 665 506 l 665 406 l 280 406 l 280 100 l 766 100 l 766 0 l 146 0 m 347 945 l 498 1096 l 682 1096 l 456 945 l 347 945 z "},"Ñ":{"ha":837,"x_min":100,"x_max":736,"o":"m 100 0 l 100 873 l 227 873 l 626 240 l 627 240 l 627 870 l 736 870 l 736 0 l 613 0 l 211 637 l 209 637 l 209 0 l 100 0 m 200 945 q 330 1096 208 1096 q 420 1072 376 1096 l 460 1049 q 517 1029 498 1029 q 568 1096 564 1029 l 652 1096 q 522 945 644 945 q 432 970 475 945 l 391 992 q 330 1013 355 1013 q 284 945 288 1013 l 200 945 z "},"Ö":{"ha":837,"x_min":42,"x_max":795,"o":"m 42 435 q 144 767 42 644 q 418 891 246 891 q 693 767 591 891 q 795 435 795 644 q 693 103 795 227 q 418 -21 591 -21 q 144 103 246 -21 q 42 435 42 227 m 184 435 q 245 172 184 264 q 418 79 306 79 q 592 172 531 79 q 653 435 653 264 q 592 698 653 606 q 418 791 531 791 q 245 698 306 791 q 184 435 184 606 m 193 979 l 193 1096 l 310 1096 l 310 979 l 193 979 m 527 979 l 527 1096 l 644 1096 l 644 979 l 527 979 z "},"Ü":{"ha":837,"x_min":104,"x_max":733,"o":"m 104 870 l 237 870 l 237 342 q 281 141 237 203 q 422 79 325 79 q 571 141 526 79 q 616 345 616 203 l 616 870 l 733 870 l 733 365 q 694 130 733 201 q 424 -21 612 -21 q 182 68 260 -21 q 104 344 104 158 l 104 870 m 220 979 l 220 1096 l 337 1096 l 337 979 l 220 979 m 554 979 l 554 1096 l 671 1096 l 671 979 l 554 979 z "},"á":{"ha":837,"x_min":92,"x_max":802,"o":"m 566 89 q 324 -13 445 -13 q 158 45 223 -13 q 92 191 92 102 q 194 375 92 305 q 463 445 296 445 l 545 445 l 545 508 q 511 619 545 586 q 396 652 476 652 q 156 587 280 652 l 156 702 q 423 753 298 753 q 622 697 564 753 q 680 505 680 642 l 680 197 q 694 106 680 130 q 747 82 708 82 q 789 89 760 82 l 802 9 q 700 -13 734 -13 q 566 89 601 -13 m 545 176 l 545 361 l 505 361 q 231 213 231 361 q 266 127 231 159 q 359 94 301 94 q 545 176 447 94 m 328 870 l 492 1088 l 646 1088 l 429 870 l 328 870 z "},"à":{"ha":837,"x_min":92,"x_max":802,"o":"m 566 89 q 324 -13 445 -13 q 158 45 223 -13 q 92 191 92 102 q 194 375 92 305 q 463 445 296 445 l 545 445 l 545 508 q 511 619 545 586 q 396 652 476 652 q 156 587 280 652 l 156 702 q 423 753 298 753 q 622 697 564 753 q 680 505 680 642 l 680 197 q 694 106 680 130 q 747 82 708 82 q 789 89 760 82 l 802 9 q 700 -13 734 -13 q 566 89 601 -13 m 545 176 l 545 361 l 505 361 q 231 213 231 361 q 266 127 231 159 q 359 94 301 94 q 545 176 447 94 m 529 870 l 429 870 l 211 1088 l 366 1088 l 529 870 z "},"â":{"ha":837,"x_min":92,"x_max":802,"o":"m 566 89 q 324 -13 445 -13 q 158 45 223 -13 q 92 191 92 102 q 194 375 92 305 q 463 445 296 445 l 545 445 l 545 508 q 511 619 545 586 q 396 652 476 652 q 156 587 280 652 l 156 702 q 423 753 298 753 q 622 697 564 753 q 680 505 680 642 l 680 197 q 694 106 680 130 q 747 82 708 82 q 789 89 760 82 l 802 9 q 700 -13 734 -13 q 566 89 601 -13 m 545 176 l 545 361 l 505 361 q 231 213 231 361 q 266 127 231 159 q 359 94 301 94 q 545 176 447 94 m 191 870 l 355 1088 l 503 1088 l 666 870 l 566 870 l 429 1007 l 428 1007 l 292 870 l 191 870 z "},"ä":{"ha":837,"x_min":92,"x_max":802,"o":"m 566 89 q 324 -13 445 -13 q 158 45 223 -13 q 92 191 92 102 q 194 375 92 305 q 463 445 296 445 l 545 445 l 545 508 q 511 619 545 586 q 396 652 476 652 q 156 587 280 652 l 156 702 q 423 753 298 753 q 622 697 564 753 q 680 505 680 642 l 680 197 q 694 106 680 130 q 747 82 708 82 q 789 89 760 82 l 802 9 q 700 -13 734 -13 q 566 89 601 -13 m 545 176 l 545 361 l 505 361 q 231 213 231 361 q 266 127 231 159 q 359 94 301 94 q 545 176 447 94 m 254 870 l 254 987 l 372 987 l 372 870 l 254 870 m 522 870 l 522 987 l 640 987 l 640 870 l 522 870 z "},"ã":{"ha":837,"x_min":92,"x_max":802,"o":"m 566 89 q 324 -13 445 -13 q 158 45 223 -13 q 92 191 92 102 q 194 375 92 305 q 463 445 296 445 l 545 445 l 545 508 q 511 619 545 586 q 396 652 476 652 q 156 587 280 652 l 156 702 q 423 753 298 753 q 622 697 564 753 q 680 505 680 642 l 680 197 q 694 106 680 130 q 747 82 708 82 q 789 89 760 82 l 802 9 q 700 -13 734 -13 q 566 89 601 -13 m 545 176 l 545 361 l 505 361 q 231 213 231 361 q 266 127 231 159 q 359 94 301 94 q 545 176 447 94 m 181 870 q 307 1029 189 1029 q 398 1003 356 1029 l 439 978 q 496 954 477 954 q 549 1029 543 954 l 633 1029 q 507 870 625 870 q 416 897 458 870 l 375 922 q 317 945 337 945 q 264 870 271 945 l 181 870 z "},"å":{"ha":837,"x_min":92,"x_max":802,"o":"m 566 89 q 324 -13 445 -13 q 158 45 223 -13 q 92 191 92 102 q 194 375 92 305 q 463 445 296 445 l 545 445 l 545 508 q 511 619 545 586 q 396 652 476 652 q 156 587 280 652 l 156 702 q 423 753 298 753 q 622 697 564 753 q 680 505 680 642 l 680 197 q 694 106 680 130 q 747 82 708 82 q 789 89 760 82 l 802 9 q 700 -13 734 -13 q 566 89 601 -13 m 545 176 l 545 361 l 505 361 q 231 213 231 361 q 266 127 231 159 q 359 94 301 94 q 545 176 447 94 m 429 845 q 340 882 376 845 q 303 970 303 918 q 340 1059 303 1023 q 429 1096 376 1096 q 517 1059 481 1096 q 554 970 554 1023 q 517 882 554 918 q 429 845 481 845 m 429 895 q 482 917 460 895 q 504 970 504 939 q 482 1024 504 1002 q 429 1046 460 1046 q 375 1024 397 1046 q 353 970 353 1002 q 375 917 353 939 q 429 895 397 895 z "},"ç":{"ha":837,"x_min":111,"x_max":748,"o":"m 748 24 q 511 -17 629 -17 q 215 83 319 -17 q 111 368 111 184 q 213 651 111 549 q 499 753 316 753 q 734 718 616 753 l 734 606 q 511 652 604 652 q 322 576 391 652 q 253 368 253 500 q 327 159 253 235 q 530 83 400 83 q 748 129 627 83 l 748 24 m 425 0 l 491 0 l 450 -74 q 542 -106 503 -74 q 582 -181 582 -138 q 542 -260 582 -228 q 446 -293 503 -293 q 347 -279 397 -293 l 347 -224 q 418 -234 378 -234 q 488 -184 488 -234 q 361 -119 488 -119 l 425 0 z "},"é":{"ha":837,"x_min":96,"x_max":745,"o":"m 745 29 q 490 -17 606 -17 q 198 81 300 -17 q 96 360 96 178 q 194 642 96 532 q 443 753 292 753 q 668 661 595 753 q 740 376 740 570 l 740 334 l 238 334 q 508 83 253 83 q 745 135 616 83 l 745 29 m 242 434 l 597 434 l 597 453 q 431 652 597 652 q 301 595 351 652 q 242 434 252 537 m 343 870 l 507 1088 l 661 1088 l 444 870 l 343 870 z "},"è":{"ha":837,"x_min":96,"x_max":745,"o":"m 745 29 q 490 -17 606 -17 q 198 81 300 -17 q 96 360 96 178 q 194 642 96 532 q 443 753 292 753 q 668 661 595 753 q 740 376 740 570 l 740 334 l 238 334 q 508 83 253 83 q 745 135 616 83 l 745 29 m 242 434 l 597 434 l 597 453 q 431 652 597 652 q 301 595 351 652 q 242 434 252 537 m 545 870 l 444 870 l 227 1088 l 381 1088 l 545 870 z "},"ê":{"ha":837,"x_min":96,"x_max":745,"o":"m 745 29 q 490 -17 606 -17 q 198 81 300 -17 q 96 360 96 178 q 194 642 96 532 q 443 753 292 753 q 668 661 595 753 q 740 376 740 570 l 740 334 l 238 334 q 508 83 253 83 q 745 135 616 83 l 745 29 m 242 434 l 597 434 l 597 453 q 431 652 597 652 q 301 595 351 652 q 242 434 252 537 m 205 870 l 368 1088 l 516 1088 l 680 870 l 579 870 l 443 1007 l 441 1007 l 305 870 l 205 870 z "},"ë":{"ha":837,"x_min":96,"x_max":745,"o":"m 745 29 q 490 -17 606 -17 q 198 81 300 -17 q 96 360 96 178 q 194 642 96 532 q 443 753 292 753 q 668 661 595 753 q 740 376 740 570 l 740 334 l 238 334 q 508 83 253 83 q 745 135 616 83 l 745 29 m 242 434 l 597 434 l 597 453 q 431 652 597 652 q 301 595 351 652 q 242 434 252 537 m 279 870 l 279 987 l 396 987 l 396 870 l 279 870 m 547 870 l 547 987 l 664 987 l 664 870 l 547 870 z "},"í":{"ha":837,"x_min":117,"x_max":644,"o":"m 385 0 l 385 636 l 117 636 l 117 736 l 519 736 l 519 0 l 385 0 m 326 870 l 490 1088 l 644 1088 l 427 870 l 326 870 z "},"ì":{"ha":837,"x_min":117,"x_max":553,"o":"m 385 0 l 385 636 l 117 636 l 117 736 l 519 736 l 519 0 l 385 0 m 553 870 l 452 870 l 235 1088 l 389 1088 l 553 870 z "},"î":{"ha":837,"x_min":117,"x_max":690,"o":"m 385 0 l 385 636 l 117 636 l 117 736 l 519 736 l 519 0 l 385 0 m 216 870 l 379 1088 l 527 1088 l 690 870 l 590 870 l 454 1007 l 452 1007 l 316 870 l 216 870 z "},"ï":{"ha":837,"x_min":117,"x_max":636,"o":"m 385 0 l 385 636 l 117 636 l 117 736 l 519 736 l 519 0 l 385 0 m 251 870 l 251 987 l 368 987 l 368 870 l 251 870 m 519 870 l 519 987 l 636 987 l 636 870 l 519 870 z "},"ñ":{"ha":837,"x_min":123,"x_max":718,"o":"m 123 0 l 123 736 l 257 736 l 257 598 q 508 753 349 753 q 718 504 718 753 l 718 0 l 584 0 l 584 467 q 557 590 584 553 q 467 626 530 626 q 257 481 367 626 l 257 0 l 123 0 m 191 870 q 316 1029 198 1029 q 408 1003 366 1029 l 448 978 q 506 954 486 954 q 559 1029 553 954 l 642 1029 q 517 870 635 870 q 425 897 467 870 l 385 922 q 327 945 347 945 q 274 870 280 945 l 191 870 z "},"ó":{"ha":837,"x_min":71,"x_max":766,"o":"m 418 -17 q 164 86 256 -17 q 71 368 71 189 q 164 650 71 547 q 418 753 257 753 q 673 650 581 753 q 766 368 766 547 q 673 86 766 189 q 418 -17 581 -17 m 418 83 q 569 159 515 83 q 623 368 623 234 q 569 577 623 502 q 418 652 515 652 q 268 577 322 652 q 214 368 214 502 q 268 159 214 234 q 418 83 322 83 m 318 870 l 481 1088 l 636 1088 l 418 870 l 318 870 z "},"ò":{"ha":837,"x_min":71,"x_max":766,"o":"m 418 -17 q 164 86 256 -17 q 71 368 71 189 q 164 650 71 547 q 418 753 257 753 q 673 650 581 753 q 766 368 766 547 q 673 86 766 189 q 418 -17 581 -17 m 418 83 q 569 159 515 83 q 623 368 623 234 q 569 577 623 502 q 418 652 515 652 q 268 577 322 652 q 214 368 214 502 q 268 159 214 234 q 418 83 322 83 m 519 870 l 418 870 l 201 1088 l 355 1088 l 519 870 z "},"ô":{"ha":837,"x_min":71,"x_max":766,"o":"m 418 -17 q 164 86 256 -17 q 71 368 71 189 q 164 650 71 547 q 418 753 257 753 q 673 650 581 753 q 766 368 766 547 q 673 86 766 189 q 418 -17 581 -17 m 418 83 q 569 159 515 83 q 623 368 623 234 q 569 577 623 502 q 418 652 515 652 q 268 577 322 652 q 214 368 214 502 q 268 159 214 234 q 418 83 322 83 m 181 870 l 345 1088 l 492 1088 l 656 870 l 555 870 l 419 1007 l 418 1007 l 281 870 l 181 870 z "},"ö":{"ha":837,"x_min":71,"x_max":766,"o":"m 418 -17 q 164 86 256 -17 q 71 368 71 189 q 164 650 71 547 q 418 753 257 753 q 673 650 581 753 q 766 368 766 547 q 673 86 766 189 q 418 -17 581 -17 m 418 83 q 569 159 515 83 q 623 368 623 234 q 569 577 623 502 q 418 652 515 652 q 268 577 322 652 q 214 368 214 502 q 268 159 214 234 q 418 83 322 83 m 226 870 l 226 987 l 343 987 l 343 870 l 226 870 m 494 870 l 494 987 l 611 987 l 611 870 l 494 870 z "},"õ":{"ha":837,"x_min":71,"x_max":766,"o":"m 418 -17 q 164 86 256 -17 q 71 368 71 189 q 164 650 71 547 q 418 753 257 753 q 673 650 581 753 q 766 368 766 547 q 673 86 766 189 q 418 -17 581 -17 m 418 83 q 569 159 515 83 q 623 368 623 234 q 569 577 623 502 q 418 652 515 652 q 268 577 322 652 q 214 368 214 502 q 268 159 214 234 q 418 83 322 83 m 193 870 q 318 1029 200 1029 q 410 1003 368 1029 l 450 978 q 508 954 488 954 q 561 1029 555 954 l 644 1029 q 519 870 637 870 q 427 897 469 870 l 387 922 q 329 945 349 945 q 276 870 282 945 l 193 870 z "},"ú":{"ha":837,"x_min":119,"x_max":713,"o":"m 713 736 l 713 0 l 580 0 l 580 138 q 328 -17 488 -17 q 119 233 119 -17 l 119 736 l 253 736 l 253 269 q 279 146 253 182 q 370 110 306 110 q 580 255 470 110 l 580 736 l 713 736 m 316 870 l 479 1088 l 634 1088 l 416 870 l 316 870 z "},"ù":{"ha":837,"x_min":119,"x_max":713,"o":"m 713 736 l 713 0 l 580 0 l 580 138 q 328 -17 488 -17 q 119 233 119 -17 l 119 736 l 253 736 l 253 269 q 279 146 253 182 q 370 110 306 110 q 580 255 470 110 l 580 736 l 713 736 m 517 870 l 416 870 l 199 1088 l 353 1088 l 517 870 z "},"û":{"ha":837,"x_min":119,"x_max":713,"o":"m 713 736 l 713 0 l 580 0 l 580 138 q 328 -17 488 -17 q 119 233 119 -17 l 119 736 l 253 736 l 253 269 q 279 146 253 182 q 370 110 306 110 q 580 255 470 110 l 580 736 l 713 736 m 179 870 l 342 1088 l 490 1088 l 654 870 l 553 870 l 417 1007 l 416 1007 l 279 870 l 179 870 z "},"ü":{"ha":837,"x_min":119,"x_max":713,"o":"m 713 736 l 713 0 l 580 0 l 580 138 q 328 -17 488 -17 q 119 233 119 -17 l 119 736 l 253 736 l 253 269 q 279 146 253 182 q 370 110 306 110 q 580 255 470 110 l 580 736 l 713 736 m 241 870 l 241 987 l 358 987 l 358 870 l 241 870 m 509 870 l 509 987 l 626 987 l 626 870 l 509 870 z "},"†":{"ha":837,"x_min":134,"x_max":703,"o":"m 351 -201 l 368 569 l 134 552 l 134 652 l 368 636 l 351 1004 l 485 1004 l 468 636 l 703 652 l 703 552 l 468 569 l 485 -201 l 351 -201 z "},"°":{"ha":837,"x_min":266,"x_max":567,"o":"m 416 728 q 310 772 353 728 q 266 879 266 816 q 310 985 266 942 q 416 1029 353 1029 q 523 985 479 1029 q 567 879 567 941 q 523 772 567 816 q 416 728 479 728 m 416 795 q 475 820 450 795 q 500 878 500 845 q 475 937 500 912 q 416 962 450 962 q 358 937 383 962 q 333 878 333 912 q 358 820 333 845 q 416 795 383 795 z "},"¢":{"ha":837,"x_min":134,"x_max":689,"o":"m 430 0 l 430 123 q 211 241 288 142 q 134 503 134 340 q 210 761 134 663 q 430 886 286 860 l 430 1004 l 513 1004 l 513 886 q 688 855 588 880 l 688 741 q 513 787 592 777 l 513 220 q 689 267 609 229 l 689 164 q 513 121 614 134 l 513 0 l 430 0 m 430 231 l 430 781 q 276 504 276 747 q 430 231 276 286 z "},"£":{"ha":837,"x_min":170,"x_max":724,"o":"m 170 0 l 170 117 q 305 327 305 169 l 305 486 l 188 486 l 188 586 l 305 586 l 305 732 q 372 953 305 878 q 568 1029 439 1029 q 713 1009 633 1029 l 713 895 q 564 928 623 928 q 439 785 439 928 l 439 586 l 573 586 l 573 486 l 439 486 l 439 389 q 416 243 439 296 q 323 117 394 190 l 724 117 l 724 0 l 170 0 z "},"§":{"ha":837,"x_min":147,"x_max":696,"o":"m 147 -173 l 147 -50 q 415 -125 304 -125 q 529 -91 483 -125 q 574 -5 574 -56 q 539 78 574 41 q 416 159 503 115 l 337 199 q 157 418 157 290 q 176 508 157 467 q 254 623 195 548 q 157 791 157 696 q 242 962 157 895 q 461 1029 328 1029 q 660 1001 558 1029 l 660 888 q 454 928 552 928 q 327 896 376 928 q 277 810 277 863 q 300 749 277 774 q 386 693 323 724 l 474 649 q 683 411 683 545 q 583 203 683 312 q 696 11 696 120 q 613 -156 696 -90 q 405 -222 530 -222 q 147 -173 295 -222 m 520 245 q 569 370 569 321 q 538 455 569 419 q 429 530 507 490 l 378 556 l 347 571 q 324 583 340 574 q 277 458 277 515 q 306 376 277 410 q 406 304 334 342 l 459 277 l 493 260 q 520 245 501 256 z "},"•":{"ha":837,"x_min":218,"x_max":619,"o":"m 418 197 q 276 255 335 197 q 218 397 218 314 q 276 539 218 481 q 418 598 335 598 q 561 539 502 598 q 619 397 619 481 q 561 255 619 314 q 418 197 502 197 z "},"¶":{"ha":837,"x_min":85,"x_max":679,"o":"m 344 -201 l 344 502 q 85 783 85 560 q 142 947 85 890 q 361 1004 199 1004 l 679 1004 l 679 -201 l 595 -201 l 595 920 l 428 920 l 428 -201 l 344 -201 z "},"ß":{"ha":837,"x_min":130,"x_max":798,"o":"m 130 0 l 130 787 q 188 1021 130 954 q 391 1088 245 1088 q 573 1040 506 1088 q 640 908 640 991 q 562 722 640 824 l 531 683 q 499 612 499 642 q 541 538 499 573 l 682 417 q 798 205 798 317 q 734 44 798 105 q 568 -17 671 -17 q 361 22 470 -17 l 361 138 q 550 83 485 83 q 672 190 672 83 q 656 252 672 227 q 591 319 640 277 l 460 433 q 380 572 380 501 q 446 733 380 639 l 469 767 q 506 884 506 819 q 385 987 506 987 q 263 837 263 987 l 263 0 l 130 0 z "},"®":{"ha":837,"x_min":117,"x_max":720,"o":"m 418 427 q 205 515 294 427 q 117 728 117 603 q 205 941 117 853 q 418 1029 294 1029 q 631 941 543 1029 q 720 728 720 853 q 631 515 720 603 q 418 427 543 427 m 418 494 q 584 563 515 494 q 653 728 653 631 q 584 893 653 824 q 418 962 515 962 q 253 893 322 962 q 184 728 184 824 q 253 563 184 631 q 418 494 322 494 m 301 552 l 301 912 l 401 912 q 536 815 536 912 q 467 711 536 747 l 551 552 l 476 552 l 399 698 l 368 698 l 368 552 l 301 552 m 368 749 l 391 749 q 466 807 466 749 q 399 860 466 860 l 368 860 l 368 749 z "},"©":{"ha":837,"x_min":42,"x_max":795,"o":"m 418 -25 q 42 501 42 -25 q 418 1029 42 1029 q 699 898 604 1029 q 795 513 795 766 q 702 108 795 241 q 418 -25 609 -25 m 418 50 q 711 501 711 50 q 418 954 711 954 q 125 501 125 954 q 418 50 125 50 m 604 244 q 444 203 520 203 q 258 286 328 203 q 189 503 189 368 q 258 724 189 644 q 451 803 328 803 q 603 776 522 803 l 603 678 q 449 722 530 722 q 331 666 373 722 q 290 509 290 610 q 337 351 290 409 q 467 293 385 293 q 604 332 524 293 l 604 244 z "},"™":{"ha":837,"x_min":65,"x_max":772,"o":"m 173 502 l 173 920 l 65 920 l 65 1004 l 496 1004 l 583 737 l 666 1004 l 772 1004 l 772 502 l 671 502 l 671 827 l 596 586 l 532 586 l 463 798 l 463 502 l 388 502 l 388 920 l 273 920 l 273 502 l 173 502 z "},"´":{"ha":837,"x_min":251,"x_max":585,"o":"m 251 945 l 401 1096 l 585 1096 l 359 945 l 251 945 z "},"¨":{"ha":837,"x_min":193,"x_max":644,"o":"m 193 979 l 193 1096 l 310 1096 l 310 979 l 193 979 m 527 979 l 527 1096 l 644 1096 l 644 979 l 527 979 z "},"≠":{"ha":837,"x_min":58,"x_max":778,"o":"m 377 193 l 327 92 l 233 92 l 283 193 l 58 193 l 58 293 l 334 293 l 409 444 l 58 444 l 58 544 l 459 544 l 509 644 l 603 644 l 553 544 l 778 544 l 778 444 l 503 444 l 427 293 l 778 293 l 778 193 l 377 193 z "},"Æ":{"ha":837,"x_min":0,"x_max":812,"o":"m 0 0 l 383 870 l 778 870 l 778 770 l 552 770 l 552 473 l 732 473 l 732 372 l 552 372 l 552 100 l 812 100 l 812 0 l 427 0 l 427 180 l 196 180 l 117 0 l 0 0 m 241 280 l 427 280 l 427 703 l 241 280 z "},"Ø":{"ha":837,"x_min":42,"x_max":795,"o":"m 42 -21 l 138 113 q 42 435 42 252 q 144 767 42 643 q 417 891 246 891 q 641 819 549 891 l 692 891 l 795 891 l 700 758 q 795 435 795 617 q 693 103 795 227 q 420 -21 591 -21 q 195 51 290 -21 l 144 -21 l 42 -21 m 218 226 l 573 724 q 419 791 511 791 q 246 699 307 791 q 184 442 184 608 q 218 226 184 321 m 619 644 l 263 146 q 420 79 326 79 q 592 172 532 79 q 653 437 653 265 q 619 644 653 547 z "},"∞":{"ha":837,"x_min":17,"x_max":821,"o":"m 413 273 q 201 75 323 75 q 72 154 126 75 q 17 342 17 233 q 73 551 17 465 q 209 636 128 636 q 380 515 307 636 l 410 465 l 426 438 q 636 636 509 636 q 767 558 714 636 q 821 368 821 481 q 765 160 821 244 q 627 75 709 75 q 429 242 515 75 l 413 273 m 358 357 l 342 385 q 205 512 273 512 q 143 467 166 512 q 119 347 119 422 q 144 221 119 271 q 205 174 169 172 q 358 357 268 177 m 479 353 l 491 330 q 630 197 561 197 q 693 243 669 197 q 718 363 718 289 q 693 489 718 442 q 629 535 669 535 q 557 484 600 535 q 479 353 515 433 z "},"±":{"ha":837,"x_min":58,"x_max":778,"o":"m 58 0 l 58 100 l 778 100 l 778 0 l 58 0 m 368 201 l 368 410 l 58 410 l 58 511 l 368 511 l 368 720 l 469 720 l 469 511 l 778 511 l 778 410 l 469 410 l 469 201 l 368 201 z "},"≤":{"ha":837,"x_min":58,"x_max":778,"o":"m 58 -100 l 58 0 l 778 0 l 778 -100 l 58 -100 m 778 100 l 58 460 l 778 820 l 778 708 l 283 460 l 778 213 l 778 100 z "},"≥":{"ha":837,"x_min":58,"x_max":778,"o":"m 58 -100 l 58 0 l 778 0 l 778 -100 l 58 -100 m 58 820 l 778 460 l 58 100 l 58 213 l 553 460 l 58 708 l 58 820 z "},"¥":{"ha":837,"x_min":34,"x_max":820,"o":"m 350 0 l 350 180 l 149 180 l 149 272 l 350 272 l 350 410 l 149 410 l 149 502 l 348 502 l 34 1004 l 194 1004 l 441 610 l 705 1004 l 820 1004 l 489 502 l 684 502 l 684 410 l 484 410 l 484 272 l 684 272 l 684 180 l 484 180 l 484 0 l 350 0 z "},"µ":{"ha":837,"x_min":123,"x_max":762,"o":"m 123 -284 l 123 736 l 257 736 l 257 361 q 270 231 257 272 q 318 157 282 189 q 429 113 366 113 q 588 258 514 113 l 588 736 l 722 736 l 722 227 q 762 0 722 80 l 616 0 q 591 117 602 39 q 588 138 590 124 q 516 18 553 52 q 422 -17 479 -17 q 335 4 372 -17 q 257 81 299 26 l 257 71 l 257 -284 l 123 -284 z "},"∂":{"ha":837,"x_min":117,"x_max":724,"o":"m 146 880 q 427 1088 246 1088 q 646 964 568 1088 q 724 617 724 840 q 609 163 724 344 q 321 -17 494 -17 q 173 48 229 -17 q 117 219 117 113 q 234 544 117 395 q 490 692 351 692 q 621 645 548 692 l 621 665 q 554 885 621 798 q 387 973 487 973 q 146 880 254 973 m 621 525 q 482 595 554 595 q 318 493 393 595 q 243 269 243 391 q 276 136 243 186 q 365 86 310 86 q 530 212 457 86 q 621 525 604 337 z "},"∑":{"ha":837,"x_min":33,"x_max":826,"o":"m 33 0 l 33 117 l 431 491 l 62 903 l 62 1004 l 793 1004 l 793 903 l 241 903 l 596 509 l 180 117 l 826 117 l 826 0 l 33 0 z "},"∏":{"ha":837,"x_min":46,"x_max":791,"o":"m 113 0 l 113 903 l 46 903 l 46 1004 l 791 1004 l 791 903 l 724 903 l 724 0 l 590 0 l 590 903 l 247 903 l 247 0 l 113 0 z "},"π":{"ha":837,"x_min":38,"x_max":800,"o":"m 197 0 l 197 619 l 169 619 q 38 572 116 619 l 38 703 q 176 736 107 736 l 800 736 l 800 619 l 674 619 l 674 200 q 726 0 674 85 l 585 0 q 541 205 541 99 l 541 619 l 331 619 l 331 0 l 197 0 z "},"∫":{"ha":837,"x_min":161,"x_max":676,"o":"m 555 947 q 547 947 550 947 q 479 701 479 947 l 485 440 l 485 382 q 434 -66 485 68 q 267 -201 384 -201 q 192 -176 222 -201 q 161 -116 161 -151 q 181 -68 161 -90 q 226 -47 201 -47 q 268 -63 251 -47 q 286 -103 286 -79 q 283 -119 286 -108 q 292 -120 290 -120 q 359 107 359 -120 l 357 187 l 351 388 l 351 446 q 402 893 351 758 q 572 1029 454 1029 q 646 1004 616 1029 q 676 944 676 980 q 656 894 676 915 q 609 873 636 873 q 552 929 552 873 q 555 947 552 935 z "},"ª":{"ha":837,"x_min":161,"x_max":701,"o":"m 513 559 q 324 486 408 486 q 208 529 254 486 q 161 639 161 573 q 237 777 161 729 q 456 825 313 825 l 503 825 l 503 844 q 388 945 503 945 q 187 885 296 945 l 187 984 q 406 1029 289 1029 q 571 988 522 1029 q 621 852 621 948 l 621 657 q 669 580 621 580 q 701 587 684 580 l 701 509 q 612 486 657 486 q 513 559 539 486 m 503 636 l 503 741 l 469 741 q 276 646 276 741 q 298 595 276 615 q 353 575 320 575 q 503 636 432 575 z "},"º":{"ha":837,"x_min":151,"x_max":686,"o":"m 418 486 q 220 556 290 486 q 151 758 151 627 q 219 958 151 886 q 413 1029 288 1029 q 616 959 546 1029 q 686 758 686 889 q 616 556 686 627 q 418 486 547 486 m 418 569 q 560 753 560 569 q 418 945 560 945 q 276 753 276 945 q 418 569 276 569 z "},"Ω":{"ha":837,"x_min":33,"x_max":803,"o":"m 376 100 l 376 0 l 33 0 l 33 100 l 253 100 q 41 590 41 350 q 150 902 41 776 q 418 1029 258 1029 q 686 903 578 1029 q 795 590 795 777 q 583 100 795 350 l 803 100 l 803 0 l 460 0 l 460 100 q 650 568 650 286 q 588 832 650 736 q 418 928 526 928 q 248 832 310 928 q 186 568 186 736 q 376 100 186 286 z "},"æ":{"ha":837,"x_min":33,"x_max":817,"o":"m 402 85 q 229 -17 322 -17 q 89 43 144 -17 q 33 195 33 103 q 113 371 33 300 q 309 442 192 442 l 354 442 l 354 521 q 245 652 354 652 q 96 616 180 652 l 96 718 q 281 753 189 753 q 446 672 396 753 q 595 753 510 753 q 817 396 817 753 l 817 350 l 480 350 q 515 151 480 211 q 632 90 551 90 q 812 134 713 90 l 812 28 q 602 -17 672 -17 q 486 6 531 -17 q 402 85 440 30 m 354 153 l 354 359 l 321 359 q 205 317 252 359 q 159 212 159 275 q 187 129 159 161 q 262 97 216 97 q 339 137 300 97 l 354 153 m 480 442 l 691 442 l 691 474 q 669 612 691 572 q 592 652 646 652 q 511 604 541 652 q 481 473 481 556 l 480 442 z "},"ø":{"ha":837,"x_min":71,"x_max":766,"o":"m 545 602 q 417 652 490 652 q 267 575 319 652 q 214 357 214 498 q 237 222 214 287 l 242 207 l 545 602 m 71 -17 l 156 94 q 71 369 71 203 q 164 650 71 547 q 415 753 256 753 q 617 697 533 753 l 661 753 l 766 753 l 680 641 q 766 371 766 536 q 674 87 766 191 q 424 -17 582 -17 q 218 38 301 -17 l 176 -17 l 71 -17 m 291 133 q 420 83 341 83 q 571 161 518 83 q 624 382 624 238 q 595 530 624 460 l 291 133 z "},"¿":{"ha":837,"x_min":100,"x_max":726,"o":"m 385 586 l 385 736 l 553 736 l 553 586 l 385 586 m 536 452 l 536 441 q 502 288 536 353 q 386 154 468 222 l 338 115 q 241 -44 241 33 q 469 -184 241 -184 q 625 -164 545 -184 l 625 -49 l 726 -49 l 726 -245 q 446 -284 588 -284 q 190 -227 279 -284 q 100 -63 100 -170 q 230 158 100 52 l 298 212 q 379 304 356 260 q 402 412 402 348 l 402 452 l 536 452 z "},"¡":{"ha":837,"x_min":334,"x_max":502,"o":"m 468 452 l 485 -67 l 485 -268 l 351 -268 l 351 -67 l 368 452 l 468 452 m 334 586 l 334 736 l 502 736 l 502 586 l 334 586 z "},"¬":{"ha":837,"x_min":58,"x_max":778,"o":"m 58 435 l 58 536 l 778 536 l 778 201 l 677 201 l 677 435 l 58 435 z "},"√":{"ha":837,"x_min":0,"x_max":837,"o":"m 43 220 l 0 292 l 186 402 l 387 -26 l 732 1096 l 837 1096 l 439 -201 l 357 -201 l 135 274 l 43 220 z "},"ƒ":{"ha":837,"x_min":26,"x_max":744,"o":"m 318 636 l 184 636 l 184 736 l 318 736 l 318 825 q 382 1025 318 962 q 587 1088 446 1088 q 744 1065 667 1088 l 744 960 q 591 987 661 987 q 479 959 506 987 q 452 839 452 930 l 452 736 l 652 736 l 652 636 l 452 636 l 452 -22 q 388 -222 452 -159 q 184 -284 324 -284 q 26 -262 104 -284 l 26 -156 q 179 -184 108 -184 q 291 -155 264 -184 q 318 -36 318 -126 l 318 636 z "},"≈":{"ha":837,"x_min":58,"x_max":778,"o":"m 58 414 q 110 575 58 513 q 243 637 161 637 q 385 593 307 637 l 485 537 q 602 494 561 494 q 686 614 680 494 l 778 614 q 727 453 778 515 q 593 391 675 391 q 451 435 530 391 l 351 491 q 234 534 275 534 q 151 414 156 534 l 58 414 m 58 123 q 110 285 58 222 q 243 347 161 347 q 385 302 307 347 l 485 247 q 602 204 561 204 q 686 324 680 204 l 778 324 q 727 162 778 224 q 593 100 675 100 q 451 144 529 100 l 351 201 q 234 243 275 243 q 151 123 156 243 l 58 123 z "},"∆":{"ha":837,"x_min":21,"x_max":816,"o":"m 21 0 l 21 117 l 351 1004 l 484 1004 l 816 117 l 816 0 l 21 0 m 136 117 l 673 117 l 404 844 l 136 117 z "},"«":{"ha":837,"x_min":79,"x_max":742,"o":"m 380 673 l 445 618 l 231 364 l 444 113 l 382 58 l 79 364 l 380 673 m 677 673 l 742 618 l 528 364 l 741 113 l 679 58 l 376 364 l 677 673 z "},"»":{"ha":837,"x_min":95,"x_max":758,"o":"m 160 58 l 95 114 l 309 368 l 96 620 l 158 673 l 460 368 l 160 58 m 457 58 l 392 114 l 606 368 l 393 620 l 455 673 l 758 368 l 457 58 z "},"…":{"ha":837,"x_min":73,"x_max":764,"o":"m 73 0 l 73 134 l 206 134 l 206 0 l 73 0 m 351 0 l 351 134 l 486 134 l 486 0 l 351 0 m 630 0 l 630 134 l 764 134 l 764 0 l 630 0 z "}," ":{"ha":837,"x_min":0,"x_max":0,"o":""},"À":{"ha":837,"x_min":8,"x_max":828,"o":"m 8 0 l 351 870 l 485 870 l 828 0 l 686 0 l 604 218 l 207 218 l 123 0 l 8 0 m 247 318 l 564 318 l 405 734 l 247 318 m 513 945 l 405 945 l 179 1096 l 363 1096 l 513 945 z "},"Ã":{"ha":837,"x_min":8,"x_max":828,"o":"m 8 0 l 351 870 l 485 870 l 828 0 l 686 0 l 604 218 l 207 218 l 123 0 l 8 0 m 247 318 l 564 318 l 405 734 l 247 318 m 191 945 q 321 1096 198 1096 q 411 1072 367 1096 l 451 1049 q 508 1029 488 1029 q 559 1096 555 1029 l 642 1096 q 513 945 634 945 q 422 970 466 945 l 382 992 q 321 1013 345 1013 q 275 945 278 1013 l 191 945 z "},"Õ":{"ha":837,"x_min":42,"x_max":795,"o":"m 42 435 q 144 767 42 644 q 418 891 246 891 q 693 767 591 891 q 795 435 795 644 q 693 103 795 227 q 418 -21 591 -21 q 144 103 246 -21 q 42 435 42 227 m 184 435 q 245 172 184 264 q 418 79 306 79 q 592 172 531 79 q 653 435 653 264 q 592 698 653 606 q 418 791 531 791 q 245 698 306 791 q 184 435 184 606 m 195 945 q 326 1096 203 1096 q 416 1072 372 1096 l 456 1049 q 513 1029 493 1029 q 564 1096 559 1029 l 647 1096 q 517 945 639 945 q 427 970 471 945 l 387 992 q 326 1013 350 1013 q 279 945 283 1013 l 195 945 z "},"Œ":{"ha":837,"x_min":50,"x_max":825,"o":"m 426 870 l 787 870 l 787 770 l 559 770 l 559 513 l 743 513 l 743 412 l 559 412 l 559 100 l 825 100 l 825 0 l 427 0 q 307 -22 347 -22 q 50 435 50 -22 q 315 891 50 891 q 426 870 361 891 m 425 248 l 425 630 q 404 759 425 722 q 330 795 383 795 q 225 710 257 795 q 193 435 193 626 q 225 160 193 244 q 330 75 257 75 q 405 112 385 75 q 425 248 425 149 z "},"œ":{"ha":837,"x_min":33,"x_max":819,"o":"m 427 83 q 270 -17 373 -17 q 98 86 162 -17 q 33 363 33 190 q 98 649 33 545 q 277 753 163 753 q 367 729 332 753 q 435 643 401 705 q 602 753 503 753 q 819 386 819 753 l 819 349 l 501 349 l 500 326 q 657 86 500 86 q 817 139 720 86 l 817 29 q 619 -17 702 -17 q 427 83 496 -17 m 273 84 q 376 351 376 84 q 273 652 376 652 q 167 367 167 652 q 273 84 167 84 m 501 441 l 692 441 l 693 473 q 675 615 693 578 q 606 652 656 652 q 502 478 502 652 l 501 441 z "},"–":{"ha":837,"x_min":92,"x_max":745,"o":"m 92 368 l 92 452 l 745 452 l 745 368 l 92 368 z "},"—":{"ha":837,"x_min":42,"x_max":795,"o":"m 42 368 l 42 452 l 795 452 l 795 368 l 42 368 z "},"“":{"ha":837,"x_min":168,"x_max":669,"o":"m 168 703 l 168 853 q 335 1071 168 1071 l 335 1004 q 264 905 264 1004 l 264 870 l 335 870 l 335 703 l 168 703 m 502 703 l 502 853 q 669 1071 502 1071 l 669 1004 q 598 905 598 1004 l 598 870 l 669 870 l 669 703 l 502 703 z "},"”":{"ha":837,"x_min":168,"x_max":669,"o":"m 335 1071 l 335 920 q 168 703 335 703 l 168 770 q 239 868 239 770 l 239 903 l 168 903 l 168 1071 l 335 1071 m 669 1071 l 669 920 q 502 703 669 703 l 502 770 q 573 868 573 770 l 573 903 l 502 903 l 502 1071 l 669 1071 z "},"‘":{"ha":837,"x_min":318,"x_max":519,"o":"m 519 1071 l 519 1004 q 435 853 444 995 l 519 853 l 519 652 l 318 652 l 318 774 q 519 1071 318 1060 z "},"’":{"ha":837,"x_min":318,"x_max":519,"o":"m 318 652 l 318 720 q 401 870 393 729 l 318 870 l 318 1071 l 519 1071 l 519 949 q 318 652 519 664 z "},"÷":{"ha":837,"x_min":58,"x_max":778,"o":"m 342 0 l 342 151 l 494 151 l 494 0 l 342 0 m 58 309 l 58 410 l 778 410 l 778 309 l 58 309 m 342 569 l 342 720 l 494 720 l 494 569 l 342 569 z "},"◊":{"ha":837,"x_min":17,"x_max":820,"o":"m 418 0 l 17 401 l 418 803 l 820 401 l 418 0 m 418 142 l 678 401 l 418 661 l 159 401 l 418 142 z "},"ÿ":{"ha":837,"x_min":58,"x_max":800,"o":"m 96 -268 l 96 -168 l 151 -168 q 261 -143 227 -168 q 334 -38 296 -119 l 367 33 l 58 736 l 196 736 l 437 185 l 680 736 l 800 736 l 429 -94 q 325 -230 385 -191 q 153 -268 264 -268 l 96 -268 m 249 870 l 249 987 l 366 987 l 366 870 l 249 870 m 517 870 l 517 987 l 634 987 l 634 870 l 517 870 z "},"Ÿ":{"ha":837,"x_min":22,"x_max":832,"o":"m 352 0 l 352 356 l 22 870 l 176 870 l 429 469 l 705 870 l 832 870 l 486 356 l 486 0 l 352 0 m 215 979 l 215 1096 l 332 1096 l 332 979 l 215 979 m 549 979 l 549 1096 l 667 1096 l 667 979 l 549 979 z "},"¤":{"ha":837,"x_min":75,"x_max":762,"o":"m 261 287 l 136 160 l 136 160 l 75 221 l 202 347 q 157 503 157 420 q 202 660 157 586 l 75 786 l 136 846 l 261 720 q 418 772 344 772 q 576 720 494 772 l 702 846 l 762 786 l 635 660 q 680 503 680 586 q 635 347 680 420 l 762 221 l 702 160 l 702 160 l 576 287 q 418 234 494 234 q 261 287 344 234 m 418 334 q 532 384 485 334 q 580 503 580 434 q 532 623 580 573 q 418 672 485 672 q 305 623 353 672 q 258 503 258 573 q 305 384 258 434 q 418 334 353 334 z "},"‹":{"ha":837,"x_min":235,"x_max":601,"o":"m 536 673 l 601 618 l 387 364 l 600 113 l 538 58 l 235 364 l 536 673 z "},"›":{"ha":837,"x_min":235,"x_max":601,"o":"m 300 58 l 235 114 l 449 368 l 237 620 l 298 673 l 601 368 l 300 58 z "},"ﬁ":{"ha":837,"x_min":83,"x_max":711,"o":"m 176 0 l 176 619 l 83 619 l 83 720 l 176 720 l 176 840 q 406 1088 176 1088 q 502 1078 444 1088 l 502 970 q 406 987 441 987 q 309 857 309 987 l 309 720 l 711 720 l 711 0 l 577 0 l 577 619 l 309 619 l 309 0 l 176 0 m 577 870 l 577 1004 l 711 1004 l 711 870 l 577 870 z "},"ﬂ":{"ha":837,"x_min":83,"x_max":711,"o":"m 176 0 l 176 619 l 83 619 l 83 720 l 176 720 l 176 817 q 429 1088 176 1088 q 573 1071 493 1088 l 711 1071 l 711 0 l 577 0 l 577 962 q 420 987 498 987 q 335 955 360 987 q 309 847 309 923 l 309 720 l 460 720 l 460 619 l 309 619 l 309 0 l 176 0 z "},"‡":{"ha":837,"x_min":134,"x_max":703,"o":"m 351 -201 l 368 168 l 134 151 l 134 251 l 368 234 l 368 569 l 134 552 l 134 652 l 368 636 l 351 1004 l 485 1004 l 468 636 l 703 652 l 703 552 l 468 569 l 468 234 l 703 251 l 703 151 l 468 168 l 485 -201 l 351 -201 z "},"∙":{"ha":837,"x_min":218,"x_max":619,"o":"m 418 197 q 276 255 335 197 q 218 397 218 314 q 276 539 218 481 q 418 598 335 598 q 561 539 502 598 q 619 397 619 481 q 561 255 619 314 q 418 197 502 197 z "},"‚":{"ha":837,"x_min":318,"x_max":519,"o":"m 318 -218 l 318 -151 q 401 0 393 -142 l 318 0 l 318 201 l 519 201 l 519 79 q 318 -218 519 -207 z "},"„":{"ha":837,"x_min":168,"x_max":669,"o":"m 335 168 l 335 17 q 168 -201 335 -201 l 168 -134 q 239 -35 239 -134 l 239 0 l 168 0 l 168 168 l 335 168 m 669 168 l 669 17 q 502 -201 669 -201 l 502 -134 q 573 -35 573 -134 l 573 0 l 502 0 l 502 168 l 669 168 z "},"‰":{"ha":837,"x_min":0,"x_max":837,"o":"m 0 -25 l 454 1029 l 545 1029 l 91 -25 l 0 -25 m 140 569 q 11 787 11 569 q 140 1004 11 1004 q 271 787 271 1004 q 140 569 271 569 m 140 636 q 186 787 186 636 q 140 937 186 937 q 95 787 95 937 q 140 636 95 636 m 406 0 q 276 218 276 0 q 406 435 276 435 q 536 218 536 435 q 406 0 536 0 m 406 67 q 452 218 452 67 q 405 368 452 368 q 359 218 359 368 q 406 67 359 67 m 707 0 q 577 218 577 0 q 707 435 577 435 q 837 218 837 435 q 707 0 837 0 m 707 67 q 753 218 753 67 q 707 368 753 368 q 661 218 661 368 q 707 67 661 67 z "},"Â":{"ha":837,"x_min":8,"x_max":828,"o":"m 8 0 l 351 870 l 485 870 l 828 0 l 686 0 l 604 218 l 207 218 l 123 0 l 8 0 m 247 318 l 564 318 l 405 734 l 247 318 m 418 1035 l 284 945 l 176 945 l 326 1096 l 510 1096 l 661 945 l 552 945 l 418 1035 z "},"Ê":{"ha":837,"x_min":146,"x_max":766,"o":"m 146 0 l 146 870 l 734 870 l 734 770 l 280 770 l 280 506 l 665 506 l 665 406 l 280 406 l 280 100 l 766 100 l 766 0 l 146 0 m 458 1035 l 324 945 l 216 945 l 366 1096 l 550 1096 l 701 945 l 592 945 l 458 1035 z "},"Á":{"ha":837,"x_min":8,"x_max":828,"o":"m 8 0 l 351 870 l 485 870 l 828 0 l 686 0 l 604 218 l 207 218 l 123 0 l 8 0 m 247 318 l 564 318 l 405 734 l 247 318 m 296 945 l 447 1096 l 631 1096 l 405 945 l 296 945 z "},"Ë":{"ha":837,"x_min":146,"x_max":766,"o":"m 146 0 l 146 870 l 734 870 l 734 770 l 280 770 l 280 506 l 665 506 l 665 406 l 280 406 l 280 100 l 766 100 l 766 0 l 146 0 m 230 979 l 230 1096 l 347 1096 l 347 979 l 230 979 m 564 979 l 564 1096 l 682 1096 l 682 979 l 564 979 z "},"È":{"ha":837,"x_min":146,"x_max":766,"o":"m 146 0 l 146 870 l 734 870 l 734 770 l 280 770 l 280 506 l 665 506 l 665 406 l 280 406 l 280 100 l 766 100 l 766 0 l 146 0 m 565 945 l 456 945 l 231 1096 l 414 1096 l 565 945 z "},"Í":{"ha":837,"x_min":117,"x_max":720,"o":"m 117 0 l 117 100 l 351 100 l 351 770 l 117 770 l 117 870 l 720 870 l 720 770 l 486 770 l 486 100 l 720 100 l 720 0 l 117 0 m 310 945 l 460 1096 l 644 1096 l 418 945 l 310 945 z "},"Î":{"ha":837,"x_min":117,"x_max":720,"o":"m 117 0 l 117 100 l 351 100 l 351 770 l 117 770 l 117 870 l 720 870 l 720 770 l 486 770 l 486 100 l 720 100 l 720 0 l 117 0 m 418 1035 l 284 945 l 176 945 l 326 1096 l 510 1096 l 661 945 l 552 945 l 418 1035 z "},"Ï":{"ha":837,"x_min":117,"x_max":720,"o":"m 117 0 l 117 100 l 351 100 l 351 770 l 117 770 l 117 870 l 720 870 l 720 770 l 486 770 l 486 100 l 720 100 l 720 0 l 117 0 m 193 979 l 193 1096 l 310 1096 l 310 979 l 193 979 m 527 979 l 527 1096 l 644 1096 l 644 979 l 527 979 z "},"Ì":{"ha":837,"x_min":117,"x_max":720,"o":"m 117 0 l 117 100 l 351 100 l 351 770 l 117 770 l 117 870 l 720 870 l 720 770 l 486 770 l 486 100 l 720 100 l 720 0 l 117 0 m 527 945 l 418 945 l 193 1096 l 376 1096 l 527 945 z "},"Ó":{"ha":837,"x_min":42,"x_max":795,"o":"m 42 435 q 144 767 42 644 q 418 891 246 891 q 693 767 591 891 q 795 435 795 644 q 693 103 795 227 q 418 -21 591 -21 q 144 103 246 -21 q 42 435 42 227 m 184 435 q 245 172 184 264 q 418 79 306 79 q 592 172 531 79 q 653 435 653 264 q 592 698 653 606 q 418 791 531 791 q 245 698 306 791 q 184 435 184 606 m 310 945 l 460 1096 l 644 1096 l 418 945 l 310 945 z "},"Ô":{"ha":837,"x_min":42,"x_max":795,"o":"m 42 435 q 144 767 42 644 q 418 891 246 891 q 693 767 591 891 q 795 435 795 644 q 693 103 795 227 q 418 -21 591 -21 q 144 103 246 -21 q 42 435 42 227 m 184 435 q 245 172 184 264 q 418 79 306 79 q 592 172 531 79 q 653 435 653 264 q 592 698 653 606 q 418 791 531 791 q 245 698 306 791 q 184 435 184 606 m 418 1035 l 284 945 l 176 945 l 326 1096 l 510 1096 l 661 945 l 552 945 l 418 1035 z "},"Ò":{"ha":837,"x_min":42,"x_max":795,"o":"m 42 435 q 144 767 42 644 q 418 891 246 891 q 693 767 591 891 q 795 435 795 644 q 693 103 795 227 q 418 -21 591 -21 q 144 103 246 -21 q 42 435 42 227 m 184 435 q 245 172 184 264 q 418 79 306 79 q 592 172 531 79 q 653 435 653 264 q 592 698 653 606 q 418 791 531 791 q 245 698 306 791 q 184 435 184 606 m 527 945 l 418 945 l 193 1096 l 376 1096 l 527 945 z "},"Ú":{"ha":837,"x_min":104,"x_max":733,"o":"m 104 870 l 237 870 l 237 342 q 281 141 237 203 q 422 79 325 79 q 571 141 526 79 q 616 345 616 203 l 616 870 l 733 870 l 733 365 q 694 130 733 201 q 424 -21 612 -21 q 182 68 260 -21 q 104 344 104 158 l 104 870 m 318 945 l 469 1096 l 652 1096 l 427 945 l 318 945 z "},"Û":{"ha":837,"x_min":104,"x_max":733,"o":"m 104 870 l 237 870 l 237 342 q 281 141 237 203 q 422 79 325 79 q 571 141 526 79 q 616 345 616 203 l 616 870 l 733 870 l 733 365 q 694 130 733 201 q 424 -21 612 -21 q 182 68 260 -21 q 104 344 104 158 l 104 870 m 427 1035 l 293 945 l 184 945 l 335 1096 l 519 1096 l 669 945 l 561 945 l 427 1035 z "},"Ù":{"ha":837,"x_min":104,"x_max":733,"o":"m 104 870 l 237 870 l 237 342 q 281 141 237 203 q 422 79 325 79 q 571 141 526 79 q 616 345 616 203 l 616 870 l 733 870 l 733 365 q 694 130 733 201 q 424 -21 612 -21 q 182 68 260 -21 q 104 344 104 158 l 104 870 m 536 945 l 427 945 l 201 1096 l 385 1096 l 536 945 z "},"ı":{"ha":837,"x_min":117,"x_max":519,"o":"m 385 0 l 385 636 l 117 636 l 117 736 l 519 736 l 519 0 l 385 0 z "},"ˆ":{"ha":837,"x_min":176,"x_max":661,"o":"m 418 1035 l 284 945 l 176 945 l 326 1096 l 510 1096 l 661 945 l 552 945 l 418 1035 z "},"˜":{"ha":837,"x_min":193,"x_max":644,"o":"m 193 945 q 323 1096 200 1096 q 413 1072 369 1096 l 453 1049 q 510 1029 490 1029 q 561 1096 557 1029 l 644 1096 q 515 945 636 945 q 425 970 468 945 l 384 992 q 323 1013 347 1013 q 277 945 280 1013 l 193 945 z "},"ˉ":{"ha":837,"x_min":201,"x_max":636,"o":"m 201 996 l 201 1096 l 636 1096 l 636 996 l 201 996 z "},"˘":{"ha":837,"x_min":193,"x_max":644,"o":"m 193 1096 l 276 1096 q 418 1029 317 1029 q 561 1096 520 1029 l 644 1096 q 418 945 595 945 q 193 1096 242 945 z "},"˙":{"ha":837,"x_min":343,"x_max":494,"o":"m 343 945 l 343 1096 l 494 1096 l 494 945 l 343 945 z "},"˚":{"ha":837,"x_min":296,"x_max":541,"o":"m 418 851 q 331 887 367 851 q 296 974 296 923 q 331 1060 296 1025 q 418 1096 367 1096 q 505 1060 469 1096 q 541 974 541 1025 q 505 887 541 923 q 418 851 469 851 m 418 901 q 469 923 448 901 q 490 974 490 944 q 469 1025 490 1004 q 418 1046 448 1046 q 367 1025 388 1046 q 346 974 346 1004 q 367 923 346 944 q 418 901 388 901 z "},"¸":{"ha":837,"x_min":336,"x_max":571,"o":"m 414 0 l 480 0 l 439 -74 q 531 -106 492 -74 q 571 -181 571 -138 q 531 -260 571 -228 q 435 -293 492 -293 q 336 -279 386 -293 l 336 -224 q 407 -234 367 -234 q 477 -184 477 -234 q 350 -119 477 -119 l 414 0 z "},"˝":{"ha":837,"x_min":217,"x_max":753,"o":"m 217 945 l 368 1096 l 502 1096 l 301 945 l 217 945 m 468 945 l 618 1096 l 753 1096 l 552 945 l 468 945 z "},"˛":{"ha":837,"x_min":286,"x_max":509,"o":"m 509 -252 q 419 -268 463 -268 q 286 -165 286 -268 q 385 0 286 -89 l 472 0 q 382 -141 382 -87 q 458 -202 382 -202 q 509 -193 481 -202 l 509 -252 z "},"ˇ":{"ha":837,"x_min":176,"x_max":661,"o":"m 418 1007 l 552 1096 l 661 1096 l 510 945 l 326 945 l 176 1096 l 284 1096 l 418 1007 z "},"Ł":{"ha":837,"x_min":0,"x_max":753,"o":"m 151 0 l 151 333 l 0 251 l 0 363 l 151 447 l 151 870 l 284 870 l 284 519 l 452 611 l 452 497 l 284 406 l 284 100 l 753 100 l 753 0 l 151 0 z "},"ł":{"ha":837,"x_min":117,"x_max":703,"o":"m 401 0 l 401 458 l 235 368 l 235 481 l 401 573 l 401 970 l 117 970 l 117 1071 l 536 1071 l 536 645 l 703 735 l 703 623 l 536 532 l 536 0 l 401 0 z "},"Š":{"ha":837,"x_min":111,"x_max":758,"o":"m 685 850 l 685 734 q 423 791 538 791 q 242 669 242 791 q 276 589 242 619 q 401 527 310 559 l 487 497 l 568 469 q 758 244 758 403 q 661 51 758 123 q 402 -21 564 -21 q 111 27 290 -21 l 111 159 q 406 79 289 79 q 564 118 505 79 q 623 223 623 157 q 588 302 623 273 q 444 372 553 332 l 355 404 q 169 506 221 454 q 117 645 117 558 q 197 827 117 762 q 421 891 277 891 q 685 850 538 891 m 425 1007 l 558 1096 l 667 1096 l 516 945 l 332 945 l 182 1096 l 290 1096 l 425 1007 z "},"š":{"ha":837,"x_min":127,"x_max":715,"o":"m 127 30 l 127 151 q 395 83 282 83 q 530 116 477 83 q 583 199 583 149 q 456 304 583 264 l 313 351 q 146 543 146 406 q 221 698 146 643 q 435 753 297 753 q 676 721 539 753 l 676 612 q 435 652 544 652 q 318 626 361 652 q 274 555 274 600 q 374 465 274 500 l 543 406 q 675 329 635 374 q 715 212 715 283 q 629 45 715 107 q 398 -17 543 -17 q 127 30 271 -17 m 675 1088 l 511 870 l 363 870 l 200 1088 l 300 1088 l 437 951 l 438 951 l 574 1088 l 675 1088 z "},"Ž":{"ha":837,"x_min":67,"x_max":770,"o":"m 67 0 l 67 100 l 613 770 l 100 770 l 100 870 l 764 870 l 764 770 l 219 100 l 770 100 l 770 0 l 67 0 m 418 1007 l 552 1096 l 661 1096 l 510 945 l 326 945 l 176 1096 l 284 1096 l 418 1007 z "},"ž":{"ha":837,"x_min":92,"x_max":745,"o":"m 92 0 l 92 100 l 574 636 l 109 636 l 109 736 l 732 736 l 732 636 l 250 100 l 745 100 l 745 0 l 92 0 m 680 1088 l 517 870 l 369 870 l 205 1088 l 306 1088 l 442 951 l 444 951 l 580 1088 l 680 1088 z "},"¦":{"ha":837,"x_min":368,"x_max":469,"o":"m 368 -201 l 368 301 l 469 301 l 469 -201 l 368 -201 m 368 569 l 368 1071 l 469 1071 l 469 569 l 368 569 z "},"Ð":{"ha":837,"x_min":4,"x_max":784,"o":"m 87 870 l 350 870 q 784 452 784 870 q 690 140 784 259 q 544 32 631 64 q 314 0 458 0 l 87 0 l 87 406 l 4 406 l 4 506 l 87 506 l 87 870 m 221 100 l 288 100 q 561 176 479 100 q 642 431 642 252 q 568 691 642 613 q 324 770 495 770 l 221 770 l 221 506 l 389 506 l 389 406 l 221 406 l 221 100 z "},"ð":{"ha":837,"x_min":76,"x_max":763,"o":"m 505 724 q 366 873 467 791 l 205 766 l 159 836 l 286 924 q 77 970 197 964 l 77 1071 l 92 1071 q 393 995 262 1071 l 508 1071 l 556 1002 l 468 942 q 685 698 608 844 q 763 391 763 553 q 669 95 763 207 q 419 -17 574 -17 q 171 88 265 -17 q 76 365 76 193 q 170 634 76 530 q 413 738 263 738 q 505 724 455 738 m 422 83 q 573 160 517 83 q 628 370 628 237 q 425 640 628 640 q 273 566 328 640 q 218 364 218 493 q 273 159 218 235 q 422 83 328 83 z "},"Ý":{"ha":837,"x_min":22,"x_max":832,"o":"m 352 0 l 352 356 l 22 870 l 176 870 l 429 469 l 705 870 l 832 870 l 486 356 l 486 0 l 352 0 m 320 945 l 471 1096 l 654 1096 l 429 945 l 320 945 z "},"ý":{"ha":837,"x_min":58,"x_max":800,"o":"m 96 -268 l 96 -168 l 151 -168 q 261 -143 227 -168 q 334 -38 296 -119 l 367 33 l 58 736 l 196 736 l 437 185 l 680 736 l 800 736 l 429 -94 q 325 -230 385 -191 q 153 -268 264 -268 l 96 -268 m 336 870 l 500 1088 l 654 1088 l 437 870 l 336 870 z "},"Þ":{"ha":837,"x_min":155,"x_max":785,"o":"m 155 0 l 155 870 l 288 870 l 288 711 l 437 711 q 653 684 589 711 q 785 464 785 627 q 679 250 785 328 q 386 172 572 172 l 288 172 l 288 0 l 155 0 m 288 272 l 372 272 q 643 461 643 272 q 592 576 643 542 q 421 611 541 611 l 288 611 l 288 272 z "},"þ":{"ha":837,"x_min":121,"x_max":766,"o":"m 121 -268 l 121 1071 l 255 1071 l 255 598 q 496 753 352 753 q 693 656 621 753 q 766 393 766 559 q 680 96 766 210 q 456 -17 595 -17 q 255 83 338 -17 l 255 -268 l 121 -268 m 255 184 q 438 83 348 83 q 575 161 526 83 q 623 378 623 239 q 468 639 623 639 q 255 498 355 639 l 255 184 z "},"−":{"ha":837,"x_min":58,"x_max":778,"o":"m 778 309 l 58 309 l 58 410 l 778 410 l 778 309 z "},"×":{"ha":837,"x_min":52,"x_max":785,"o":"m 52 71 l 347 367 l 52 663 l 122 734 l 418 438 l 714 734 l 785 663 l 489 367 l 785 71 l 714 0 l 418 296 l 122 0 l 52 71 z "},"¹":{"ha":837,"x_min":233,"x_max":475,"o":"m 358 502 l 358 920 l 233 920 l 233 1004 l 475 1029 l 475 502 l 358 502 z "},"²":{"ha":837,"x_min":205,"x_max":656,"o":"m 205 502 l 205 597 q 354 726 250 663 l 404 756 q 501 823 481 803 q 521 873 521 842 q 398 945 521 945 q 205 897 304 945 l 205 990 q 420 1029 310 1029 q 587 990 529 1029 q 645 878 645 951 q 612 788 645 823 q 479 700 580 753 l 427 672 q 328 594 355 634 l 656 594 l 656 502 l 205 502 z "},"³":{"ha":837,"x_min":212,"x_max":646,"o":"m 212 514 l 212 608 q 404 569 342 569 q 488 589 456 569 q 520 641 520 608 q 328 725 520 725 l 288 725 l 288 808 l 329 808 q 520 888 520 808 q 425 945 520 945 q 212 897 340 945 l 212 989 q 440 1029 322 1029 q 642 904 642 1029 q 509 770 642 817 q 646 637 646 732 q 585 526 646 566 q 416 486 524 486 q 212 514 332 486 z "},"½":{"ha":837,"x_min":0,"x_max":820,"o":"m 92 502 l 92 920 l 0 920 l 0 1004 l 209 1029 l 209 502 l 92 502 m 5 -25 l 555 1029 l 669 1029 l 118 -25 l 5 -25 m 450 0 l 450 94 q 604 267 502 187 l 633 290 q 685 373 685 331 q 595 444 685 444 q 450 406 528 444 l 450 497 q 608 528 538 528 q 752 487 697 528 q 808 380 808 446 q 697 222 808 295 l 660 197 l 633 179 q 562 92 583 144 l 820 92 l 820 0 l 450 0 z "},"¼":{"ha":837,"x_min":0,"x_max":828,"o":"m 92 502 l 92 920 l 0 920 l 0 1004 l 209 1029 l 209 502 l 92 502 m 27 -25 l 578 1029 l 691 1029 l 140 -25 l 27 -25 m 627 0 l 627 134 l 372 134 l 372 229 l 615 519 l 745 519 l 745 209 l 828 209 l 828 134 l 745 134 l 745 0 l 627 0 m 440 209 l 627 209 l 627 433 l 440 209 z "},"¾":{"ha":837,"x_min":28,"x_max":837,"o":"m 28 597 q 165 571 111 571 q 238 590 210 571 q 265 639 265 608 q 83 728 265 728 l 83 810 l 103 810 q 267 891 267 810 q 176 950 267 950 q 28 922 113 950 l 28 1008 q 190 1029 111 1029 q 335 996 282 1029 q 388 904 388 962 q 231 768 388 808 q 390 636 390 741 q 330 527 390 565 q 158 488 270 488 q 28 508 94 488 l 28 597 m 28 -25 l 718 1029 l 837 1029 l 147 -25 l 28 -25 m 636 0 l 636 134 l 380 134 l 380 229 l 623 519 l 753 519 l 753 209 l 837 209 l 837 134 l 753 134 l 753 0 l 636 0 m 449 209 l 636 209 l 636 433 l 449 209 z "},"₣":{"ha":837,"x_min":17,"x_max":787,"o":"m 168 0 l 168 168 l 17 168 l 17 268 l 168 268 l 168 1004 l 787 1004 l 787 903 l 301 903 l 301 541 l 715 541 l 715 441 l 301 441 l 301 268 l 469 268 l 469 168 l 301 168 l 301 0 l 168 0 z "},"Ğ":{"ha":837,"x_min":52,"x_max":766,"o":"m 755 852 l 755 729 q 504 791 621 791 q 282 692 369 791 q 195 439 195 593 q 293 187 195 286 q 544 88 391 88 q 632 96 578 88 l 632 326 l 469 326 l 469 427 l 766 427 l 766 22 q 507 -21 629 -21 q 179 104 305 -21 q 52 431 52 230 q 178 764 52 636 q 508 891 304 891 q 755 852 623 891 m 290 1096 l 373 1096 q 515 1029 414 1029 q 658 1096 617 1029 l 741 1096 q 515 945 692 945 q 290 1096 339 945 z "},"ğ":{"ha":837,"x_min":83,"x_max":731,"o":"m 144 -246 l 158 -134 q 381 -184 278 -184 q 595 20 595 -184 l 602 153 q 358 0 517 0 q 158 96 232 0 q 83 355 83 192 q 170 643 83 532 q 393 753 256 753 q 606 652 501 753 l 606 736 l 731 736 l 731 147 q 712 -68 731 4 q 641 -196 693 -140 q 380 -285 557 -285 q 144 -246 275 -285 m 597 261 l 597 551 q 411 652 507 652 q 275 576 323 652 q 226 363 226 500 q 269 182 226 248 q 388 117 311 117 q 597 261 507 117 m 198 1071 l 281 1071 q 424 970 303 970 q 566 1071 545 970 l 650 1071 q 578 925 640 979 q 424 870 516 870 q 270 925 332 870 q 198 1071 209 979 z "},"İ":{"ha":837,"x_min":117,"x_max":720,"o":"m 117 0 l 117 100 l 351 100 l 351 770 l 117 770 l 117 870 l 720 870 l 720 770 l 486 770 l 486 100 l 720 100 l 720 0 l 117 0 m 343 945 l 343 1096 l 494 1096 l 494 945 l 343 945 z "},"Ş":{"ha":837,"x_min":111,"x_max":758,"o":"m 685 850 l 685 734 q 423 791 538 791 q 242 669 242 791 q 276 589 242 619 q 401 527 310 559 l 487 497 l 568 469 q 758 244 758 403 q 661 51 758 123 q 402 -21 564 -21 q 111 27 290 -21 l 111 159 q 406 79 289 79 q 564 118 505 79 q 623 223 623 157 q 588 302 623 273 q 444 372 553 332 l 355 404 q 169 506 221 454 q 117 645 117 558 q 197 827 117 762 q 421 891 277 891 q 685 850 538 891 m 401 0 l 467 0 l 427 -74 q 518 -106 479 -74 q 558 -181 558 -138 q 518 -260 558 -228 q 422 -293 479 -293 q 323 -279 373 -293 l 323 -224 q 394 -234 354 -234 q 464 -184 464 -234 q 337 -119 464 -119 l 401 0 z "},"ş":{"ha":837,"x_min":127,"x_max":715,"o":"m 127 30 l 127 151 q 395 83 282 83 q 530 116 477 83 q 583 199 583 149 q 456 304 583 264 l 313 351 q 146 543 146 406 q 221 698 146 643 q 435 753 297 753 q 676 721 539 753 l 676 612 q 435 652 544 652 q 318 626 361 652 q 274 555 274 600 q 374 465 274 500 l 543 406 q 675 329 635 374 q 715 212 715 283 q 629 45 715 107 q 398 -17 543 -17 q 127 30 271 -17 m 395 0 l 460 0 l 420 -74 q 512 -106 472 -74 q 551 -181 551 -138 q 512 -260 551 -228 q 415 -293 472 -293 q 316 -279 366 -293 l 316 -224 q 387 -234 347 -234 q 457 -184 457 -234 q 330 -119 457 -119 l 395 0 z "},"Ć":{"ha":837,"x_min":69,"x_max":783,"o":"m 783 27 q 530 -21 649 -21 q 196 103 323 -21 q 69 431 69 228 q 195 764 69 636 q 525 891 321 891 q 772 852 640 891 l 772 729 q 521 791 637 791 q 299 692 386 791 q 212 439 212 593 q 310 186 212 285 q 563 88 408 88 q 783 137 656 88 l 783 27 m 424 945 l 574 1096 l 758 1096 l 532 945 l 424 945 z "},"ć":{"ha":837,"x_min":111,"x_max":748,"o":"m 748 24 q 511 -17 629 -17 q 215 83 319 -17 q 111 368 111 184 q 213 651 111 549 q 499 753 316 753 q 734 718 616 753 l 734 606 q 511 652 604 652 q 322 576 391 652 q 253 368 253 500 q 327 159 253 235 q 530 83 400 83 q 748 129 627 83 l 748 24 m 404 870 l 567 1088 l 722 1088 l 504 870 l 404 870 z "},"Č":{"ha":837,"x_min":69,"x_max":783,"o":"m 783 27 q 530 -21 649 -21 q 196 103 323 -21 q 69 431 69 228 q 195 764 69 636 q 525 891 321 891 q 772 852 640 891 l 772 729 q 521 791 637 791 q 299 692 386 791 q 212 439 212 593 q 310 186 212 285 q 563 88 408 88 q 783 137 656 88 l 783 27 m 532 1007 l 666 1096 l 774 1096 l 624 945 l 440 945 l 290 1096 l 398 1096 l 532 1007 z "},"č":{"ha":837,"x_min":111,"x_max":748,"o":"m 748 24 q 511 -17 629 -17 q 215 83 319 -17 q 111 368 111 184 q 213 651 111 549 q 499 753 316 753 q 734 718 616 753 l 734 606 q 511 652 604 652 q 322 576 391 652 q 253 368 253 500 q 327 159 253 235 q 530 83 400 83 q 748 129 627 83 l 748 24 m 741 1088 l 578 870 l 430 870 l 267 1088 l 367 1088 l 503 951 l 505 951 l 641 1088 l 741 1088 z "},"đ":{"ha":837,"x_min":86,"x_max":832,"o":"m 597 0 l 597 138 q 355 -17 499 -17 q 158 80 231 -17 q 86 344 86 177 q 172 640 86 527 q 395 753 257 753 q 597 652 514 753 l 597 853 l 379 853 l 379 937 l 597 937 l 597 1071 l 730 1071 l 730 937 l 832 937 l 832 853 l 730 853 l 730 0 l 597 0 m 597 552 q 414 652 503 652 q 277 575 326 652 q 229 357 229 498 q 384 98 229 98 q 597 239 497 98 l 597 552 z "},"­":{"ha":837,"x_min":142,"x_max":694,"o":"m 142 368 l 142 469 l 694 469 l 694 368 l 142 368 z "},"¯":{"ha":837,"x_min":0,"x_max":837,"o":"m 0 996 l 0 1096 l 837 1096 l 837 996 l 0 996 z "},"·":{"ha":837,"x_min":334,"x_max":502,"o":"m 334 284 l 334 452 l 502 452 l 502 284 l 334 284 z "},"Ā":{"ha":837,"x_min":8,"x_max":828,"o":"m 8 0 l 351 870 l 485 870 l 828 0 l 686 0 l 604 218 l 207 218 l 123 0 l 8 0 m 247 318 l 564 318 l 405 734 l 247 318 m 201 996 l 201 1096 l 636 1096 l 636 996 l 201 996 z "},"ā":{"ha":837,"x_min":92,"x_max":802,"o":"m 566 89 q 324 -13 445 -13 q 158 45 223 -13 q 92 191 92 102 q 194 375 92 305 q 463 445 296 445 l 545 445 l 545 508 q 511 619 545 586 q 396 652 476 652 q 156 587 280 652 l 156 702 q 423 753 298 753 q 622 697 564 753 q 680 505 680 642 l 680 197 q 694 106 680 130 q 747 82 708 82 q 789 89 760 82 l 802 9 q 700 -13 734 -13 q 566 89 601 -13 m 545 176 l 545 361 l 505 361 q 231 213 231 361 q 266 127 231 159 q 359 94 301 94 q 545 176 447 94 m 194 870 l 194 970 l 629 970 l 629 870 l 194 870 z "},"Ă":{"ha":837,"x_min":8,"x_max":828,"o":"m 8 0 l 351 870 l 485 870 l 828 0 l 686 0 l 604 218 l 207 218 l 123 0 l 8 0 m 247 318 l 564 318 l 405 734 l 247 318 m 192 1096 l 275 1096 q 418 1029 316 1029 q 560 1096 519 1029 l 644 1096 q 418 945 594 945 q 192 1096 241 945 z "},"ă":{"ha":837,"x_min":92,"x_max":802,"o":"m 566 89 q 324 -13 445 -13 q 158 45 223 -13 q 92 191 92 102 q 194 375 92 305 q 463 445 296 445 l 545 445 l 545 508 q 511 619 545 586 q 396 652 476 652 q 156 587 280 652 l 156 702 q 423 753 298 753 q 622 697 564 753 q 680 505 680 642 l 680 197 q 694 106 680 130 q 747 82 708 82 q 789 89 760 82 l 802 9 q 700 -13 734 -13 q 566 89 601 -13 m 545 176 l 545 361 l 505 361 q 231 213 231 361 q 266 127 231 159 q 359 94 301 94 q 545 176 447 94 m 203 1071 l 286 1071 q 429 970 308 970 q 571 1071 549 970 l 654 1071 q 583 925 644 979 q 429 870 521 870 q 275 925 336 870 q 203 1071 214 979 z "},"Ą":{"ha":837,"x_min":8,"x_max":828,"o":"m 8 0 l 351 870 l 485 870 l 828 0 l 686 0 l 604 218 l 207 218 l 123 0 l 8 0 m 247 318 l 564 318 l 405 734 l 247 318 m 811 -252 q 721 -268 764 -268 q 588 -165 588 -268 q 687 0 588 -89 l 774 0 q 684 -141 684 -87 q 760 -202 684 -202 q 811 -193 783 -202 l 811 -252 z "},"ą":{"ha":837,"x_min":92,"x_max":802,"o":"m 566 89 q 324 -13 445 -13 q 158 45 223 -13 q 92 191 92 102 q 194 375 92 305 q 463 445 296 445 l 545 445 l 545 508 q 511 619 545 586 q 396 652 476 652 q 156 587 280 652 l 156 702 q 423 753 298 753 q 622 697 564 753 q 680 505 680 642 l 680 197 q 694 106 680 130 q 747 82 708 82 q 789 89 760 82 l 802 9 q 700 -13 734 -13 q 566 89 601 -13 m 545 176 l 545 361 l 505 361 q 231 213 231 361 q 266 127 231 159 q 359 94 301 94 q 545 176 447 94 m 789 -252 q 699 -268 743 -268 q 566 -165 566 -268 q 665 0 566 -89 l 752 0 q 663 -141 663 -87 q 738 -202 663 -202 q 789 -193 761 -202 l 789 -252 z "},"Ĉ":{"ha":837,"x_min":69,"x_max":783,"o":"m 783 27 q 530 -21 649 -21 q 196 103 323 -21 q 69 431 69 228 q 195 764 69 636 q 525 891 321 891 q 772 852 640 891 l 772 729 q 521 791 637 791 q 299 692 386 791 q 212 439 212 593 q 310 186 212 285 q 563 88 408 88 q 783 137 656 88 l 783 27 m 529 1035 l 395 945 l 287 945 l 437 1096 l 621 1096 l 772 945 l 663 945 l 529 1035 z "},"ĉ":{"ha":837,"x_min":111,"x_max":748,"o":"m 748 24 q 511 -17 629 -17 q 215 83 319 -17 q 111 368 111 184 q 213 651 111 549 q 499 753 316 753 q 734 718 616 753 l 734 606 q 511 652 604 652 q 322 576 391 652 q 253 368 253 500 q 327 159 253 235 q 530 83 400 83 q 748 129 627 83 l 748 24 m 267 870 l 430 1088 l 578 1088 l 741 870 l 641 870 l 505 1007 l 503 1007 l 367 870 l 267 870 z "},"Ċ":{"ha":837,"x_min":69,"x_max":783,"o":"m 783 27 q 530 -21 649 -21 q 196 103 323 -21 q 69 431 69 228 q 195 764 69 636 q 525 891 321 891 q 772 852 640 891 l 772 729 q 521 791 637 791 q 299 692 386 791 q 212 439 212 593 q 310 186 212 285 q 563 88 408 88 q 783 137 656 88 l 783 27 m 457 945 l 457 1096 l 608 1096 l 608 945 l 457 945 z "},"ċ":{"ha":837,"x_min":111,"x_max":748,"o":"m 748 24 q 511 -17 629 -17 q 215 83 319 -17 q 111 368 111 184 q 213 651 111 549 q 499 753 316 753 q 734 718 616 753 l 734 606 q 511 652 604 652 q 322 576 391 652 q 253 368 253 500 q 327 159 253 235 q 530 83 400 83 q 748 129 627 83 l 748 24 m 429 870 l 429 1021 l 579 1021 l 579 870 l 429 870 z "},"Ď":{"ha":837,"x_min":88,"x_max":785,"o":"m 88 0 l 88 870 l 351 870 q 785 452 785 870 q 690 140 785 259 q 545 32 631 64 q 315 0 458 0 l 88 0 m 222 100 l 289 100 q 561 176 480 100 q 642 431 642 252 q 569 691 642 613 q 325 770 496 770 l 222 770 l 222 100 m 351 1007 l 484 1096 l 593 1096 l 442 945 l 258 945 l 108 1096 l 216 1096 l 351 1007 z "},"ď":{"ha":837,"x_min":55,"x_max":730,"o":"m 597 0 l 597 138 q 355 -17 499 -17 q 158 80 231 -17 q 86 344 86 177 q 172 640 86 527 q 395 753 257 753 q 597 652 514 753 l 597 1071 l 730 1071 l 730 0 l 597 0 m 597 552 q 414 652 503 652 q 277 575 326 652 q 229 357 229 498 q 384 98 229 98 q 597 239 497 98 l 597 552 m 530 1088 l 366 870 l 218 870 l 55 1088 l 155 1088 l 292 951 l 293 951 l 429 1088 l 530 1088 z "},"Đ":{"ha":837,"x_min":4,"x_max":784,"o":"m 87 870 l 350 870 q 784 452 784 870 q 690 140 784 259 q 544 32 631 64 q 314 0 458 0 l 87 0 l 87 406 l 4 406 l 4 506 l 87 506 l 87 870 m 221 100 l 288 100 q 561 176 479 100 q 642 431 642 252 q 568 691 642 613 q 324 770 495 770 l 221 770 l 221 506 l 389 506 l 389 406 l 221 406 l 221 100 z "},"Ē":{"ha":837,"x_min":146,"x_max":766,"o":"m 146 0 l 146 870 l 734 870 l 734 770 l 280 770 l 280 506 l 665 506 l 665 406 l 280 406 l 280 100 l 766 100 l 766 0 l 146 0 m 214 996 l 214 1096 l 649 1096 l 649 996 l 214 996 z "},"ē":{"ha":837,"x_min":96,"x_max":745,"o":"m 745 29 q 490 -17 606 -17 q 198 81 300 -17 q 96 360 96 178 q 194 642 96 532 q 443 753 292 753 q 668 661 595 753 q 740 376 740 570 l 740 334 l 238 334 q 508 83 253 83 q 745 135 616 83 l 745 29 m 242 434 l 597 434 l 597 453 q 431 652 597 652 q 301 595 351 652 q 242 434 252 537 m 229 870 l 229 970 l 665 970 l 665 870 l 229 870 z "},"Ĕ":{"ha":837,"x_min":146,"x_max":766,"o":"m 146 0 l 146 870 l 734 870 l 734 770 l 280 770 l 280 506 l 665 506 l 665 406 l 280 406 l 280 100 l 766 100 l 766 0 l 146 0 m 214 1096 l 297 1096 q 439 1029 338 1029 q 582 1096 541 1029 l 665 1096 q 439 945 616 945 q 214 1096 263 945 z "},"ĕ":{"ha":837,"x_min":96,"x_max":745,"o":"m 745 29 q 490 -17 606 -17 q 198 81 300 -17 q 96 360 96 178 q 194 642 96 532 q 443 753 292 753 q 668 661 595 753 q 740 376 740 570 l 740 334 l 238 334 q 508 83 253 83 q 745 135 616 83 l 745 29 m 242 434 l 597 434 l 597 453 q 431 652 597 652 q 301 595 351 652 q 242 434 252 537 m 218 1071 l 301 1071 q 444 970 323 970 q 586 1071 564 970 l 669 1071 q 597 925 659 979 q 444 870 536 870 q 290 925 351 870 q 218 1071 229 979 z "},"Ė":{"ha":837,"x_min":146,"x_max":766,"o":"m 146 0 l 146 870 l 734 870 l 734 770 l 280 770 l 280 506 l 665 506 l 665 406 l 280 406 l 280 100 l 766 100 l 766 0 l 146 0 m 365 945 l 365 1096 l 515 1096 l 515 945 l 365 945 z "},"ė":{"ha":837,"x_min":96,"x_max":745,"o":"m 745 29 q 490 -17 606 -17 q 198 81 300 -17 q 96 360 96 178 q 194 642 96 532 q 443 753 292 753 q 668 661 595 753 q 740 376 740 570 l 740 334 l 238 334 q 508 83 253 83 q 745 135 616 83 l 745 29 m 242 434 l 597 434 l 597 453 q 431 652 597 652 q 301 595 351 652 q 242 434 252 537 m 368 870 l 368 1021 l 519 1021 l 519 870 l 368 870 z "},"Ę":{"ha":837,"x_min":146,"x_max":766,"o":"m 146 0 l 146 870 l 734 870 l 734 770 l 280 770 l 280 506 l 665 506 l 665 406 l 280 406 l 280 100 l 766 100 l 766 0 l 146 0 m 741 -252 q 650 -268 694 -268 q 517 -165 517 -268 q 616 0 517 -89 l 703 0 q 614 -141 614 -87 q 689 -202 614 -202 q 741 -193 712 -202 l 741 -252 z "},"ę":{"ha":837,"x_min":96,"x_max":745,"o":"m 745 29 q 490 -17 606 -17 q 198 81 300 -17 q 96 360 96 178 q 194 642 96 532 q 443 753 292 753 q 668 661 595 753 q 740 376 740 570 l 740 334 l 238 334 q 508 83 253 83 q 745 135 616 83 l 745 29 m 242 434 l 597 434 l 597 453 q 431 652 597 652 q 301 595 351 652 q 242 434 252 537 m 645 -252 q 555 -268 598 -268 q 422 -165 422 -268 q 521 0 422 -89 l 608 0 q 518 -141 518 -87 q 593 -202 518 -202 q 645 -193 616 -202 l 645 -252 z "},"Ě":{"ha":837,"x_min":146,"x_max":766,"o":"m 146 0 l 146 870 l 734 870 l 734 770 l 280 770 l 280 506 l 665 506 l 665 406 l 280 406 l 280 100 l 766 100 l 766 0 l 146 0 m 456 1007 l 590 1096 l 699 1096 l 548 945 l 364 945 l 214 1096 l 322 1096 l 456 1007 z "},"ě":{"ha":837,"x_min":96,"x_max":745,"o":"m 745 29 q 490 -17 606 -17 q 198 81 300 -17 q 96 360 96 178 q 194 642 96 532 q 443 753 292 753 q 668 661 595 753 q 740 376 740 570 l 740 334 l 238 334 q 508 83 253 83 q 745 135 616 83 l 745 29 m 242 434 l 597 434 l 597 453 q 431 652 597 652 q 301 595 351 652 q 242 434 252 537 m 682 1088 l 518 870 l 370 870 l 207 1088 l 307 1088 l 444 951 l 445 951 l 581 1088 l 682 1088 z "},"Ĝ":{"ha":837,"x_min":52,"x_max":766,"o":"m 755 852 l 755 729 q 504 791 621 791 q 282 692 369 791 q 195 439 195 593 q 293 187 195 286 q 544 88 391 88 q 632 96 578 88 l 632 326 l 469 326 l 469 427 l 766 427 l 766 22 q 507 -21 629 -21 q 179 104 305 -21 q 52 431 52 230 q 178 764 52 636 q 508 891 304 891 q 755 852 623 891 m 512 1035 l 378 945 l 270 945 l 420 1096 l 604 1096 l 755 945 l 646 945 l 512 1035 z "},"ĝ":{"ha":837,"x_min":83,"x_max":731,"o":"m 144 -246 l 158 -134 q 381 -184 278 -184 q 595 20 595 -184 l 602 153 q 358 0 517 0 q 158 96 232 0 q 83 355 83 192 q 170 643 83 532 q 393 753 256 753 q 606 652 501 753 l 606 736 l 731 736 l 731 147 q 712 -68 731 4 q 641 -196 693 -140 q 380 -285 557 -285 q 144 -246 275 -285 m 597 261 l 597 551 q 411 652 507 652 q 275 576 323 652 q 226 363 226 500 q 269 182 226 248 q 388 117 311 117 q 597 261 507 117 m 190 870 l 353 1088 l 501 1088 l 665 870 l 564 870 l 428 1007 l 427 1007 l 290 870 l 190 870 z "},"Ġ":{"ha":837,"x_min":52,"x_max":766,"o":"m 755 852 l 755 729 q 504 791 621 791 q 282 692 369 791 q 195 439 195 593 q 293 187 195 286 q 544 88 391 88 q 632 96 578 88 l 632 326 l 469 326 l 469 427 l 766 427 l 766 22 q 507 -21 629 -21 q 179 104 305 -21 q 52 431 52 230 q 178 764 52 636 q 508 891 304 891 q 755 852 623 891 m 440 945 l 440 1096 l 591 1096 l 591 945 l 440 945 z "},"ġ":{"ha":837,"x_min":83,"x_max":731,"o":"m 144 -246 l 158 -134 q 381 -184 278 -184 q 595 20 595 -184 l 602 153 q 358 0 517 0 q 158 96 232 0 q 83 355 83 192 q 170 643 83 532 q 393 753 256 753 q 606 652 501 753 l 606 736 l 731 736 l 731 147 q 712 -68 731 4 q 641 -196 693 -140 q 380 -285 557 -285 q 144 -246 275 -285 m 597 261 l 597 551 q 411 652 507 652 q 275 576 323 652 q 226 363 226 500 q 269 182 226 248 q 388 117 311 117 q 597 261 507 117 m 339 870 l 339 1021 l 490 1021 l 490 870 l 339 870 z "},"Ģ":{"ha":837,"x_min":52,"x_max":766,"o":"m 755 852 l 755 729 q 504 791 621 791 q 282 692 369 791 q 195 439 195 593 q 293 187 195 286 q 544 88 391 88 q 632 96 578 88 l 632 326 l 469 326 l 469 427 l 766 427 l 766 22 q 507 -21 629 -21 q 179 104 305 -21 q 52 431 52 230 q 178 764 52 636 q 508 891 304 891 q 755 852 623 891 m 475 0 l 541 0 l 500 -74 q 592 -106 552 -74 q 631 -181 631 -138 q 592 -260 631 -228 q 495 -293 552 -293 q 396 -279 446 -293 l 396 -224 q 467 -234 427 -234 q 537 -184 537 -234 q 410 -119 537 -119 l 475 0 z "},"ģ":{"ha":837,"x_min":83,"x_max":731,"o":"m 144 -246 l 158 -134 q 381 -184 278 -184 q 536 -140 490 -184 q 595 20 583 -95 l 610 153 l 602 153 q 358 0 517 0 q 158 96 232 0 q 83 355 83 192 q 170 643 83 532 q 393 753 256 753 q 606 652 501 753 l 614 652 l 614 736 l 731 736 l 731 147 q 712 -68 731 4 q 641 -196 693 -140 q 380 -285 557 -285 q 144 -246 275 -285 m 597 261 l 597 551 q 411 652 507 652 q 275 576 323 652 q 226 363 226 500 q 269 182 226 248 q 388 117 311 117 q 597 261 507 117 m 481 1096 l 481 1056 q 431 973 431 1040 l 431 962 l 481 962 l 481 828 l 347 828 l 347 945 q 481 1096 347 1082 z "},"Ĥ":{"ha":837,"x_min":100,"x_max":736,"o":"m 100 0 l 100 870 l 234 870 l 234 490 l 602 490 l 602 870 l 736 870 l 736 0 l 602 0 l 602 389 l 234 389 l 234 0 l 100 0 m 418 1035 l 284 945 l 176 945 l 326 1096 l 510 1096 l 661 945 l 552 945 l 418 1035 z "},"ĥ":{"ha":837,"x_min":123,"x_max":799,"o":"m 123 0 l 123 1071 l 257 1071 l 257 736 l 257 598 q 508 753 349 753 q 718 504 718 753 l 718 0 l 584 0 l 584 467 q 557 590 584 553 q 467 626 530 626 q 257 481 367 626 l 257 0 l 123 0 m 324 870 l 488 1088 l 635 1088 l 799 870 l 699 870 l 562 1007 l 561 1007 l 425 870 l 324 870 z "},"Ħ":{"ha":837,"x_min":17,"x_max":820,"o":"m 234 490 l 602 490 l 602 636 l 235 636 l 234 490 m 100 0 l 100 636 l 17 636 l 17 736 l 100 736 l 100 870 l 234 870 l 234 736 l 602 736 l 602 870 l 736 870 l 736 736 l 820 736 l 820 636 l 736 636 l 736 0 l 602 0 l 602 389 l 234 389 l 234 0 l 100 0 z "},"ħ":{"ha":837,"x_min":23,"x_max":718,"o":"m 123 853 l 23 853 l 23 937 l 123 937 l 123 1071 l 257 1071 l 257 937 l 458 937 l 458 853 l 257 853 l 257 736 l 257 598 q 508 753 349 753 q 718 504 718 753 l 718 0 l 584 0 l 584 467 q 557 590 584 553 q 467 626 530 626 q 257 481 367 626 l 257 0 l 123 0 l 123 853 z "},"Ĩ":{"ha":837,"x_min":117,"x_max":720,"o":"m 117 0 l 117 100 l 351 100 l 351 770 l 117 770 l 117 870 l 720 870 l 720 770 l 486 770 l 486 100 l 720 100 l 720 0 l 117 0 m 193 945 q 323 1096 200 1096 q 413 1072 369 1096 l 453 1049 q 510 1029 490 1029 q 561 1096 557 1029 l 644 1096 q 515 945 636 945 q 425 970 468 945 l 384 992 q 323 1013 347 1013 q 277 945 280 1013 l 193 945 z "},"ĩ":{"ha":837,"x_min":117,"x_max":569,"o":"m 385 0 l 385 636 l 117 636 l 117 736 l 519 736 l 519 0 l 385 0 m 117 870 q 243 1029 125 1029 q 334 1003 292 1029 l 375 978 q 433 954 413 954 q 486 1029 479 954 l 569 1029 q 444 870 562 870 q 352 897 394 870 l 311 922 q 254 945 273 945 q 201 870 207 945 l 117 870 z "},"Ī":{"ha":837,"x_min":117,"x_max":720,"o":"m 117 0 l 117 100 l 351 100 l 351 770 l 117 770 l 117 870 l 720 870 l 720 770 l 486 770 l 486 100 l 720 100 l 720 0 l 117 0 m 201 996 l 201 1096 l 636 1096 l 636 996 l 201 996 z "},"ī":{"ha":837,"x_min":117,"x_max":654,"o":"m 385 0 l 385 636 l 117 636 l 117 736 l 519 736 l 519 0 l 385 0 m 219 870 l 219 970 l 654 970 l 654 870 l 219 870 z "},"Ĭ":{"ha":837,"x_min":117,"x_max":720,"o":"m 117 0 l 117 100 l 351 100 l 351 770 l 117 770 l 117 870 l 720 870 l 720 770 l 486 770 l 486 100 l 720 100 l 720 0 l 117 0 m 193 1096 l 276 1096 q 418 1029 317 1029 q 561 1096 520 1029 l 644 1096 q 418 945 595 945 q 193 1096 242 945 z "},"ĭ":{"ha":837,"x_min":117,"x_max":661,"o":"m 385 0 l 385 636 l 117 636 l 117 736 l 519 736 l 519 0 l 385 0 m 210 1071 l 293 1071 q 435 970 315 970 q 578 1071 556 970 l 661 1071 q 589 925 651 979 q 435 870 528 870 q 282 925 343 870 q 210 1071 220 979 z "},"Į":{"ha":837,"x_min":117,"x_max":720,"o":"m 117 0 l 117 100 l 351 100 l 351 770 l 117 770 l 117 870 l 720 870 l 720 770 l 486 770 l 486 100 l 720 100 l 720 0 l 117 0 m 686 -252 q 596 -268 640 -268 q 463 -165 463 -268 q 562 0 463 -89 l 649 0 q 559 -141 559 -87 q 635 -202 559 -202 q 686 -193 658 -202 l 686 -252 z "},"į":{"ha":837,"x_min":117,"x_max":556,"o":"m 385 0 l 385 636 l 117 636 l 117 736 l 519 736 l 519 0 l 385 0 m 368 903 l 368 1071 l 536 1071 l 536 903 l 368 903 m 556 -252 q 466 -268 509 -268 q 333 -165 333 -268 q 432 0 333 -89 l 519 0 q 429 -141 429 -87 q 505 -202 429 -202 q 556 -193 528 -202 l 556 -252 z "},"Ĳ":{"ha":837,"x_min":33,"x_max":762,"o":"m 33 0 l 33 100 l 125 100 l 125 770 l 33 770 l 33 870 l 351 870 l 351 770 l 259 770 l 259 100 l 351 100 l 351 0 l 33 0 m 627 770 l 460 770 l 460 870 l 762 870 l 762 361 l 762 237 q 703 54 762 118 q 537 -10 645 -10 q 444 0 500 -10 l 444 108 q 536 90 505 90 q 627 221 627 90 l 627 770 z "},"ĳ":{"ha":837,"x_min":42,"x_max":720,"o":"m 176 0 l 176 636 l 42 636 l 42 736 l 310 736 l 310 0 l 176 0 m 159 903 l 159 1071 l 326 1071 l 326 903 l 159 903 m 703 736 l 703 0 q 463 -284 703 -284 q 310 -250 391 -284 l 310 -144 q 452 -184 403 -184 q 538 -154 508 -184 q 564 -108 559 -134 q 569 0 569 -82 l 569 636 l 435 636 l 435 736 l 703 736 m 553 903 l 553 1071 l 720 1071 l 720 903 l 553 903 z "},"Ĵ":{"ha":837,"x_min":134,"x_max":682,"o":"m 134 12 l 134 125 l 178 110 q 326 79 271 79 q 459 129 421 79 q 498 304 498 178 l 498 770 l 197 770 l 197 870 l 631 870 l 631 375 q 616 178 631 243 q 556 65 600 114 q 335 -21 479 -21 q 134 12 257 -21 m 439 1035 l 305 945 l 197 945 l 347 1096 l 531 1096 l 682 945 l 573 945 l 439 1035 z "},"ĵ":{"ha":837,"x_min":100,"x_max":629,"o":"m 100 -249 l 100 -137 q 307 -184 205 -184 q 424 -141 393 -184 q 456 18 456 -98 l 456 636 l 155 636 l 155 736 l 589 736 l 589 45 q 522 -205 589 -126 q 307 -284 454 -284 q 100 -249 211 -284 m 155 870 l 318 1088 l 466 1088 l 629 870 l 528 870 l 393 1007 l 391 1007 l 255 870 l 155 870 z "},"Ķ":{"ha":837,"x_min":115,"x_max":815,"o":"m 115 0 l 115 870 l 249 870 l 249 444 l 613 870 l 748 870 l 397 460 l 815 0 l 655 0 l 249 444 l 249 0 l 115 0 m 655 0 l 721 0 l 680 -74 q 772 -106 732 -74 q 812 -181 812 -138 q 772 -260 812 -228 q 675 -293 732 -293 q 576 -279 627 -293 l 576 -224 q 648 -234 608 -234 q 718 -184 718 -234 q 591 -119 718 -119 l 655 0 z "},"ķ":{"ha":837,"x_min":144,"x_max":806,"o":"m 144 0 l 144 1071 l 278 1071 l 278 385 l 587 736 l 732 736 l 441 405 l 806 0 l 625 0 l 278 385 l 278 0 l 144 0 m 625 0 l 691 0 l 650 -74 q 742 -106 703 -74 q 782 -181 782 -138 q 742 -260 782 -228 q 646 -293 703 -293 q 547 -279 597 -293 l 547 -224 q 618 -234 578 -234 q 688 -184 688 -234 q 561 -119 688 -119 l 625 0 z "},"ĸ":{"ha":837,"x_min":166,"x_max":745,"o":"m 300 314 l 300 0 l 166 0 l 166 736 l 300 736 l 300 414 l 329 415 q 419 436 393 415 q 486 542 445 456 l 500 573 q 588 706 549 675 q 710 736 627 736 l 710 636 q 650 617 670 636 q 598 531 631 599 l 585 504 l 568 467 q 471 370 538 405 q 555 320 527 351 q 633 197 584 290 l 660 145 q 745 0 707 55 l 597 0 q 554 81 578 38 l 517 145 q 400 314 447 271 l 300 314 z "},"Ĺ":{"ha":837,"x_min":151,"x_max":753,"o":"m 151 0 l 151 870 l 284 870 l 284 100 l 753 100 l 753 0 l 151 0 m 176 945 l 326 1096 l 510 1096 l 284 945 l 176 945 z "},"ĺ":{"ha":837,"x_min":117,"x_max":837,"o":"m 318 0 l 318 970 l 117 970 l 117 1071 l 452 1071 l 452 0 l 318 0 m 519 870 l 682 1088 l 837 1088 l 619 870 l 519 870 z "},"Ļ":{"ha":837,"x_min":151,"x_max":753,"o":"m 151 0 l 151 870 l 284 870 l 284 100 l 753 100 l 753 0 l 151 0 m 416 0 l 481 0 l 441 -74 q 533 -106 493 -74 q 572 -181 572 -138 q 533 -260 572 -228 q 436 -293 493 -293 q 337 -279 387 -293 l 337 -224 q 408 -234 368 -234 q 478 -184 478 -234 q 351 -119 478 -119 l 416 0 z "},"ļ":{"ha":837,"x_min":117,"x_max":558,"o":"m 401 0 l 401 970 l 117 970 l 117 1071 l 536 1071 l 536 0 l 401 0 m 401 0 l 467 0 l 427 -74 q 518 -106 479 -74 q 558 -181 558 -138 q 518 -260 558 -228 q 422 -293 479 -293 q 323 -279 373 -293 l 323 -224 q 394 -234 354 -234 q 464 -184 464 -234 q 337 -119 464 -119 l 401 0 z "},"Ľ":{"ha":837,"x_min":151,"x_max":753,"o":"m 151 0 l 151 870 l 284 870 l 284 100 l 753 100 l 753 0 l 151 0 m 486 577 l 486 618 q 537 725 537 632 l 537 736 l 486 736 l 486 870 l 619 870 l 619 754 q 486 577 619 591 z "},"ľ":{"ha":837,"x_min":100,"x_max":753,"o":"m 351 0 l 351 970 l 100 970 l 100 1071 l 485 1071 l 485 0 l 351 0 m 619 778 l 619 819 q 671 926 671 833 l 671 937 l 619 937 l 619 1071 l 753 1071 l 753 955 q 619 778 753 791 z "},"Ŀ":{"ha":837,"x_min":151,"x_max":753,"o":"m 151 0 l 151 870 l 284 870 l 284 100 l 753 100 l 753 0 l 151 0 m 561 435 l 561 586 l 711 586 l 711 435 l 561 435 z "},"ŀ":{"ha":837,"x_min":117,"x_max":833,"o":"m 401 0 l 401 970 l 117 970 l 117 1071 l 536 1071 l 536 0 l 401 0 m 682 469 l 682 619 l 833 619 l 833 469 l 682 469 z "},"Ń":{"ha":837,"x_min":100,"x_max":736,"o":"m 100 0 l 100 873 l 227 873 l 626 240 l 627 240 l 627 870 l 736 870 l 736 0 l 613 0 l 211 637 l 209 637 l 209 0 l 100 0 m 335 945 l 486 1096 l 669 1096 l 444 945 l 335 945 z "},"ń":{"ha":837,"x_min":123,"x_max":718,"o":"m 123 0 l 123 736 l 257 736 l 257 598 q 508 753 349 753 q 718 504 718 753 l 718 0 l 584 0 l 584 467 q 557 590 584 553 q 467 626 530 626 q 257 481 367 626 l 257 0 l 123 0 m 324 870 l 488 1088 l 642 1088 l 425 870 l 324 870 z "},"Ņ":{"ha":837,"x_min":100,"x_max":736,"o":"m 100 0 l 100 873 l 227 873 l 626 240 l 627 240 l 627 870 l 736 870 l 736 0 l 613 0 l 211 637 l 209 637 l 209 0 l 100 0 m 418 0 l 484 0 l 444 -74 q 535 -106 496 -74 q 575 -181 575 -138 q 535 -260 575 -228 q 439 -293 496 -293 q 340 -279 390 -293 l 340 -224 q 411 -234 371 -234 q 481 -184 481 -234 q 354 -119 481 -119 l 418 0 z "},"ņ":{"ha":837,"x_min":123,"x_max":718,"o":"m 123 0 l 123 736 l 257 736 l 257 598 q 508 753 349 753 q 718 504 718 753 l 718 0 l 584 0 l 584 467 q 557 590 584 553 q 467 626 530 626 q 257 481 367 626 l 257 0 l 123 0 m 410 0 l 476 0 l 435 -74 q 527 -106 488 -74 q 567 -181 567 -138 q 527 -260 567 -228 q 431 -293 488 -293 q 332 -279 382 -293 l 332 -224 q 403 -234 363 -234 q 473 -184 473 -234 q 346 -119 473 -119 l 410 0 z "},"Ň":{"ha":837,"x_min":100,"x_max":736,"o":"m 100 0 l 100 873 l 227 873 l 626 240 l 627 240 l 627 870 l 736 870 l 736 0 l 613 0 l 211 637 l 209 637 l 209 0 l 100 0 m 436 1007 l 570 1096 l 678 1096 l 528 945 l 344 945 l 193 1096 l 302 1096 l 436 1007 z "},"ň":{"ha":837,"x_min":123,"x_max":718,"o":"m 123 0 l 123 736 l 257 736 l 257 598 q 508 753 349 753 q 718 504 718 753 l 718 0 l 584 0 l 584 467 q 557 590 584 553 q 467 626 530 626 q 257 481 367 626 l 257 0 l 123 0 m 673 1088 l 510 870 l 362 870 l 199 1088 l 299 1088 l 435 951 l 437 951 l 573 1088 l 673 1088 z "},"ŉ":{"ha":837,"x_min":56,"x_max":718,"o":"m 123 0 l 123 736 l 257 736 l 257 598 q 508 753 349 753 q 718 504 718 753 l 718 0 l 584 0 l 584 467 q 557 590 584 553 q 467 626 530 626 q 257 481 367 626 l 257 0 l 123 0 m 56 795 l 56 835 q 108 943 108 850 l 108 954 l 56 954 l 56 1088 l 190 1088 l 190 972 q 56 795 190 808 z "},"Ŋ":{"ha":837,"x_min":100,"x_max":736,"o":"m 100 0 l 100 873 l 227 873 l 626 240 l 627 240 l 627 870 l 736 870 l 736 0 l 736 -37 q 518 -285 736 -285 q 418 -271 469 -285 l 418 -166 q 525 -184 460 -184 q 603 -151 580 -184 q 626 -37 626 -117 l 626 -24 l 613 0 l 211 637 l 209 637 l 209 0 l 100 0 z "},"ŋ":{"ha":837,"x_min":123,"x_max":718,"o":"m 123 0 l 123 736 l 257 736 l 257 598 q 508 753 349 753 q 718 504 718 753 l 718 0 l 718 -62 q 660 -226 718 -167 q 500 -285 602 -285 q 399 -271 450 -285 l 399 -166 q 484 -184 441 -184 q 561 -151 538 -184 q 584 -37 584 -117 l 584 467 q 557 590 584 553 q 467 626 530 626 q 257 481 367 626 l 257 0 l 123 0 z "},"Ō":{"ha":837,"x_min":42,"x_max":795,"o":"m 42 435 q 144 767 42 644 q 418 891 246 891 q 693 767 591 891 q 795 435 795 644 q 693 103 795 227 q 418 -21 591 -21 q 144 103 246 -21 q 42 435 42 227 m 184 435 q 245 172 184 264 q 418 79 306 79 q 592 172 531 79 q 653 435 653 264 q 592 698 653 606 q 418 791 531 791 q 245 698 306 791 q 184 435 184 606 m 201 996 l 201 1096 l 636 1096 l 636 996 l 201 996 z "},"ō":{"ha":837,"x_min":71,"x_max":766,"o":"m 418 -17 q 164 86 256 -17 q 71 368 71 189 q 164 650 71 547 q 418 753 257 753 q 673 650 581 753 q 766 368 766 547 q 673 86 766 189 q 418 -17 581 -17 m 418 83 q 569 159 515 83 q 623 368 623 234 q 569 577 623 502 q 418 652 515 652 q 268 577 322 652 q 214 368 214 502 q 268 159 214 234 q 418 83 322 83 m 201 870 l 201 970 l 636 970 l 636 870 l 201 870 z "},"Ŏ":{"ha":837,"x_min":42,"x_max":795,"o":"m 42 435 q 144 767 42 644 q 418 891 246 891 q 693 767 591 891 q 795 435 795 644 q 693 103 795 227 q 418 -21 591 -21 q 144 103 246 -21 q 42 435 42 227 m 184 435 q 245 172 184 264 q 418 79 306 79 q 592 172 531 79 q 653 435 653 264 q 592 698 653 606 q 418 791 531 791 q 245 698 306 791 q 184 435 184 606 m 193 1096 l 276 1096 q 418 1029 317 1029 q 561 1096 520 1029 l 644 1096 q 418 945 595 945 q 193 1096 242 945 z "},"ŏ":{"ha":837,"x_min":71,"x_max":766,"o":"m 418 -17 q 164 86 256 -17 q 71 368 71 189 q 164 650 71 547 q 418 753 257 753 q 673 650 581 753 q 766 368 766 547 q 673 86 766 189 q 418 -17 581 -17 m 418 83 q 569 159 515 83 q 623 368 623 234 q 569 577 623 502 q 418 652 515 652 q 268 577 322 652 q 214 368 214 502 q 268 159 214 234 q 418 83 322 83 m 193 1071 l 276 1071 q 418 970 298 970 q 561 1071 539 970 l 644 1071 q 572 925 634 979 q 418 870 511 870 q 265 925 326 870 q 193 1071 203 979 z "},"Ő":{"ha":837,"x_min":42,"x_max":795,"o":"m 42 435 q 144 767 42 644 q 418 891 246 891 q 693 767 591 891 q 795 435 795 644 q 693 103 795 227 q 418 -21 591 -21 q 144 103 246 -21 q 42 435 42 227 m 184 435 q 245 172 184 264 q 418 79 306 79 q 592 172 531 79 q 653 435 653 264 q 592 698 653 606 q 418 791 531 791 q 245 698 306 791 q 184 435 184 606 m 226 945 l 376 1096 l 511 1096 l 310 945 l 226 945 m 477 945 l 627 1096 l 762 1096 l 561 945 l 477 945 z "},"ő":{"ha":837,"x_min":71,"x_max":769,"o":"m 418 -17 q 164 86 256 -17 q 71 368 71 189 q 164 650 71 547 q 418 753 257 753 q 673 650 581 753 q 766 368 766 547 q 673 86 766 189 q 418 -17 581 -17 m 418 83 q 569 159 515 83 q 623 368 623 234 q 569 577 623 502 q 418 652 515 652 q 268 577 322 652 q 214 368 214 502 q 268 159 214 234 q 418 83 322 83 m 238 870 l 401 1088 l 531 1088 l 313 870 l 238 870 m 477 870 l 640 1088 l 769 1088 l 552 870 l 477 870 z "},"Ŕ":{"ha":837,"x_min":125,"x_max":816,"o":"m 125 0 l 125 870 l 368 870 q 579 845 520 870 q 705 661 705 793 q 660 509 705 570 q 508 396 614 448 l 816 0 l 654 0 l 379 362 l 258 362 l 258 0 l 125 0 m 258 463 l 329 463 q 500 511 437 463 q 563 639 563 558 q 515 742 563 714 q 340 770 468 770 l 258 770 l 258 463 m 292 945 l 443 1096 l 627 1096 l 401 945 l 292 945 z "},"ŕ":{"ha":837,"x_min":209,"x_max":753,"o":"m 209 0 l 209 736 l 342 736 l 342 598 q 616 753 444 753 q 753 736 676 753 l 753 527 l 652 527 l 652 629 q 598 636 623 636 q 464 601 522 636 q 342 479 406 565 l 342 0 l 209 0 m 342 870 l 506 1088 l 661 1088 l 443 870 l 342 870 z "},"Ŗ":{"ha":837,"x_min":125,"x_max":816,"o":"m 125 0 l 125 870 l 368 870 q 579 845 520 870 q 705 661 705 793 q 660 509 705 570 q 508 396 614 448 l 816 0 l 654 0 l 379 362 l 258 362 l 258 0 l 125 0 m 258 463 l 329 463 q 500 511 437 463 q 563 639 563 558 q 515 742 563 714 q 340 770 468 770 l 258 770 l 258 463 m 406 0 l 471 0 l 431 -74 q 523 -106 483 -74 q 562 -181 562 -138 q 523 -260 562 -228 q 426 -293 483 -293 q 327 -279 377 -293 l 327 -224 q 398 -234 358 -234 q 468 -184 468 -234 q 341 -119 468 -119 l 406 0 z "},"ŗ":{"ha":837,"x_min":199,"x_max":753,"o":"m 209 0 l 209 736 l 342 736 l 342 598 q 616 753 444 753 q 753 736 676 753 l 753 527 l 652 527 l 652 629 q 598 636 623 636 q 464 601 522 636 q 342 479 406 565 l 342 0 l 209 0 m 277 0 l 343 0 l 302 -74 q 394 -106 355 -74 q 434 -181 434 -138 q 394 -260 434 -228 q 298 -293 355 -293 q 199 -279 249 -293 l 199 -224 q 270 -234 230 -234 q 340 -184 340 -234 q 213 -119 340 -119 l 277 0 z "},"Ř":{"ha":837,"x_min":125,"x_max":816,"o":"m 125 0 l 125 870 l 368 870 q 579 845 520 870 q 705 661 705 793 q 660 509 705 570 q 508 396 614 448 l 816 0 l 654 0 l 379 362 l 258 362 l 258 0 l 125 0 m 258 463 l 329 463 q 500 511 437 463 q 563 639 563 558 q 515 742 563 714 q 340 770 468 770 l 258 770 l 258 463 m 385 1007 l 518 1096 l 627 1096 l 476 945 l 292 945 l 142 1096 l 250 1096 l 385 1007 z "},"ř":{"ha":837,"x_min":209,"x_max":753,"o":"m 209 0 l 209 736 l 342 736 l 342 598 q 616 753 444 753 q 753 736 676 753 l 753 527 l 652 527 l 652 629 q 598 636 623 636 q 464 601 522 636 q 342 479 406 565 l 342 0 l 209 0 m 701 1088 l 537 870 l 389 870 l 226 1088 l 326 1088 l 463 951 l 464 951 l 600 1088 l 701 1088 z "},"Ś":{"ha":837,"x_min":111,"x_max":758,"o":"m 685 850 l 685 734 q 423 791 538 791 q 242 669 242 791 q 276 589 242 619 q 401 527 310 559 l 487 497 l 568 469 q 758 244 758 403 q 661 51 758 123 q 402 -21 564 -21 q 111 27 290 -21 l 111 159 q 406 79 289 79 q 564 118 505 79 q 623 223 623 157 q 588 302 623 273 q 444 372 553 332 l 355 404 q 169 506 221 454 q 117 645 117 558 q 197 827 117 762 q 421 891 277 891 q 685 850 538 891 m 315 945 l 466 1096 l 650 1096 l 424 945 l 315 945 z "},"ś":{"ha":837,"x_min":127,"x_max":715,"o":"m 127 30 l 127 151 q 395 83 282 83 q 530 116 477 83 q 583 199 583 149 q 456 304 583 264 l 313 351 q 146 543 146 406 q 221 698 146 643 q 435 753 297 753 q 676 721 539 753 l 676 612 q 435 652 544 652 q 318 626 361 652 q 274 555 274 600 q 374 465 274 500 l 543 406 q 675 329 635 374 q 715 212 715 283 q 629 45 715 107 q 398 -17 543 -17 q 127 30 271 -17 m 324 870 l 488 1088 l 642 1088 l 425 870 l 324 870 z "},"Ŝ":{"ha":837,"x_min":111,"x_max":758,"o":"m 685 850 l 685 734 q 423 791 538 791 q 242 669 242 791 q 276 589 242 619 q 401 527 310 559 l 487 497 l 568 469 q 758 244 758 403 q 661 51 758 123 q 402 -21 564 -21 q 111 27 290 -21 l 111 159 q 406 79 289 79 q 564 118 505 79 q 623 223 623 157 q 588 302 623 273 q 444 372 553 332 l 355 404 q 169 506 221 454 q 117 645 117 558 q 197 827 117 762 q 421 891 277 891 q 685 850 538 891 m 432 1035 l 298 945 l 190 945 l 340 1096 l 524 1096 l 675 945 l 566 945 l 432 1035 z "},"ŝ":{"ha":837,"x_min":127,"x_max":715,"o":"m 127 30 l 127 151 q 395 83 282 83 q 530 116 477 83 q 583 199 583 149 q 456 304 583 264 l 313 351 q 146 543 146 406 q 221 698 146 643 q 435 753 297 753 q 676 721 539 753 l 676 612 q 435 652 544 652 q 318 626 361 652 q 274 555 274 600 q 374 465 274 500 l 543 406 q 675 329 635 374 q 715 212 715 283 q 629 45 715 107 q 398 -17 543 -17 q 127 30 271 -17 m 202 870 l 366 1088 l 513 1088 l 677 870 l 576 870 l 440 1007 l 439 1007 l 302 870 l 202 870 z "},"Ţ":{"ha":837,"x_min":17,"x_max":820,"o":"m 351 0 l 351 770 l 17 770 l 17 870 l 820 870 l 820 770 l 486 770 l 486 0 l 351 0 m 393 0 l 459 0 l 418 -74 q 510 -106 471 -74 q 550 -181 550 -138 q 510 -260 550 -228 q 414 -293 471 -293 q 315 -279 365 -293 l 315 -224 q 386 -234 346 -234 q 456 -184 456 -234 q 329 -119 456 -119 l 393 0 z "},"ţ":{"ha":837,"x_min":88,"x_max":747,"o":"m 747 1 q 553 -17 647 -17 q 331 42 390 -17 q 272 264 272 100 l 272 619 l 88 619 l 88 720 l 272 720 l 272 878 l 406 878 l 406 720 l 732 720 l 732 619 l 406 619 l 406 242 q 414 155 406 179 q 448 114 422 132 q 582 83 494 83 q 747 102 665 83 l 747 1 m 446 0 l 511 0 l 471 -74 q 563 -106 523 -74 q 602 -181 602 -138 q 563 -260 602 -228 q 466 -293 523 -293 q 367 -279 417 -293 l 367 -224 q 438 -234 398 -234 q 508 -184 508 -234 q 381 -119 508 -119 l 446 0 z "},"Ť":{"ha":837,"x_min":17,"x_max":820,"o":"m 351 0 l 351 770 l 17 770 l 17 870 l 820 870 l 820 770 l 486 770 l 486 0 l 351 0 m 419 1007 l 553 1096 l 661 1096 l 511 945 l 327 945 l 176 1096 l 285 1096 l 419 1007 z "},"ť":{"ha":837,"x_min":88,"x_max":747,"o":"m 747 1 q 553 -17 647 -17 q 331 42 390 -17 q 272 264 272 100 l 272 619 l 88 619 l 88 720 l 272 720 l 272 878 l 406 878 l 406 720 l 732 720 l 732 619 l 406 619 l 406 242 q 414 155 406 179 q 448 114 422 132 q 582 83 494 83 q 747 102 665 83 l 747 1 m 599 795 l 599 835 q 650 943 650 850 l 650 954 l 599 954 l 599 1088 l 732 1088 l 732 972 q 599 795 732 808 z "},"Ŧ":{"ha":837,"x_min":17,"x_max":820,"o":"m 351 0 l 351 406 l 146 406 l 146 506 l 351 506 l 351 770 l 17 770 l 17 870 l 820 870 l 820 770 l 486 770 l 486 506 l 691 506 l 691 406 l 486 406 l 486 0 l 351 0 z "},"ŧ":{"ha":837,"x_min":88,"x_max":747,"o":"m 747 102 l 747 1 q 553 -17 647 -17 q 331 42 390 -17 q 272 264 272 100 l 272 385 l 130 385 l 130 469 l 272 469 l 272 619 l 88 619 l 88 720 l 272 720 l 272 878 l 406 878 l 406 720 l 732 720 l 732 619 l 406 619 l 406 469 l 649 469 l 649 385 l 406 385 l 406 242 q 414 155 406 179 q 448 114 422 132 q 582 83 494 83 q 747 102 665 83 z "},"Ũ":{"ha":837,"x_min":104,"x_max":733,"o":"m 104 870 l 237 870 l 237 342 q 281 141 237 203 q 422 79 325 79 q 571 141 526 79 q 616 345 616 203 l 616 870 l 733 870 l 733 365 q 694 130 733 201 q 424 -21 612 -21 q 182 68 260 -21 q 104 344 104 158 l 104 870 m 193 945 q 323 1096 200 1096 q 413 1072 369 1096 l 453 1049 q 510 1029 490 1029 q 561 1096 557 1029 l 644 1096 q 515 945 636 945 q 425 970 468 945 l 384 992 q 323 1013 347 1013 q 277 945 280 1013 l 193 945 z "},"ũ":{"ha":837,"x_min":119,"x_max":713,"o":"m 713 736 l 713 0 l 580 0 l 580 138 q 328 -17 488 -17 q 119 233 119 -17 l 119 736 l 253 736 l 253 269 q 279 146 253 182 q 370 110 306 110 q 580 255 470 110 l 580 736 l 713 736 m 191 870 q 316 1029 198 1029 q 408 1003 366 1029 l 448 978 q 506 954 486 954 q 559 1029 553 954 l 642 1029 q 517 870 635 870 q 425 897 467 870 l 385 922 q 327 945 347 945 q 274 870 280 945 l 191 870 z "},"Ū":{"ha":837,"x_min":104,"x_max":733,"o":"m 104 870 l 237 870 l 237 342 q 281 141 237 203 q 422 79 325 79 q 571 141 526 79 q 616 345 616 203 l 616 870 l 733 870 l 733 365 q 694 130 733 201 q 424 -21 612 -21 q 182 68 260 -21 q 104 344 104 158 l 104 870 m 201 996 l 201 1096 l 636 1096 l 636 996 l 201 996 z "},"ū":{"ha":837,"x_min":119,"x_max":713,"o":"m 713 736 l 713 0 l 580 0 l 580 138 q 328 -17 488 -17 q 119 233 119 -17 l 119 736 l 253 736 l 253 269 q 279 146 253 182 q 370 110 306 110 q 580 255 470 110 l 580 736 l 713 736 m 199 870 l 199 970 l 634 970 l 634 870 l 199 870 z "},"Ŭ":{"ha":837,"x_min":104,"x_max":733,"o":"m 104 870 l 237 870 l 237 342 q 281 141 237 203 q 422 79 325 79 q 571 141 526 79 q 616 345 616 203 l 616 870 l 733 870 l 733 365 q 694 130 733 201 q 424 -21 612 -21 q 182 68 260 -21 q 104 344 104 158 l 104 870 m 201 1096 l 285 1096 q 427 1029 326 1029 q 570 1096 529 1029 l 653 1096 q 427 945 604 945 q 201 1096 251 945 z "},"ŭ":{"ha":837,"x_min":119,"x_max":713,"o":"m 713 736 l 713 0 l 580 0 l 580 138 q 328 -17 488 -17 q 119 233 119 -17 l 119 736 l 253 736 l 253 269 q 279 146 253 182 q 370 110 306 110 q 580 255 470 110 l 580 736 l 713 736 m 191 1071 l 274 1071 q 416 970 296 970 q 559 1071 537 970 l 642 1071 q 570 925 632 979 q 416 870 509 870 q 263 925 324 870 q 191 1071 201 979 z "},"Ů":{"ha":837,"x_min":104,"x_max":733,"o":"m 104 870 l 237 870 l 237 342 q 281 141 237 203 q 422 79 325 79 q 571 141 526 79 q 616 345 616 203 l 616 870 l 733 870 l 733 365 q 694 130 733 201 q 424 -21 612 -21 q 182 68 260 -21 q 104 344 104 158 l 104 870 m 427 851 q 340 887 376 851 q 304 974 304 923 q 340 1060 304 1025 q 427 1096 376 1096 q 513 1060 477 1096 q 549 974 549 1025 q 513 887 549 923 q 427 851 477 851 m 427 901 q 478 923 456 901 q 499 974 499 944 q 478 1025 499 1004 q 427 1046 456 1046 q 376 1025 397 1046 q 355 974 355 1004 q 376 923 355 944 q 427 901 397 901 z "},"ů":{"ha":837,"x_min":119,"x_max":713,"o":"m 713 736 l 713 0 l 580 0 l 580 138 q 328 -17 488 -17 q 119 233 119 -17 l 119 736 l 253 736 l 253 269 q 279 146 253 182 q 370 110 306 110 q 580 255 470 110 l 580 736 l 713 736 m 416 845 q 328 882 364 845 q 291 970 291 918 q 328 1059 291 1023 q 416 1096 364 1096 q 505 1059 469 1096 q 542 970 542 1023 q 505 882 542 918 q 416 845 469 845 m 416 895 q 470 917 448 895 q 492 970 492 939 q 470 1024 492 1002 q 416 1046 448 1046 q 363 1024 385 1046 q 341 970 341 1002 q 363 917 341 939 q 416 895 385 895 z "},"Ű":{"ha":837,"x_min":104,"x_max":773,"o":"m 104 870 l 237 870 l 237 342 q 281 141 237 203 q 422 79 325 79 q 571 141 526 79 q 616 345 616 203 l 616 870 l 733 870 l 733 365 q 694 130 733 201 q 424 -21 612 -21 q 182 68 260 -21 q 104 344 104 158 l 104 870 m 237 945 l 388 1096 l 522 1096 l 321 945 l 237 945 m 488 945 l 639 1096 l 773 1096 l 572 945 l 488 945 z "},"ű":{"ha":837,"x_min":119,"x_max":768,"o":"m 713 736 l 713 0 l 580 0 l 580 138 q 328 -17 488 -17 q 119 233 119 -17 l 119 736 l 253 736 l 253 269 q 279 146 253 182 q 370 110 306 110 q 580 255 470 110 l 580 736 l 713 736 m 237 870 l 400 1088 l 530 1088 l 312 870 l 237 870 m 475 870 l 638 1088 l 768 1088 l 551 870 l 475 870 z "},"Ų":{"ha":837,"x_min":104,"x_max":733,"o":"m 104 870 l 237 870 l 237 342 q 281 141 237 203 q 422 79 325 79 q 571 141 526 79 q 616 345 616 203 l 616 870 l 733 870 l 733 365 q 694 130 733 201 q 424 -21 612 -21 q 182 68 260 -21 q 104 344 104 158 l 104 870 m 574 -252 q 484 -268 528 -268 q 351 -165 351 -268 q 450 0 351 -89 l 537 0 q 448 -141 448 -87 q 523 -202 448 -202 q 574 -193 546 -202 l 574 -252 z "},"ų":{"ha":837,"x_min":119,"x_max":713,"o":"m 713 736 l 713 0 l 580 0 l 580 138 q 328 -17 488 -17 q 119 233 119 -17 l 119 736 l 253 736 l 253 269 q 279 146 253 182 q 370 110 306 110 q 580 255 470 110 l 580 736 l 713 736 m 704 -252 q 614 -268 657 -268 q 481 -165 481 -268 q 580 0 481 -89 l 667 0 q 577 -141 577 -87 q 652 -202 577 -202 q 704 -193 675 -202 l 704 -252 z "},"Ŵ":{"ha":837,"x_min":11,"x_max":825,"o":"m 140 0 l 11 870 l 125 870 l 231 147 l 233 147 l 358 686 l 487 686 l 610 155 l 612 155 l 724 870 l 825 870 l 682 0 l 537 0 l 417 511 l 416 511 l 295 0 l 140 0 m 424 1035 l 290 945 l 182 945 l 332 1096 l 516 1096 l 667 945 l 558 945 l 424 1035 z "},"ŵ":{"ha":837,"x_min":8,"x_max":828,"o":"m 142 0 l 8 736 l 132 736 l 229 160 l 231 160 l 361 669 l 491 669 l 615 140 l 617 140 l 726 736 l 828 736 l 681 0 l 549 0 l 420 551 l 418 551 l 275 0 l 142 0 m 191 870 l 355 1088 l 503 1088 l 666 870 l 566 870 l 429 1007 l 428 1007 l 292 870 l 191 870 z "},"Ŷ":{"ha":837,"x_min":22,"x_max":832,"o":"m 352 0 l 352 356 l 22 870 l 176 870 l 429 469 l 705 870 l 832 870 l 486 356 l 486 0 l 352 0 m 440 1035 l 307 945 l 198 945 l 349 1096 l 532 1096 l 683 945 l 574 945 l 440 1035 z "},"ŷ":{"ha":837,"x_min":58,"x_max":800,"o":"m 96 -268 l 96 -168 l 151 -168 q 261 -143 227 -168 q 334 -38 296 -119 l 367 33 l 58 736 l 196 736 l 437 185 l 680 736 l 800 736 l 429 -94 q 325 -230 385 -191 q 153 -268 264 -268 l 96 -268 m 200 870 l 363 1088 l 511 1088 l 675 870 l 574 870 l 438 1007 l 437 1007 l 300 870 l 200 870 z "},"Ź":{"ha":837,"x_min":67,"x_max":770,"o":"m 67 0 l 67 100 l 613 770 l 100 770 l 100 870 l 764 870 l 764 770 l 219 100 l 770 100 l 770 0 l 67 0 m 326 945 l 477 1096 l 661 1096 l 435 945 l 326 945 z "},"ź":{"ha":837,"x_min":92,"x_max":745,"o":"m 92 0 l 92 100 l 574 636 l 109 636 l 109 736 l 732 736 l 732 636 l 250 100 l 745 100 l 745 0 l 92 0 m 318 870 l 481 1088 l 636 1088 l 418 870 l 318 870 z "},"Ż":{"ha":837,"x_min":67,"x_max":770,"o":"m 67 0 l 67 100 l 613 770 l 100 770 l 100 870 l 764 870 l 764 770 l 219 100 l 770 100 l 770 0 l 67 0 m 357 945 l 357 1096 l 508 1096 l 508 945 l 357 945 z "},"ż":{"ha":837,"x_min":92,"x_max":745,"o":"m 92 0 l 92 100 l 574 636 l 109 636 l 109 736 l 732 736 l 732 636 l 250 100 l 745 100 l 745 0 l 92 0 m 360 870 l 360 1021 l 511 1021 l 511 870 l 360 870 z "},"ſ":{"ha":837,"x_min":173,"x_max":837,"o":"m 323 0 l 323 619 l 173 619 l 173 720 l 323 720 l 323 798 q 395 1020 323 952 q 631 1088 467 1088 q 837 1059 740 1088 l 837 953 q 642 987 738 987 q 498 948 539 987 q 457 812 457 909 l 457 0 l 323 0 z "},"Ǻ":{"ha":837,"x_min":8,"x_max":828,"o":"m 8 0 l 351 870 l 485 870 l 828 0 l 686 0 l 604 218 l 207 218 l 123 0 l 8 0 m 247 318 l 564 318 l 405 734 l 247 318 m 175 870 l 338 1088 l 493 1088 l 275 870 l 175 870 m 615 851 q 529 887 564 851 q 493 974 493 923 q 529 1060 493 1025 q 615 1096 564 1096 q 702 1060 666 1096 q 738 974 738 1025 q 702 887 738 923 q 615 851 666 851 m 615 901 q 666 923 645 901 q 688 974 688 944 q 666 1025 688 1004 q 615 1046 645 1046 q 564 1025 585 1046 q 543 974 543 1004 q 564 923 543 944 q 615 901 585 901 z "},"ǻ":{"ha":837,"x_min":92,"x_max":802,"o":"m 566 89 q 324 -13 445 -13 q 158 45 223 -13 q 92 191 92 102 q 194 375 92 305 q 463 445 296 445 l 545 445 l 545 508 q 511 619 545 586 q 396 652 476 652 q 156 587 280 652 l 156 702 q 423 753 298 753 q 622 697 564 753 q 680 505 680 642 l 680 197 q 694 106 680 130 q 747 82 708 82 q 789 89 760 82 l 802 9 q 700 -13 734 -13 q 566 89 601 -13 m 545 176 l 545 361 l 505 361 q 231 213 231 361 q 266 127 231 159 q 359 94 301 94 q 545 176 447 94 m 136 870 l 300 1088 l 454 1088 l 237 870 l 136 870 m 576 845 q 488 882 524 845 q 451 970 451 918 q 488 1059 451 1023 q 576 1096 524 1096 q 665 1059 629 1096 q 702 970 702 1023 q 665 882 702 918 q 576 845 629 845 m 576 895 q 630 917 608 895 q 652 970 652 939 q 630 1024 652 1002 q 576 1046 608 1046 q 523 1024 545 1046 q 501 970 501 1002 q 523 917 501 939 q 576 895 545 895 z "},"Ǽ":{"ha":837,"x_min":0,"x_max":812,"o":"m 0 0 l 383 870 l 778 870 l 778 770 l 552 770 l 552 473 l 732 473 l 732 372 l 552 372 l 552 100 l 812 100 l 812 0 l 427 0 l 427 180 l 196 180 l 117 0 l 0 0 m 241 280 l 427 280 l 427 703 l 241 280 m 383 945 l 534 1096 l 718 1096 l 492 945 l 383 945 z "},"ǽ":{"ha":837,"x_min":33,"x_max":817,"o":"m 402 85 q 229 -17 322 -17 q 89 43 144 -17 q 33 195 33 103 q 113 371 33 300 q 309 442 192 442 l 354 442 l 354 521 q 245 652 354 652 q 96 616 180 652 l 96 718 q 281 753 189 753 q 446 672 396 753 q 595 753 510 753 q 817 396 817 753 l 817 350 l 480 350 q 515 151 480 211 q 632 90 551 90 q 812 134 713 90 l 812 28 q 602 -17 672 -17 q 486 6 531 -17 q 402 85 440 30 m 354 153 l 354 359 l 321 359 q 205 317 252 359 q 159 212 159 275 q 187 129 159 161 q 262 97 216 97 q 339 137 300 97 l 354 153 m 480 442 l 691 442 l 691 474 q 669 612 691 572 q 592 652 646 652 q 511 604 541 652 q 481 473 481 556 l 480 442 m 346 870 l 509 1088 l 664 1088 l 446 870 l 346 870 z "},"Ǿ":{"ha":837,"x_min":41,"x_max":794,"o":"m 41 -21 l 137 113 q 41 435 41 252 q 143 767 41 643 q 416 891 245 891 q 640 819 549 891 l 692 891 l 794 891 l 699 758 q 794 435 794 617 q 692 103 794 227 q 420 -21 590 -21 q 195 51 290 -21 l 143 -21 l 41 -21 m 218 226 l 572 724 q 418 791 511 791 q 245 699 307 791 q 184 442 184 608 q 218 226 184 321 m 618 644 l 262 146 q 419 79 325 79 q 592 172 531 79 q 652 437 652 265 q 618 644 652 547 m 310 945 l 460 1096 l 644 1096 l 418 945 l 310 945 z "},"ǿ":{"ha":837,"x_min":71,"x_max":765,"o":"m 545 602 q 416 652 489 652 q 266 575 319 652 q 213 357 213 498 q 236 222 213 287 l 241 207 l 545 602 m 71 -17 l 155 94 q 71 369 71 203 q 163 650 71 547 q 414 753 256 753 q 616 697 532 753 l 660 753 l 765 753 l 680 641 q 765 371 765 536 q 673 87 765 191 q 423 -17 581 -17 q 218 38 300 -17 l 176 -17 l 71 -17 m 290 133 q 419 83 340 83 q 570 161 517 83 q 623 382 623 238 q 594 530 623 460 l 290 133 m 317 870 l 481 1088 l 635 1088 l 418 870 l 317 870 z "},";":{"ha":837,"x_min":318,"x_max":519,"o":"m 318 -218 l 318 -151 q 401 0 393 -142 l 318 0 l 318 201 l 519 201 l 519 79 q 318 -218 519 -207 m 318 536 l 318 736 l 519 736 l 519 536 l 318 536 z "},"΄":{"ha":837,"x_min":351,"x_max":485,"o":"m 368 870 l 351 1088 l 485 1088 l 469 870 l 368 870 z "},"΅":{"ha":837,"x_min":151,"x_max":686,"o":"m 151 870 l 151 987 l 268 987 l 268 870 l 151 870 m 368 870 l 351 1088 l 485 1088 l 469 870 l 368 870 m 569 870 l 569 987 l 686 987 l 686 870 l 569 870 z "},"Ά":{"ha":837,"x_min":8,"x_max":828,"o":"m 8 0 l 351 870 l 485 870 l 828 0 l 686 0 l 604 218 l 207 218 l 123 0 l 8 0 m 247 318 l 564 318 l 405 734 l 247 318 m 81 652 l 64 870 l 198 870 l 181 652 l 81 652 z "},"·":{"ha":837,"x_min":334,"x_max":502,"o":"m 334 284 l 334 452 l 502 452 l 502 284 l 334 284 z "},"Έ":{"ha":837,"x_min":8,"x_max":773,"o":"m 221 0 l 221 870 l 742 870 l 742 770 l 355 770 l 355 506 l 673 506 l 673 406 l 355 406 l 355 100 l 773 100 l 773 0 l 221 0 m 24 652 l 8 870 l 142 870 l 125 652 l 24 652 z "},"Ή":{"ha":837,"x_min":0,"x_max":778,"o":"m 184 0 l 184 870 l 318 870 l 318 490 l 644 490 l 644 870 l 778 870 l 778 0 l 644 0 l 644 389 l 318 389 l 318 0 l 184 0 m 17 652 l 0 870 l 109 870 l 92 652 l 17 652 z "},"Ί":{"ha":837,"x_min":8,"x_max":786,"o":"m 217 0 l 217 100 l 435 100 l 435 770 l 217 770 l 217 870 l 786 870 l 786 770 l 568 770 l 568 100 l 786 100 l 786 0 l 217 0 m 24 652 l 8 870 l 142 870 l 125 652 l 24 652 z "},"Ό":{"ha":837,"x_min":0,"x_max":812,"o":"m 109 435 q 203 768 109 646 q 460 891 298 891 q 717 768 623 891 q 812 435 812 646 q 717 102 812 224 q 460 -21 623 -21 q 203 102 298 -21 q 109 435 109 224 m 251 435 q 460 79 251 79 q 669 435 669 79 q 460 791 669 791 q 251 435 251 791 m 17 652 l 0 870 l 109 870 l 92 652 l 17 652 z "},"Ύ":{"ha":837,"x_min":0,"x_max":820,"o":"m 401 0 l 401 258 q 337 583 401 448 q 168 753 273 718 l 168 870 q 366 764 275 870 q 487 498 457 657 q 625 736 528 627 q 814 867 721 844 l 820 868 l 820 768 l 814 764 q 613 556 692 698 q 535 258 535 414 l 535 0 l 401 0 m 17 652 l 0 870 l 109 870 l 92 652 l 17 652 z "},"Ώ":{"ha":837,"x_min":0,"x_max":821,"o":"m 414 100 l 414 0 l 117 0 l 117 100 l 304 100 q 116 505 116 323 q 191 751 116 642 q 468 891 288 891 q 745 751 649 891 q 821 506 821 642 q 632 100 821 323 l 820 100 l 820 0 l 523 0 l 523 100 q 647 298 615 217 q 678 502 678 379 q 623 714 678 637 q 468 791 567 791 q 314 714 370 791 q 258 502 258 637 q 290 298 258 380 q 414 100 321 217 m 16 652 l 0 870 l 109 870 l 92 652 l 16 652 z "},"ΐ":{"ha":837,"x_min":78,"x_max":703,"o":"m 703 18 q 516 -17 610 -17 q 328 43 380 -17 q 276 259 276 102 l 276 736 l 410 736 l 410 272 q 432 117 410 151 q 537 83 455 83 q 703 119 611 83 l 703 18 m 78 870 l 78 987 l 195 987 l 195 870 l 78 870 m 296 870 l 279 1088 l 412 1088 l 396 870 l 296 870 m 496 870 l 496 987 l 614 987 l 614 870 l 496 870 z "},"Α":{"ha":837,"x_min":8,"x_max":828,"o":"m 8 0 l 351 870 l 485 870 l 828 0 l 686 0 l 604 218 l 207 218 l 123 0 l 8 0 m 247 318 l 564 318 l 405 734 l 247 318 z "},"Β":{"ha":837,"x_min":125,"x_max":754,"o":"m 125 0 l 125 870 l 406 870 q 711 668 711 870 q 659 535 711 591 q 512 455 606 479 q 754 225 754 406 q 683 64 754 122 q 578 13 637 25 q 388 0 519 0 l 125 0 m 259 494 l 306 494 q 576 644 576 494 q 524 744 576 718 q 321 770 471 770 l 259 770 l 259 494 m 259 100 l 380 100 q 562 127 512 100 q 612 227 612 155 q 530 361 612 311 q 308 410 448 410 l 259 410 l 259 100 z "},"Γ":{"ha":837,"x_min":168,"x_max":787,"o":"m 168 0 l 168 870 l 787 870 l 787 770 l 301 770 l 301 0 l 168 0 z "},"Δ":{"ha":837,"x_min":8,"x_max":828,"o":"m 8 0 l 8 125 l 349 870 l 490 870 l 828 125 l 828 0 l 8 0 m 123 117 l 688 117 l 405 736 l 123 117 z "},"Ε":{"ha":837,"x_min":146,"x_max":766,"o":"m 146 0 l 146 870 l 734 870 l 734 770 l 280 770 l 280 506 l 665 506 l 665 406 l 280 406 l 280 100 l 766 100 l 766 0 l 146 0 z "},"Ζ":{"ha":837,"x_min":67,"x_max":770,"o":"m 67 0 l 67 100 l 613 770 l 100 770 l 100 870 l 764 870 l 764 770 l 219 100 l 770 100 l 770 0 l 67 0 z "},"Η":{"ha":837,"x_min":100,"x_max":736,"o":"m 100 0 l 100 870 l 234 870 l 234 490 l 602 490 l 602 870 l 736 870 l 736 0 l 602 0 l 602 389 l 234 389 l 234 0 l 100 0 z "},"Θ":{"ha":837,"x_min":42,"x_max":795,"o":"m 42 435 q 144 767 42 644 q 418 891 246 891 q 693 767 591 891 q 795 435 795 644 q 693 103 795 227 q 418 -21 591 -21 q 144 103 246 -21 q 42 435 42 227 m 184 435 q 245 172 184 264 q 418 79 306 79 q 592 172 531 79 q 653 435 653 264 q 592 698 653 606 q 418 791 531 791 q 245 698 306 791 q 184 435 184 606 m 247 401 l 247 502 l 590 502 l 590 401 l 247 401 z "},"Ι":{"ha":837,"x_min":117,"x_max":720,"o":"m 117 0 l 117 100 l 351 100 l 351 770 l 117 770 l 117 870 l 720 870 l 720 770 l 486 770 l 486 100 l 720 100 l 720 0 l 117 0 z "},"Κ":{"ha":837,"x_min":115,"x_max":815,"o":"m 115 0 l 115 870 l 249 870 l 249 444 l 613 870 l 748 870 l 397 460 l 815 0 l 655 0 l 249 444 l 249 0 l 115 0 z "},"Λ":{"ha":837,"x_min":8,"x_max":828,"o":"m 123 0 l 8 0 l 351 870 l 485 870 l 828 0 l 686 0 l 405 734 l 123 0 z "},"Μ":{"ha":837,"x_min":64,"x_max":772,"o":"m 64 0 l 64 870 l 224 870 l 416 334 l 417 334 l 605 870 l 772 870 l 772 0 l 663 0 l 663 747 l 662 747 l 466 184 l 353 184 l 158 731 l 157 731 l 157 0 l 64 0 z "},"Ν":{"ha":837,"x_min":100,"x_max":736,"o":"m 100 0 l 100 873 l 227 873 l 626 240 l 627 240 l 627 870 l 736 870 l 736 0 l 613 0 l 211 637 l 209 637 l 209 0 l 100 0 z "},"Ξ":{"ha":837,"x_min":42,"x_max":795,"o":"m 42 0 l 42 125 l 795 125 l 795 0 l 42 0 m 130 393 l 130 519 l 707 519 l 707 393 l 130 393 m 63 745 l 63 870 l 774 870 l 774 745 l 63 745 z "},"Ο":{"ha":837,"x_min":42,"x_max":795,"o":"m 42 435 q 144 767 42 644 q 418 891 246 891 q 693 767 591 891 q 795 435 795 644 q 693 103 795 227 q 418 -21 591 -21 q 144 103 246 -21 q 42 435 42 227 m 184 435 q 245 172 184 264 q 418 79 306 79 q 592 172 531 79 q 653 435 653 264 q 592 698 653 606 q 418 791 531 791 q 245 698 306 791 q 184 435 184 606 z "},"Π":{"ha":837,"x_min":100,"x_max":736,"o":"m 100 0 l 100 870 l 736 870 l 736 0 l 602 0 l 602 770 l 234 770 l 234 0 l 100 0 z "},"Ρ":{"ha":837,"x_min":155,"x_max":785,"o":"m 155 0 l 155 870 l 437 870 q 653 843 589 870 q 785 623 785 786 q 679 408 785 486 q 386 330 572 330 l 288 330 l 288 0 l 155 0 m 288 431 l 372 431 q 643 621 643 431 q 592 735 643 701 q 421 770 541 770 l 288 770 l 288 431 z "},"Σ":{"ha":837,"x_min":48,"x_max":793,"o":"m 48 0 l 48 117 l 434 437 l 81 770 l 81 870 l 772 870 l 772 770 l 267 770 l 608 456 l 191 117 l 793 117 l 793 0 l 48 0 z "},"Τ":{"ha":837,"x_min":17,"x_max":820,"o":"m 351 0 l 351 770 l 17 770 l 17 870 l 820 870 l 820 770 l 486 770 l 486 0 l 351 0 z "},"Υ":{"ha":837,"x_min":8,"x_max":828,"o":"m 342 0 l 342 258 q 200 665 342 515 q 8 753 116 753 l 8 870 q 174 843 110 870 q 298 748 238 817 q 428 503 401 632 q 828 870 582 836 l 828 770 q 580 573 687 738 q 476 258 476 414 l 476 0 l 342 0 z "},"Φ":{"ha":837,"x_min":15,"x_max":823,"o":"m 352 0 l 352 136 q 107 217 199 136 q 15 435 15 299 q 107 653 15 571 q 352 734 199 734 l 352 870 l 486 870 l 486 734 q 731 653 639 734 q 823 435 823 571 q 731 217 823 299 q 486 136 639 136 l 486 0 l 352 0 m 352 237 l 352 634 q 149 435 149 634 q 352 237 149 237 m 486 237 q 689 435 689 237 q 486 634 689 634 l 486 237 z "},"Χ":{"ha":837,"x_min":7,"x_max":827,"o":"m 7 0 l 349 443 l 37 870 l 195 870 l 430 548 l 679 870 l 809 870 l 493 462 l 827 0 l 668 0 l 411 354 l 138 0 l 7 0 z "},"Ψ":{"ha":837,"x_min":8,"x_max":828,"o":"m 485 0 l 351 0 l 351 355 q 191 418 243 370 q 113 578 138 467 l 101 633 l 90 682 q 64 752 78 735 q 18 770 50 770 l 8 770 l 8 870 l 20 870 q 151 832 114 870 q 214 668 187 794 l 225 618 q 351 456 258 467 l 351 870 l 485 870 l 485 456 q 611 618 578 467 l 622 668 q 686 832 650 795 q 817 870 722 870 l 828 870 l 828 770 l 819 770 q 772 752 787 770 q 747 682 758 735 l 735 633 l 723 578 q 646 418 699 467 q 485 355 593 370 l 485 0 z "},"Ω":{"ha":837,"x_min":33,"x_max":803,"o":"m 355 100 l 355 0 l 33 0 l 33 100 l 245 100 q 87 308 133 216 q 41 509 41 399 q 144 787 41 683 q 418 891 246 891 q 692 787 590 891 q 795 509 795 683 q 750 308 795 399 q 592 100 705 217 l 803 100 l 803 0 l 481 0 l 481 100 q 617 296 581 215 q 652 491 652 376 q 590 711 652 631 q 418 791 528 791 q 247 711 309 791 q 184 494 184 631 q 219 296 184 377 q 355 100 254 216 z "},"Ϊ":{"ha":837,"x_min":117,"x_max":720,"o":"m 117 0 l 117 100 l 351 100 l 351 770 l 117 770 l 117 870 l 720 870 l 720 770 l 486 770 l 486 100 l 720 100 l 720 0 l 117 0 m 193 979 l 193 1096 l 310 1096 l 310 979 l 193 979 m 527 979 l 527 1096 l 644 1096 l 644 979 l 527 979 z "},"Ϋ":{"ha":837,"x_min":8,"x_max":828,"o":"m 342 0 l 342 258 q 200 665 342 515 q 8 753 116 753 l 8 870 q 174 843 110 870 q 298 748 238 817 q 428 503 401 632 q 828 870 582 836 l 828 770 q 580 573 687 738 q 476 258 476 414 l 476 0 l 342 0 m 202 979 l 202 1096 l 319 1096 l 319 979 l 202 979 m 536 979 l 536 1096 l 654 1096 l 654 979 l 536 979 z "},"ά":{"ha":837,"x_min":63,"x_max":824,"o":"m 591 418 q 656 736 656 593 l 799 736 q 626 321 768 525 q 824 0 734 119 l 669 0 q 614 100 650 31 l 573 179 q 555 219 570 185 q 422 36 484 89 q 279 -17 360 -17 q 120 70 178 -17 q 63 311 63 157 q 143 627 63 500 q 343 753 223 753 q 460 702 418 753 q 572 467 501 650 l 591 418 m 509 302 l 478 382 l 444 477 q 381 610 406 573 q 325 648 355 646 q 240 552 275 652 q 205 307 205 452 q 300 83 205 83 q 402 142 346 83 q 509 302 458 201 m 383 870 l 366 1088 l 500 1088 l 484 870 l 383 870 z "},"έ":{"ha":837,"x_min":102,"x_max":726,"o":"m 726 128 l 726 24 q 488 -17 614 -17 q 202 84 301 -17 q 102 374 102 185 q 190 642 102 542 q 314 728 243 703 q 502 753 385 753 q 718 728 616 753 l 718 619 q 505 652 594 652 q 243 435 260 652 l 676 435 l 676 334 l 243 334 q 318 143 253 203 q 515 83 382 83 q 726 128 624 83 m 426 870 l 409 1088 l 543 1088 l 526 870 l 426 870 z "},"ή":{"ha":837,"x_min":79,"x_max":718,"o":"m 123 0 l 123 511 q 79 736 123 634 l 228 736 q 257 597 246 677 q 515 753 376 753 q 668 686 618 753 q 718 481 718 619 l 718 -268 l 584 -268 l 584 465 q 475 627 584 627 q 257 481 353 627 l 257 0 l 123 0 m 382 870 l 365 1088 l 498 1088 l 482 870 l 382 870 z "},"ί":{"ha":837,"x_min":276,"x_max":703,"o":"m 703 18 q 516 -17 610 -17 q 328 43 380 -17 q 276 259 276 102 l 276 736 l 410 736 l 410 272 q 432 117 410 151 q 537 83 455 83 q 703 119 611 83 l 703 18 m 293 870 l 276 1088 l 410 1088 l 393 870 l 293 870 z "},"ΰ":{"ha":837,"x_min":121,"x_max":741,"o":"m 121 736 l 255 736 l 255 368 q 294 141 255 191 q 420 83 338 83 q 570 160 513 83 q 628 359 628 236 q 598 550 628 442 q 524 736 568 658 l 661 736 q 741 360 741 555 q 651 88 741 193 q 417 -17 561 -17 q 198 66 284 -17 q 137 167 153 111 q 121 340 121 223 l 121 736 m 149 870 l 149 987 l 266 987 l 266 870 l 149 870 m 366 870 l 349 1088 l 483 1088 l 467 870 l 366 870 m 567 870 l 567 987 l 684 987 l 684 870 l 567 870 z "},"α":{"ha":837,"x_min":63,"x_max":824,"o":"m 591 418 q 656 736 656 593 l 799 736 q 626 321 768 525 q 824 0 734 119 l 669 0 q 614 100 650 31 l 573 179 q 555 219 570 185 q 422 36 484 89 q 279 -17 360 -17 q 120 70 178 -17 q 63 311 63 157 q 143 627 63 500 q 343 753 223 753 q 460 702 418 753 q 572 467 501 650 l 591 418 m 509 302 l 478 382 l 444 477 q 381 610 406 573 q 325 648 355 646 q 240 552 275 652 q 205 307 205 452 q 300 83 205 83 q 402 142 346 83 q 509 302 458 201 z "},"β":{"ha":837,"x_min":134,"x_max":770,"o":"m 134 -268 l 134 715 q 213 989 134 891 q 434 1088 292 1088 q 623 1027 551 1088 q 694 866 694 966 q 511 596 694 692 q 699 476 629 559 q 770 291 770 393 q 676 70 770 156 q 437 -17 583 -17 q 267 12 344 -17 l 267 -268 l 134 -268 m 317 619 l 342 619 q 495 689 430 619 q 560 855 560 760 q 524 951 560 916 q 425 987 487 987 q 267 736 267 987 l 267 127 l 267 127 l 292 117 q 435 83 363 83 q 577 142 519 83 q 635 286 635 201 q 556 455 635 391 q 344 519 476 519 l 317 519 l 317 619 z "},"γ":{"ha":837,"x_min":8,"x_max":828,"o":"m 351 72 q 214 382 331 155 q 8 736 96 610 l 162 736 q 427 230 288 546 q 644 633 495 380 l 696 721 l 705 736 l 828 736 q 741 595 795 690 l 648 432 q 470 84 532 233 q 495 -75 495 13 q 453 -268 495 -161 l 351 -268 l 344 -245 q 315 -101 315 -154 q 351 72 315 -45 z "},"δ":{"ha":837,"x_min":83,"x_max":753,"o":"m 340 663 q 163 783 217 727 q 109 902 109 840 q 192 1039 109 989 q 425 1088 276 1088 q 598 1068 519 1088 l 598 957 q 410 987 511 987 q 288 967 334 987 q 242 913 242 947 q 362 793 242 863 l 426 756 l 499 711 q 693 542 633 631 q 753 335 753 454 q 659 82 753 181 q 418 -17 565 -17 q 179 80 274 -17 q 83 323 83 176 q 340 663 83 563 m 440 597 q 226 320 226 523 q 282 151 226 219 q 422 83 338 83 q 557 154 503 83 q 610 331 610 225 q 573 480 610 422 q 440 597 536 538 z "},"ε":{"ha":837,"x_min":102,"x_max":726,"o":"m 726 128 l 726 24 q 488 -17 614 -17 q 202 84 301 -17 q 102 374 102 185 q 190 642 102 542 q 314 728 243 703 q 502 753 385 753 q 718 728 616 753 l 718 619 q 505 652 594 652 q 243 435 260 652 l 676 435 l 676 334 l 243 334 q 318 143 253 203 q 515 83 382 83 q 726 128 624 83 z "},"ζ":{"ha":837,"x_min":21,"x_max":829,"o":"m 444 -279 l 444 -168 q 568 -184 527 -184 q 720 -79 720 -184 q 689 -15 720 -29 q 555 0 659 0 l 504 0 q 219 84 313 0 q 126 340 126 168 q 180 588 126 455 q 321 816 235 720 q 268 813 284 813 q 21 861 152 813 l 21 979 q 357 899 176 899 l 404 899 q 582 1039 501 998 q 773 1088 663 1080 l 806 996 q 444 816 649 846 q 315 579 362 705 q 268 347 268 453 q 328 171 268 224 q 526 117 387 117 l 557 117 q 765 75 702 117 q 829 -66 829 32 q 530 -285 829 -285 q 444 -279 503 -285 z "},"η":{"ha":837,"x_min":79,"x_max":718,"o":"m 123 0 l 123 511 q 79 736 123 634 l 228 736 q 257 597 246 677 q 515 753 376 753 q 668 686 618 753 q 718 481 718 619 l 718 -268 l 584 -268 l 584 465 q 475 627 584 627 q 257 481 353 627 l 257 0 l 123 0 z "},"θ":{"ha":837,"x_min":83,"x_max":753,"o":"m 83 526 q 169 944 83 801 q 418 1088 254 1088 q 667 945 581 1088 q 753 536 753 803 q 666 125 753 268 q 418 -17 580 -17 q 169 122 255 -17 q 83 526 83 262 m 226 594 l 610 594 q 557 878 610 768 q 418 987 503 987 q 279 878 333 987 q 226 594 226 768 m 610 494 l 226 494 q 278 195 226 306 q 417 83 330 83 q 557 197 503 83 q 610 494 610 311 z "},"ι":{"ha":837,"x_min":276,"x_max":703,"o":"m 703 18 q 516 -17 610 -17 q 328 43 380 -17 q 276 259 276 102 l 276 736 l 410 736 l 410 272 q 432 117 410 151 q 537 83 455 83 q 703 119 611 83 l 703 18 z "},"κ":{"ha":837,"x_min":134,"x_max":799,"o":"m 134 0 l 134 736 l 267 736 l 267 376 l 339 454 q 574 688 493 625 q 708 736 633 736 l 724 736 l 724 616 q 699 618 707 618 q 533 511 640 618 l 461 437 l 415 391 l 799 0 l 638 0 l 267 376 l 267 0 l 134 0 z "},"λ":{"ha":837,"x_min":37,"x_max":808,"o":"m 345 668 l 277 824 q 208 927 243 901 q 101 954 172 954 l 81 954 l 81 1071 l 106 1071 q 293 1031 237 1071 q 408 858 349 992 l 649 307 q 785 39 715 158 l 808 0 l 658 0 q 532 243 589 115 l 407 526 l 165 0 l 37 0 l 345 668 z "},"μ":{"ha":837,"x_min":123,"x_max":762,"o":"m 123 -284 l 123 736 l 257 736 l 257 361 q 270 231 257 272 q 318 157 282 189 q 429 113 366 113 q 588 258 514 113 l 588 736 l 722 736 l 722 227 q 762 0 722 80 l 616 0 q 591 117 602 39 q 588 138 590 124 q 516 18 553 52 q 422 -17 479 -17 q 335 4 372 -17 q 257 81 299 26 l 257 71 l 257 -284 l 123 -284 z "},"ν":{"ha":837,"x_min":29,"x_max":770,"o":"m 357 0 l 347 26 l 283 180 q 203 369 233 302 l 115 562 q 29 736 64 675 l 175 736 q 188 709 186 711 l 251 578 q 433 161 330 412 l 445 132 q 588 420 531 277 q 644 633 644 562 q 627 736 644 693 l 759 736 q 770 658 770 703 q 515 43 770 503 l 491 0 l 357 0 z "},"ξ":{"ha":837,"x_min":8,"x_max":795,"o":"m 380 -278 l 380 -169 q 521 -184 460 -184 q 690 -86 690 -184 q 538 0 690 0 l 467 0 q 197 80 285 0 q 109 273 109 160 q 174 445 109 367 q 352 568 239 524 q 218 664 269 600 q 167 800 167 728 q 217 929 167 860 q 8 975 121 929 l 8 1084 q 297 1017 122 1029 l 328 1015 q 581 1088 450 1088 q 677 1079 627 1088 l 698 1015 q 399 928 580 928 l 347 929 q 301 811 301 876 q 380 660 301 717 q 589 602 459 602 l 677 602 l 677 502 l 585 502 q 435 490 484 502 q 336 441 387 478 q 251 279 251 376 q 306 160 251 202 q 460 117 360 117 l 527 117 q 730 72 665 117 q 795 -71 795 26 q 711 -227 795 -169 q 484 -284 627 -284 q 422 -281 461 -284 l 380 -278 z "},"ο":{"ha":837,"x_min":71,"x_max":766,"o":"m 418 -17 q 164 86 256 -17 q 71 368 71 189 q 164 650 71 547 q 418 753 257 753 q 673 650 581 753 q 766 368 766 547 q 673 86 766 189 q 418 -17 581 -17 m 418 83 q 569 159 515 83 q 623 368 623 234 q 569 577 623 502 q 418 652 515 652 q 268 577 322 652 q 214 368 214 502 q 268 159 214 234 q 418 83 322 83 z "},"ρ":{"ha":837,"x_min":121,"x_max":758,"o":"m 121 -268 l 121 283 q 224 655 121 544 q 458 753 314 753 q 678 669 599 753 q 758 435 758 585 q 651 124 758 248 q 382 0 545 0 q 255 24 321 0 l 255 -268 l 121 -268 m 255 153 q 398 100 319 100 q 559 189 495 100 q 624 412 624 278 q 574 586 624 520 q 441 652 524 652 q 304 572 353 652 q 255 342 255 491 l 255 153 z "},"ς":{"ha":837,"x_min":90,"x_max":789,"o":"m 378 -172 q 505 -184 443 -184 q 684 -82 684 -184 q 522 0 684 0 l 454 0 q 289 21 350 0 q 176 96 229 42 q 90 317 90 182 q 228 628 90 504 q 571 753 365 753 q 713 738 652 753 l 713 634 q 566 653 643 653 q 316 569 404 653 q 228 328 228 484 q 286 167 228 217 q 473 117 345 117 l 521 117 q 789 -71 789 117 q 706 -227 789 -170 q 479 -285 623 -285 q 378 -276 430 -285 l 378 -172 z "},"σ":{"ha":837,"x_min":42,"x_max":837,"o":"m 488 736 l 837 736 l 837 619 l 638 619 q 703 366 703 515 q 615 85 703 187 q 373 -17 528 -17 q 130 85 218 -17 q 42 368 42 187 q 130 650 42 548 q 372 753 218 753 q 488 736 424 753 m 373 83 q 561 368 561 83 q 373 652 561 652 q 184 368 184 652 q 373 83 184 83 z "},"τ":{"ha":837,"x_min":38,"x_max":791,"o":"m 394 0 q 357 119 366 62 q 348 290 348 176 l 348 619 l 208 619 q 38 585 115 619 l 38 709 q 217 736 110 736 l 791 736 l 791 619 l 481 619 l 481 215 q 535 0 481 82 l 394 0 z "},"υ":{"ha":837,"x_min":121,"x_max":741,"o":"m 121 736 l 255 736 l 255 368 q 294 141 255 191 q 420 83 338 83 q 570 160 513 83 q 628 359 628 236 q 598 550 628 442 q 524 736 568 658 l 661 736 q 741 360 741 555 q 651 88 741 193 q 417 -17 561 -17 q 198 66 284 -17 q 137 167 153 111 q 121 340 121 223 l 121 736 z "},"φ":{"ha":837,"x_min":33,"x_max":803,"o":"m 355 -268 l 355 22 q 120 115 207 22 q 33 366 33 208 q 120 618 33 526 q 355 711 206 711 l 355 1071 l 481 1071 l 481 711 q 716 618 630 711 q 803 366 803 526 q 716 115 803 208 q 481 22 629 22 l 481 -268 l 355 -268 m 355 609 q 159 364 159 596 q 212 188 159 253 q 355 123 264 123 l 355 609 m 481 609 l 481 123 q 625 188 572 123 q 677 364 677 253 q 481 609 677 596 z "},"χ":{"ha":837,"x_min":34,"x_max":806,"o":"m 342 246 l 199 490 q 168 543 174 532 l 121 618 l 67 707 q 44 736 61 715 l 199 736 q 329 535 265 646 l 368 467 l 421 376 l 638 736 l 754 736 l 479 277 l 652 -22 l 697 -96 l 744 -172 q 806 -268 766 -209 l 652 -268 l 643 -254 q 519 -55 571 -142 l 401 146 l 151 -268 l 34 -268 l 342 246 z "},"ψ":{"ha":837,"x_min":30,"x_max":800,"o":"m 360 -268 l 360 0 q 131 117 198 17 q 63 438 63 216 l 63 542 q 30 736 63 659 l 157 736 q 161 720 160 724 l 178 669 q 189 551 189 637 l 189 447 q 255 159 189 235 q 360 100 302 104 l 360 870 l 486 870 l 486 100 q 674 442 674 124 q 621 736 674 620 l 745 736 q 800 426 800 598 q 715 121 800 236 q 486 0 631 7 l 486 -268 l 360 -268 z "},"ω":{"ha":837,"x_min":25,"x_max":812,"o":"m 421 188 q 243 -17 366 -17 q 85 83 146 -17 q 25 345 25 183 q 52 555 25 448 q 123 736 79 662 l 260 736 q 180 558 210 665 q 151 342 151 451 q 180 164 151 234 q 257 92 210 94 q 370 316 326 89 q 338 486 338 399 q 370 665 338 581 l 475 665 q 507 486 507 581 q 475 316 507 399 q 587 92 513 92 q 658 163 631 92 q 686 345 686 233 q 585 736 686 593 l 721 736 q 812 372 812 602 q 750 92 812 201 q 593 -17 689 -17 q 421 188 459 -17 z "},"ϊ":{"ha":837,"x_min":151,"x_max":703,"o":"m 703 18 q 516 -17 610 -17 q 328 43 380 -17 q 276 259 276 102 l 276 736 l 410 736 l 410 272 q 432 117 410 151 q 537 83 455 83 q 703 119 611 83 l 703 18 m 151 870 l 151 987 l 268 987 l 268 870 l 151 870 m 485 870 l 485 987 l 602 987 l 602 870 l 485 870 z "},"ϋ":{"ha":837,"x_min":121,"x_max":741,"o":"m 121 736 l 255 736 l 255 368 q 294 141 255 191 q 420 83 338 83 q 570 160 513 83 q 628 359 628 236 q 598 550 628 442 q 524 736 568 658 l 661 736 q 741 360 741 555 q 651 88 741 193 q 417 -17 561 -17 q 198 66 284 -17 q 137 167 153 111 q 121 340 121 223 l 121 736 m 204 870 l 204 987 l 321 987 l 321 870 l 204 870 m 538 870 l 538 987 l 656 987 l 656 870 l 538 870 z "},"ό":{"ha":837,"x_min":71,"x_max":766,"o":"m 418 -17 q 164 86 256 -17 q 71 368 71 189 q 164 650 71 547 q 418 753 257 753 q 673 650 581 753 q 766 368 766 547 q 673 86 766 189 q 418 -17 581 -17 m 418 83 q 569 159 515 83 q 623 368 623 234 q 569 577 623 502 q 418 652 515 652 q 268 577 322 652 q 214 368 214 502 q 268 159 214 234 q 418 83 322 83 m 368 870 l 351 1088 l 485 1088 l 469 870 l 368 870 z "},"ύ":{"ha":837,"x_min":121,"x_max":741,"o":"m 121 736 l 255 736 l 255 368 q 294 141 255 191 q 420 83 338 83 q 570 160 513 83 q 628 359 628 236 q 598 550 628 442 q 524 736 568 658 l 661 736 q 741 360 741 555 q 651 88 741 193 q 417 -17 561 -17 q 198 66 284 -17 q 137 167 153 111 q 121 340 121 223 l 121 736 m 347 870 l 330 1088 l 463 1088 l 447 870 l 347 870 z "},"ώ":{"ha":837,"x_min":25,"x_max":812,"o":"m 421 188 q 243 -17 366 -17 q 85 83 146 -17 q 25 345 25 183 q 52 555 25 448 q 123 736 79 662 l 260 736 q 180 558 210 665 q 151 342 151 451 q 180 164 151 234 q 257 92 210 94 q 370 316 326 89 q 338 486 338 399 q 370 665 338 581 l 475 665 q 507 486 507 581 q 475 316 507 399 q 587 92 513 92 q 658 163 631 92 q 686 345 686 233 q 585 736 686 593 l 721 736 q 812 372 812 602 q 750 92 812 201 q 593 -17 689 -17 q 421 188 459 -17 m 373 870 l 356 1088 l 490 1088 l 473 870 l 373 870 z "},"Ё":{"ha":837,"x_min":146,"x_max":766,"o":"m 146 0 l 146 870 l 734 870 l 734 770 l 280 770 l 280 506 l 665 506 l 665 406 l 280 406 l 280 100 l 766 100 l 766 0 l 146 0 m 230 979 l 230 1096 l 347 1096 l 347 979 l 230 979 m 564 979 l 564 1096 l 682 1096 l 682 979 l 564 979 z "},"Ђ":{"ha":837,"x_min":8,"x_max":812,"o":"m 360 484 q 569 574 453 574 q 745 497 678 574 q 812 294 812 420 q 739 76 812 159 q 551 -8 667 -8 q 477 0 511 -8 l 477 98 q 527 92 497 92 q 670 278 670 92 q 536 452 670 452 q 360 363 439 452 l 360 0 l 226 0 l 226 770 l 8 770 l 8 870 l 586 870 l 586 770 l 360 770 l 360 484 z "},"Ѓ":{"ha":837,"x_min":168,"x_max":787,"o":"m 168 0 l 168 870 l 787 870 l 787 770 l 301 770 l 301 0 l 168 0 m 364 945 l 515 1096 l 699 1096 l 473 945 l 364 945 z "},"Є":{"ha":837,"x_min":71,"x_max":779,"o":"m 779 18 q 536 -21 660 -21 q 189 98 307 -21 q 71 449 71 218 q 190 775 71 660 q 527 891 309 891 q 766 852 648 891 l 766 742 q 540 791 633 791 q 319 714 406 791 q 219 508 232 638 l 602 508 l 602 408 l 219 408 q 308 173 219 262 q 541 83 397 83 q 779 141 661 83 l 779 18 z "},"Ѕ":{"ha":837,"x_min":111,"x_max":758,"o":"m 685 850 l 685 734 q 423 791 538 791 q 242 669 242 791 q 276 589 242 619 q 401 527 310 559 l 487 497 l 568 469 q 758 244 758 403 q 661 51 758 123 q 402 -21 564 -21 q 111 27 290 -21 l 111 159 q 406 79 289 79 q 564 118 505 79 q 623 223 623 157 q 588 302 623 273 q 444 372 553 332 l 355 404 q 169 506 221 454 q 117 645 117 558 q 197 827 117 762 q 421 891 277 891 q 685 850 538 891 z "},"І":{"ha":837,"x_min":117,"x_max":720,"o":"m 117 0 l 117 100 l 351 100 l 351 770 l 117 770 l 117 870 l 720 870 l 720 770 l 486 770 l 486 100 l 720 100 l 720 0 l 117 0 z "},"Ї":{"ha":837,"x_min":117,"x_max":720,"o":"m 117 0 l 117 100 l 351 100 l 351 770 l 117 770 l 117 870 l 720 870 l 720 770 l 486 770 l 486 100 l 720 100 l 720 0 l 117 0 m 193 979 l 193 1096 l 310 1096 l 310 979 l 193 979 m 527 979 l 527 1096 l 644 1096 l 644 979 l 527 979 z "},"Ј":{"ha":837,"x_min":134,"x_max":631,"o":"m 134 12 l 134 125 l 178 110 q 326 79 271 79 q 459 129 421 79 q 498 304 498 178 l 498 770 l 197 770 l 197 870 l 631 870 l 631 375 q 616 178 631 243 q 556 65 600 114 q 335 -21 479 -21 q 134 12 257 -21 z "},"Љ":{"ha":837,"x_min":0,"x_max":820,"o":"m 0 0 l 0 100 l 15 100 q 95 131 76 100 q 114 262 114 162 l 115 364 l 115 526 l 115 870 l 517 870 l 517 519 l 526 519 q 820 276 820 519 q 739 74 820 149 q 517 0 657 0 l 391 0 l 391 770 l 240 770 l 240 595 q 232 195 240 286 q 194 64 224 105 q 0 0 145 0 m 517 100 l 524 100 q 698 258 698 100 q 526 418 698 418 l 517 418 l 517 100 z "},"Њ":{"ha":837,"x_min":75,"x_max":812,"o":"m 508 870 l 508 519 l 518 519 q 812 276 812 519 q 730 74 812 149 q 508 0 648 0 l 374 0 l 374 418 l 210 418 l 210 0 l 75 0 l 75 870 l 210 870 l 210 519 l 374 519 l 374 870 l 508 870 m 508 100 l 516 100 q 689 258 689 100 q 517 418 689 418 l 508 418 l 508 100 z "},"Ћ":{"ha":837,"x_min":4,"x_max":795,"o":"m 343 0 l 209 0 l 209 770 l 4 770 l 4 870 l 548 870 l 548 770 l 343 770 l 343 480 q 591 577 479 577 q 795 345 795 577 l 795 0 l 661 0 l 661 309 q 634 425 661 390 q 545 459 608 459 q 343 364 456 459 l 343 0 z "},"Ќ":{"ha":837,"x_min":139,"x_max":795,"o":"m 273 397 l 273 0 l 139 0 l 139 870 l 273 870 l 273 498 q 375 514 346 498 q 448 597 405 531 l 479 642 l 517 707 q 621 842 582 813 q 739 870 659 870 l 754 870 l 754 770 q 689 753 711 770 q 633 680 666 736 q 608 637 616 650 l 587 604 l 562 562 q 436 458 514 486 q 532 412 498 440 q 605 317 566 384 l 644 251 l 687 180 l 725 115 l 779 27 q 795 0 783 19 l 644 0 q 629 21 634 14 l 581 102 l 522 199 q 426 345 450 317 q 355 397 402 373 l 273 397 m 317 945 l 468 1096 l 652 1096 l 426 945 l 317 945 z "},"Ў":{"ha":837,"x_min":25,"x_max":837,"o":"m 334 252 l 25 870 l 184 870 l 422 393 l 708 870 l 837 870 l 425 174 q 296 31 357 61 q 77 0 235 0 l 68 0 l 68 100 l 79 100 q 228 121 183 100 q 309 207 273 142 l 334 252 m 218 1096 l 302 1096 q 444 1029 342 1029 q 587 1096 546 1029 l 670 1096 q 444 945 621 945 q 218 1096 268 945 z "},"Џ":{"ha":837,"x_min":83,"x_max":753,"o":"m 83 0 l 83 870 l 218 870 l 218 100 l 619 100 l 619 870 l 753 870 l 753 0 l 485 0 l 485 -201 l 351 -201 l 351 0 l 83 0 z "},"А":{"ha":837,"x_min":8,"x_max":828,"o":"m 8 0 l 351 870 l 485 870 l 828 0 l 686 0 l 604 218 l 207 218 l 123 0 l 8 0 m 247 318 l 564 318 l 405 734 l 247 318 z "},"Б":{"ha":837,"x_min":142,"x_max":758,"o":"m 142 0 l 142 870 l 707 870 l 707 770 l 276 770 l 276 506 l 366 506 q 647 462 569 506 q 758 265 758 399 q 627 47 758 123 q 329 0 547 0 l 142 0 m 276 100 l 339 100 q 551 136 487 100 q 615 254 615 172 q 556 371 615 336 q 359 406 497 406 l 276 406 l 276 100 z "},"В":{"ha":837,"x_min":125,"x_max":754,"o":"m 125 0 l 125 870 l 406 870 q 711 668 711 870 q 659 535 711 591 q 512 455 606 479 q 754 225 754 406 q 683 64 754 122 q 578 13 637 25 q 388 0 519 0 l 125 0 m 259 494 l 306 494 q 576 644 576 494 q 524 744 576 718 q 321 770 471 770 l 259 770 l 259 494 m 259 100 l 380 100 q 562 127 512 100 q 612 227 612 155 q 530 361 612 311 q 308 410 448 410 l 259 410 l 259 100 z "},"Г":{"ha":837,"x_min":168,"x_max":787,"o":"m 168 0 l 168 870 l 787 870 l 787 770 l 301 770 l 301 0 l 168 0 z "},"Д":{"ha":837,"x_min":19,"x_max":800,"o":"m 19 -201 l 19 100 l 86 100 q 197 379 165 227 q 229 777 229 531 l 229 870 l 699 870 l 699 100 l 800 100 l 800 -201 l 665 -201 l 665 0 l 153 0 l 153 -201 l 19 -201 m 565 100 l 565 770 l 362 770 l 362 749 q 235 100 362 332 l 565 100 z "},"Е":{"ha":837,"x_min":146,"x_max":766,"o":"m 146 0 l 146 870 l 734 870 l 734 770 l 280 770 l 280 506 l 665 506 l 665 406 l 280 406 l 280 100 l 766 100 l 766 0 l 146 0 z "},"Ж":{"ha":837,"x_min":4,"x_max":833,"o":"m 360 0 l 360 406 l 342 406 q 237 199 292 318 l 182 83 l 150 17 q 142 0 147 12 l 4 0 q 62 113 40 68 l 92 177 l 122 239 l 160 319 q 294 458 208 416 q 220 499 243 473 q 158 604 197 524 l 132 658 l 111 702 q 74 759 88 748 q 24 770 60 770 l 13 770 l 13 870 l 23 870 l 31 870 q 147 841 111 870 q 236 702 183 811 l 258 654 l 279 611 q 360 496 332 503 l 360 870 l 477 870 l 477 496 q 557 611 505 503 l 578 654 l 601 702 q 689 841 654 811 q 806 870 725 870 l 812 870 l 824 870 l 824 770 l 812 770 q 763 759 777 770 q 726 702 749 748 l 704 658 l 678 604 q 617 499 640 524 q 543 458 593 473 q 677 319 629 416 l 715 239 l 745 177 l 775 113 q 833 0 797 68 l 694 0 q 687 17 690 12 l 654 83 l 600 199 q 494 406 545 317 l 477 406 l 477 0 l 360 0 z "},"З":{"ha":837,"x_min":65,"x_max":714,"o":"m 65 12 l 65 132 q 318 79 203 79 q 505 122 439 79 q 572 241 572 164 q 262 412 572 412 l 212 412 l 212 513 l 261 513 q 480 546 414 513 q 547 656 547 579 q 332 791 547 791 q 82 745 191 791 l 82 852 q 362 891 210 891 q 684 674 684 891 q 519 474 684 536 q 663 390 612 451 q 714 243 714 330 q 614 48 714 118 q 335 -21 515 -21 q 65 12 191 -21 z "},"И":{"ha":837,"x_min":100,"x_max":736,"o":"m 736 0 l 619 0 l 619 628 l 220 0 l 100 0 l 100 870 l 218 870 l 218 243 l 616 870 l 736 870 l 736 0 z "},"Й":{"ha":837,"x_min":100,"x_max":736,"o":"m 736 0 l 619 0 l 619 628 l 220 0 l 100 0 l 100 870 l 218 870 l 218 243 l 616 870 l 736 870 l 736 0 m 202 1096 l 286 1096 q 428 1029 326 1029 q 570 1096 530 1029 l 654 1096 q 428 945 604 945 q 202 1096 252 945 z "},"К":{"ha":837,"x_min":139,"x_max":795,"o":"m 273 397 l 273 0 l 139 0 l 139 870 l 273 870 l 273 498 q 375 514 346 498 q 448 597 405 531 l 479 642 l 517 707 q 621 842 582 813 q 739 870 659 870 l 754 870 l 754 770 q 689 753 711 770 q 633 680 666 736 q 608 637 616 650 l 587 604 l 562 562 q 436 458 514 486 q 532 412 498 440 q 605 317 566 384 l 644 251 l 687 180 l 725 115 l 779 27 q 795 0 783 19 l 644 0 q 629 21 634 14 l 581 102 l 522 199 q 426 345 450 317 q 355 397 402 373 l 273 397 z "},"Л":{"ha":837,"x_min":17,"x_max":743,"o":"m 17 0 l 17 100 q 176 161 132 100 q 220 378 220 222 l 224 509 l 226 618 l 226 870 l 743 870 l 743 0 l 608 0 l 608 770 l 359 770 l 359 687 q 344 301 359 432 q 293 115 329 170 q 17 0 217 0 z "},"М":{"ha":837,"x_min":64,"x_max":772,"o":"m 64 0 l 64 870 l 224 870 l 416 334 l 417 334 l 605 870 l 772 870 l 772 0 l 663 0 l 663 747 l 662 747 l 466 184 l 353 184 l 158 731 l 157 731 l 157 0 l 64 0 z "},"Н":{"ha":837,"x_min":100,"x_max":736,"o":"m 100 0 l 100 870 l 234 870 l 234 490 l 602 490 l 602 870 l 736 870 l 736 0 l 602 0 l 602 389 l 234 389 l 234 0 l 100 0 z "},"О":{"ha":837,"x_min":42,"x_max":795,"o":"m 42 435 q 144 767 42 644 q 418 891 246 891 q 693 767 591 891 q 795 435 795 644 q 693 103 795 227 q 418 -21 591 -21 q 144 103 246 -21 q 42 435 42 227 m 184 435 q 245 172 184 264 q 418 79 306 79 q 592 172 531 79 q 653 435 653 264 q 592 698 653 606 q 418 791 531 791 q 245 698 306 791 q 184 435 184 606 z "},"П":{"ha":837,"x_min":100,"x_max":736,"o":"m 100 0 l 100 870 l 736 870 l 736 0 l 602 0 l 602 770 l 234 770 l 234 0 l 100 0 z "},"Р":{"ha":837,"x_min":155,"x_max":785,"o":"m 155 0 l 155 870 l 437 870 q 653 843 589 870 q 785 623 785 786 q 679 408 785 486 q 386 330 572 330 l 288 330 l 288 0 l 155 0 m 288 431 l 372 431 q 643 621 643 431 q 592 735 643 701 q 421 770 541 770 l 288 770 l 288 431 z "},"С":{"ha":837,"x_min":69,"x_max":783,"o":"m 783 27 q 530 -21 649 -21 q 196 103 323 -21 q 69 431 69 228 q 195 764 69 636 q 525 891 321 891 q 772 852 640 891 l 772 729 q 521 791 637 791 q 299 692 386 791 q 212 439 212 593 q 310 186 212 285 q 563 88 408 88 q 783 137 656 88 l 783 27 z "},"Т":{"ha":837,"x_min":17,"x_max":820,"o":"m 351 0 l 351 770 l 17 770 l 17 870 l 820 870 l 820 770 l 486 770 l 486 0 l 351 0 z "},"У":{"ha":837,"x_min":25,"x_max":837,"o":"m 334 252 l 25 870 l 184 870 l 422 393 l 708 870 l 837 870 l 425 174 q 296 31 357 61 q 77 0 235 0 l 68 0 l 68 100 l 79 100 q 228 121 183 100 q 309 207 273 142 l 334 252 z "},"Ф":{"ha":837,"x_min":15,"x_max":823,"o":"m 352 0 l 352 136 q 107 217 199 136 q 15 435 15 299 q 107 653 15 571 q 352 734 199 734 l 352 870 l 486 870 l 486 734 q 731 653 639 734 q 823 435 823 571 q 731 217 823 299 q 486 136 639 136 l 486 0 l 352 0 m 352 237 l 352 634 q 149 435 149 634 q 352 237 149 237 m 486 237 q 689 435 689 237 q 486 634 689 634 l 486 237 z "},"Х":{"ha":837,"x_min":7,"x_max":827,"o":"m 7 0 l 349 443 l 37 870 l 195 870 l 430 548 l 679 870 l 809 870 l 493 462 l 827 0 l 668 0 l 411 354 l 138 0 l 7 0 z "},"Ц":{"ha":837,"x_min":81,"x_max":814,"o":"m 81 0 l 81 870 l 216 870 l 216 100 l 579 100 l 579 870 l 713 870 l 713 100 l 814 100 l 814 -201 l 680 -201 l 680 0 l 81 0 z "},"Ч":{"ha":837,"x_min":98,"x_max":701,"o":"m 566 0 l 566 374 q 311 277 431 277 q 154 342 209 277 q 98 526 98 407 l 98 870 l 232 870 l 232 562 q 257 433 232 467 q 353 398 283 398 q 456 418 413 398 q 566 498 500 439 l 566 870 l 701 870 l 701 0 l 566 0 z "},"Ш":{"ha":837,"x_min":50,"x_max":787,"o":"m 787 0 l 50 0 l 50 870 l 172 870 l 172 100 l 359 100 l 359 870 l 477 870 l 477 100 l 665 100 l 665 870 l 787 870 l 787 0 z "},"Щ":{"ha":837,"x_min":50,"x_max":837,"o":"m 50 0 l 50 870 l 172 870 l 172 100 l 359 100 l 359 870 l 477 870 l 477 100 l 665 100 l 665 870 l 787 870 l 787 100 l 837 100 l 837 -201 l 703 -201 l 703 0 l 50 0 z "},"Ъ":{"ha":837,"x_min":13,"x_max":812,"o":"m 239 0 l 239 770 l 13 770 l 13 870 l 373 870 l 373 506 l 420 506 q 703 463 624 506 q 812 270 812 403 q 686 44 812 115 q 383 0 609 0 l 239 0 m 373 100 l 394 100 q 613 133 556 100 q 670 257 670 165 q 614 373 670 341 q 413 406 558 406 l 373 406 l 373 100 z "},"Ы":{"ha":837,"x_min":67,"x_max":770,"o":"m 201 100 l 240 100 q 413 262 413 100 q 241 422 413 422 l 201 422 l 201 100 m 770 0 l 636 0 l 636 870 l 770 870 l 770 0 m 67 870 l 201 870 l 201 523 l 242 523 l 267 524 q 462 457 389 524 q 536 281 536 391 q 448 74 536 147 q 201 0 359 0 l 67 0 l 67 870 z "},"Ь":{"ha":837,"x_min":155,"x_max":795,"o":"m 155 0 l 155 870 l 288 870 l 288 506 l 403 506 q 683 461 601 506 q 795 264 795 399 q 666 51 795 126 q 366 0 579 0 l 155 0 m 288 100 l 376 100 q 652 258 652 100 q 593 372 652 338 q 396 406 534 406 l 288 406 l 288 100 z "},"Э":{"ha":837,"x_min":58,"x_max":766,"o":"m 58 18 l 58 141 q 288 83 175 83 q 569 235 487 83 q 618 408 618 324 l 234 408 l 234 508 l 618 508 q 517 714 604 638 q 297 791 431 791 q 71 742 203 791 l 71 852 q 309 891 189 891 q 647 778 528 891 q 766 454 766 664 q 643 104 766 229 q 298 -21 520 -21 q 58 18 177 -21 z "},"Ю":{"ha":837,"x_min":29,"x_max":832,"o":"m 255 410 l 155 410 l 155 0 l 29 0 l 29 870 l 155 870 l 155 511 l 257 511 q 544 891 286 891 q 758 774 684 891 q 832 435 832 656 q 758 97 832 214 q 544 -21 684 -21 q 255 410 275 -21 m 544 79 q 690 435 690 79 q 655 705 690 620 q 544 791 620 791 q 433 705 468 791 q 397 435 397 619 q 433 165 397 250 q 544 79 468 79 z "},"Я":{"ha":837,"x_min":8,"x_max":719,"o":"m 585 360 l 490 360 q 408 269 457 327 l 336 184 q 262 92 298 138 l 212 24 q 193 0 208 20 l 8 0 q 76 77 49 45 l 121 132 l 149 165 l 169 191 l 208 239 q 297 345 274 323 q 362 386 321 367 q 191 463 252 401 q 129 620 129 524 q 227 814 129 747 q 495 870 307 870 l 719 870 l 719 0 l 585 0 l 585 360 m 585 770 l 496 770 q 322 736 372 770 q 271 618 271 702 q 532 460 271 460 l 585 460 l 585 770 z "},"а":{"ha":837,"x_min":92,"x_max":802,"o":"m 566 89 q 324 -13 445 -13 q 158 45 223 -13 q 92 191 92 102 q 194 375 92 305 q 463 445 296 445 l 545 445 l 545 508 q 511 619 545 586 q 396 652 476 652 q 156 587 280 652 l 156 702 q 423 753 298 753 q 622 697 564 753 q 680 505 680 642 l 680 197 q 694 106 680 130 q 747 82 708 82 q 789 89 760 82 l 802 9 q 700 -13 734 -13 q 566 89 601 -13 m 545 176 l 545 361 l 505 361 q 231 213 231 361 q 266 127 231 159 q 359 94 301 94 q 545 176 447 94 z "},"б":{"ha":837,"x_min":83,"x_max":766,"o":"m 217 574 q 486 736 320 736 q 689 637 612 736 q 766 374 766 538 q 671 91 766 199 q 422 -17 576 -17 q 83 478 83 -17 q 177 930 83 789 q 479 1071 271 1071 l 507 1071 q 686 1096 613 1071 l 686 988 q 523 970 595 970 l 507 970 q 296 885 359 970 q 217 574 233 799 m 218 481 l 218 458 q 429 83 218 83 q 571 160 519 83 q 624 366 624 237 q 450 615 624 615 q 218 481 327 615 z "},"в":{"ha":837,"x_min":127,"x_max":730,"o":"m 127 0 l 127 736 l 450 736 q 642 697 583 736 q 701 569 701 658 q 545 385 701 437 q 730 189 730 335 q 477 0 730 0 l 127 0 m 261 100 l 382 100 q 548 120 505 100 q 590 197 590 140 q 391 336 590 336 l 261 336 l 261 100 m 261 425 l 395 425 q 516 457 469 425 q 564 543 564 490 q 528 615 564 595 q 402 636 492 636 l 261 636 l 261 425 z "},"г":{"ha":837,"x_min":168,"x_max":770,"o":"m 168 0 l 168 736 l 770 736 l 770 636 l 301 636 l 301 0 l 168 0 z "},"д":{"ha":837,"x_min":35,"x_max":801,"o":"m 35 -168 l 35 100 l 104 100 q 216 350 183 219 q 248 678 248 481 l 248 736 l 667 736 l 667 100 l 801 100 l 801 -168 l 675 -168 l 675 0 l 161 0 l 161 -168 l 35 -168 m 533 100 l 533 636 l 372 636 l 372 620 q 247 100 372 335 l 533 100 z "},"е":{"ha":837,"x_min":96,"x_max":745,"o":"m 745 29 q 490 -17 606 -17 q 198 81 300 -17 q 96 360 96 178 q 194 642 96 532 q 443 753 292 753 q 668 661 595 753 q 740 376 740 570 l 740 334 l 238 334 q 508 83 253 83 q 745 135 616 83 l 745 29 m 242 434 l 597 434 l 597 453 q 431 652 597 652 q 301 595 351 652 q 242 434 252 537 z "},"ж":{"ha":837,"x_min":18,"x_max":819,"o":"m 356 736 l 481 736 l 481 406 q 516 417 505 406 q 543 467 528 429 l 562 508 l 578 547 l 593 585 q 664 706 631 675 q 758 736 696 736 l 766 736 l 766 636 l 759 636 q 689 555 722 636 q 675 522 682 536 l 663 492 q 622 414 639 434 q 563 373 604 393 q 671 275 629 355 l 698 223 l 733 156 q 764 98 749 127 q 819 0 795 39 l 682 0 l 672 18 q 641 78 645 71 l 600 161 q 554 245 595 170 q 509 330 532 286 l 481 330 l 481 0 l 356 0 l 356 330 l 328 330 q 283 245 307 289 q 238 161 244 174 l 196 78 q 165 18 193 71 l 155 0 l 18 0 q 73 98 41 37 l 104 156 l 139 223 l 166 275 q 274 373 209 355 q 216 414 233 393 q 174 492 199 434 l 162 522 q 149 555 157 534 q 78 636 116 636 l 71 636 l 71 736 l 79 736 q 174 706 140 736 q 245 585 208 675 l 260 547 l 275 508 l 294 467 q 321 417 310 429 q 356 406 333 406 l 356 736 z "},"з":{"ha":837,"x_min":127,"x_max":709,"o":"m 127 20 l 127 133 q 394 83 239 83 q 571 222 571 83 q 519 325 571 295 q 342 355 467 355 l 274 355 l 274 456 l 342 456 q 467 462 435 456 q 522 491 498 468 q 550 561 550 519 q 511 632 550 612 q 372 652 471 652 q 153 610 258 652 l 153 715 q 402 753 273 753 q 616 714 548 753 q 684 592 684 675 q 562 411 684 477 q 709 213 709 353 q 624 43 709 104 q 385 -17 538 -17 q 127 20 228 -17 z "},"и":{"ha":837,"x_min":111,"x_max":726,"o":"m 111 0 l 111 736 l 240 736 l 240 191 l 600 736 l 726 736 l 726 0 l 600 0 l 600 538 l 245 0 l 111 0 z "},"й":{"ha":837,"x_min":111,"x_max":726,"o":"m 111 0 l 111 736 l 240 736 l 240 191 l 600 736 l 726 736 l 726 0 l 600 0 l 600 538 l 245 0 l 111 0 m 192 1071 l 275 1071 q 418 970 297 970 q 560 1071 538 970 l 644 1071 q 572 925 633 979 q 418 870 510 870 q 264 925 326 870 q 192 1071 203 979 z "},"к":{"ha":837,"x_min":166,"x_max":745,"o":"m 300 314 l 300 0 l 166 0 l 166 736 l 300 736 l 300 414 l 329 415 q 419 436 393 415 q 486 542 445 456 l 500 573 q 588 706 549 675 q 710 736 627 736 l 710 636 q 650 617 670 636 q 598 531 631 599 l 585 504 l 568 467 q 471 370 538 405 q 555 320 527 351 q 633 197 584 290 l 660 145 q 745 0 707 55 l 597 0 q 554 81 578 38 l 517 145 q 400 314 447 271 l 300 314 z "},"л":{"ha":837,"x_min":29,"x_max":703,"o":"m 29 0 l 29 100 q 112 130 83 104 q 160 223 140 157 q 209 664 209 387 l 209 736 l 703 736 l 703 0 l 569 0 l 569 636 l 338 636 l 338 623 q 265 155 338 313 q 29 0 193 0 z "},"м":{"ha":837,"x_min":81,"x_max":755,"o":"m 81 0 l 81 736 l 229 736 l 420 161 l 600 736 l 755 736 l 755 0 l 629 0 l 629 587 l 460 50 l 345 50 l 186 528 l 186 0 l 81 0 z "},"н":{"ha":837,"x_min":121,"x_max":715,"o":"m 121 0 l 121 736 l 255 736 l 255 437 l 581 437 l 581 736 l 715 736 l 715 0 l 581 0 l 581 337 l 255 337 l 255 0 l 121 0 z "},"о":{"ha":837,"x_min":71,"x_max":766,"o":"m 418 -17 q 164 86 256 -17 q 71 368 71 189 q 164 650 71 547 q 418 753 257 753 q 673 650 581 753 q 766 368 766 547 q 673 86 766 189 q 418 -17 581 -17 m 418 83 q 569 159 515 83 q 623 368 623 234 q 569 577 623 502 q 418 652 515 652 q 268 577 322 652 q 214 368 214 502 q 268 159 214 234 q 418 83 322 83 z "},"п":{"ha":837,"x_min":134,"x_max":703,"o":"m 134 0 l 134 736 l 703 736 l 703 0 l 568 0 l 568 636 l 267 636 l 267 0 l 134 0 z "},"р":{"ha":837,"x_min":121,"x_max":766,"o":"m 121 -268 l 121 736 l 255 736 l 255 598 q 496 753 352 753 q 693 656 621 753 q 766 393 766 559 q 680 96 766 210 q 456 -17 595 -17 q 255 83 338 -17 l 255 -268 l 121 -268 m 255 184 q 438 83 348 83 q 575 161 526 83 q 623 378 623 239 q 468 639 623 639 q 255 498 355 639 l 255 184 z "},"с":{"ha":837,"x_min":111,"x_max":748,"o":"m 748 24 q 511 -17 629 -17 q 215 83 319 -17 q 111 368 111 184 q 213 651 111 549 q 499 753 316 753 q 734 718 616 753 l 734 606 q 511 652 604 652 q 322 576 391 652 q 253 368 253 500 q 327 159 253 235 q 530 83 400 83 q 748 129 627 83 l 748 24 z "},"т":{"ha":837,"x_min":50,"x_max":787,"o":"m 352 0 l 352 636 l 50 636 l 50 736 l 787 736 l 787 636 l 486 636 l 486 0 l 352 0 z "},"у":{"ha":837,"x_min":58,"x_max":800,"o":"m 96 -268 l 96 -168 l 151 -168 q 261 -143 227 -168 q 334 -38 296 -119 l 367 33 l 58 736 l 196 736 l 437 185 l 680 736 l 800 736 l 429 -94 q 325 -230 385 -191 q 153 -268 264 -268 l 96 -268 z "},"ф":{"ha":837,"x_min":42,"x_max":795,"o":"m 360 -268 l 360 42 q 240 -17 312 -17 q 95 85 147 -17 q 42 368 42 188 q 95 651 42 549 q 240 753 147 753 q 347 709 307 753 l 360 694 l 360 1004 l 477 1004 l 477 694 l 490 709 q 597 753 530 753 q 742 651 690 753 q 795 368 795 549 q 742 85 795 188 q 597 -17 690 -17 q 477 42 524 -17 l 477 -268 l 360 -268 m 360 141 l 360 600 q 267 656 313 656 q 159 373 159 656 q 187 156 159 226 q 273 86 214 86 q 360 141 317 86 m 477 141 q 564 86 520 86 q 650 156 623 86 q 678 372 678 225 q 652 587 678 518 q 570 656 625 656 q 477 600 524 656 l 477 141 z "},"х":{"ha":837,"x_min":63,"x_max":783,"o":"m 63 0 l 337 372 l 64 736 l 232 736 l 435 465 l 622 736 l 754 736 l 504 373 l 783 0 l 616 0 l 405 281 l 198 0 l 63 0 z "},"ц":{"ha":837,"x_min":109,"x_max":803,"o":"m 109 0 l 109 736 l 242 736 l 242 100 l 535 100 l 535 736 l 669 736 l 669 100 l 803 100 l 803 -168 l 677 -168 l 677 0 l 109 0 z "},"ч":{"ha":837,"x_min":83,"x_max":673,"o":"m 539 0 l 539 309 q 340 255 421 255 q 143 328 213 255 q 96 415 108 366 q 83 570 83 464 l 83 736 l 217 736 l 217 544 q 223 446 217 471 q 253 398 229 421 q 368 355 296 355 q 539 414 437 355 l 539 736 l 673 736 l 673 0 l 539 0 z "},"ш":{"ha":837,"x_min":50,"x_max":787,"o":"m 787 0 l 50 0 l 50 736 l 172 736 l 172 100 l 359 100 l 359 736 l 477 736 l 477 100 l 665 100 l 665 736 l 787 736 l 787 0 z "},"щ":{"ha":837,"x_min":50,"x_max":837,"o":"m 50 0 l 50 736 l 172 736 l 172 100 l 359 100 l 359 736 l 477 736 l 477 100 l 665 100 l 665 736 l 787 736 l 787 100 l 837 100 l 837 -201 l 711 -201 l 711 0 l 50 0 z "},"ъ":{"ha":837,"x_min":29,"x_max":758,"o":"m 230 0 l 230 636 l 29 636 l 29 736 l 363 736 l 363 439 l 436 439 q 681 388 604 439 q 758 225 758 336 q 674 55 758 110 q 416 0 591 0 l 230 0 m 363 100 l 425 100 q 615 222 615 100 q 574 310 615 286 q 428 334 534 334 l 363 334 l 363 100 z "},"ы":{"ha":837,"x_min":67,"x_max":770,"o":"m 67 0 l 67 736 l 193 736 l 193 456 l 240 456 q 545 234 545 456 q 439 41 545 100 q 195 0 369 0 l 67 0 m 193 100 l 235 100 q 402 231 402 100 q 363 323 402 295 q 235 351 323 351 l 193 351 l 193 100 m 636 0 l 636 736 l 770 736 l 770 0 l 636 0 z "},"ь":{"ha":837,"x_min":176,"x_max":736,"o":"m 176 0 l 176 736 l 309 736 l 309 456 l 407 456 q 661 405 585 456 q 736 233 736 354 q 654 55 736 111 q 387 0 571 0 l 176 0 m 309 100 l 396 100 q 550 128 506 100 q 595 224 595 156 q 555 324 595 290 q 506 347 534 342 q 398 351 479 351 l 309 351 l 309 100 z "},"э":{"ha":837,"x_min":100,"x_max":732,"o":"m 100 23 l 100 143 q 350 92 208 92 q 518 146 461 92 q 593 326 574 201 l 276 326 l 276 427 l 593 427 q 366 652 593 652 q 125 600 250 652 l 125 710 q 372 753 239 753 q 652 645 568 753 q 732 384 732 543 q 631 90 732 196 q 353 -17 530 -17 q 100 23 222 -17 z "},"ю":{"ha":837,"x_min":50,"x_max":828,"o":"m 294 318 l 176 318 l 176 0 l 50 0 l 50 736 l 176 736 l 176 418 l 295 418 q 373 668 306 583 q 561 753 440 753 q 759 653 689 753 q 828 368 828 553 q 759 83 828 184 q 561 -17 689 -17 q 294 318 319 -17 m 427 368 q 559 83 427 83 q 694 368 694 83 q 562 652 694 652 q 427 368 427 652 z "},"я":{"ha":837,"x_min":75,"x_max":692,"o":"m 559 297 l 416 297 q 317 161 368 250 l 274 87 q 226 0 245 37 l 75 0 q 161 144 115 58 l 179 177 l 210 233 q 304 334 249 302 q 136 528 136 380 q 249 709 136 654 q 461 736 307 736 l 692 736 l 692 0 l 559 0 l 559 297 m 559 636 l 437 636 q 278 520 278 636 q 445 397 278 397 l 559 397 l 559 636 z "},"ё":{"ha":837,"x_min":96,"x_max":745,"o":"m 745 29 q 490 -17 606 -17 q 198 81 300 -17 q 96 360 96 178 q 194 642 96 532 q 443 753 292 753 q 668 661 595 753 q 740 376 740 570 l 740 334 l 238 334 q 508 83 253 83 q 745 135 616 83 l 745 29 m 242 434 l 597 434 l 597 453 q 431 652 597 652 q 301 595 351 652 q 242 434 252 537 m 279 870 l 279 987 l 396 987 l 396 870 l 279 870 m 547 870 l 547 987 l 664 987 l 664 870 l 547 870 z "},"ђ":{"ha":837,"x_min":23,"x_max":718,"o":"m 258 598 q 509 753 350 753 q 718 504 718 753 l 718 0 l 718 -62 q 656 -222 718 -161 q 497 -284 595 -284 q 399 -271 451 -284 l 399 -165 q 484 -184 441 -184 q 561 -150 538 -184 q 584 -37 584 -117 l 584 467 q 557 590 584 554 q 467 626 531 626 q 258 481 367 626 l 258 0 l 123 0 l 123 853 l 23 853 l 23 937 l 123 937 l 123 1071 l 258 1071 l 258 937 l 475 937 l 475 853 l 258 853 l 258 736 l 258 598 z "},"ѓ":{"ha":837,"x_min":168,"x_max":770,"o":"m 168 0 l 168 736 l 770 736 l 770 636 l 301 636 l 301 0 l 168 0 m 376 870 l 539 1088 l 694 1088 l 476 870 l 376 870 z "},"є":{"ha":837,"x_min":104,"x_max":736,"o":"m 736 132 l 736 28 q 484 -17 612 -17 q 202 83 300 -17 q 104 371 104 182 q 202 656 104 559 q 490 753 300 753 q 728 724 610 753 l 728 615 q 490 652 588 652 q 245 435 263 652 l 561 435 l 561 334 l 245 334 q 500 83 262 83 q 736 132 625 83 z "},"ѕ":{"ha":837,"x_min":127,"x_max":715,"o":"m 127 30 l 127 151 q 395 83 282 83 q 530 116 477 83 q 583 199 583 149 q 456 304 583 264 l 313 351 q 146 543 146 406 q 221 698 146 643 q 435 753 297 753 q 676 721 539 753 l 676 612 q 435 652 544 652 q 318 626 361 652 q 274 555 274 600 q 374 465 274 500 l 543 406 q 675 329 635 374 q 715 212 715 283 q 629 45 715 107 q 398 -17 543 -17 q 127 30 271 -17 z "},"і":{"ha":837,"x_min":117,"x_max":536,"o":"m 385 0 l 385 636 l 117 636 l 117 736 l 519 736 l 519 0 l 385 0 m 368 903 l 368 1071 l 536 1071 l 536 903 l 368 903 z "},"ї":{"ha":837,"x_min":117,"x_max":636,"o":"m 385 0 l 385 636 l 117 636 l 117 736 l 519 736 l 519 0 l 385 0 m 251 870 l 251 987 l 368 987 l 368 870 l 251 870 m 519 870 l 519 987 l 636 987 l 636 870 l 519 870 z "},"ј":{"ha":837,"x_min":100,"x_max":606,"o":"m 100 -249 l 100 -137 q 307 -184 205 -184 q 424 -141 393 -184 q 456 18 456 -98 l 456 636 l 155 636 l 155 736 l 589 736 l 589 45 q 522 -205 589 -126 q 307 -284 454 -284 q 100 -249 211 -284 m 439 903 l 439 1071 l 606 1071 l 606 903 l 439 903 z "},"љ":{"ha":837,"x_min":8,"x_max":820,"o":"m 8 0 l 8 117 q 107 201 77 125 q 138 438 138 277 l 143 577 l 146 664 l 146 736 l 519 736 l 519 456 l 557 456 q 820 241 820 456 q 753 54 820 109 q 521 0 686 0 l 393 0 l 393 636 l 272 636 l 272 623 q 269 557 272 610 l 260 357 q 192 91 252 175 q 8 0 133 7 m 519 100 l 552 100 q 686 225 686 100 q 552 351 686 351 l 519 351 l 519 100 z "},"њ":{"ha":837,"x_min":62,"x_max":820,"o":"m 393 337 l 188 337 l 188 0 l 62 0 l 62 736 l 188 736 l 188 437 l 393 437 l 393 736 l 519 736 l 519 456 l 558 456 q 820 242 820 456 q 753 54 820 109 q 522 0 686 0 l 393 0 l 393 337 m 519 100 l 553 100 q 686 226 686 100 q 553 351 686 351 l 519 351 l 519 100 z "},"ћ":{"ha":837,"x_min":23,"x_max":718,"o":"m 123 853 l 23 853 l 23 937 l 123 937 l 123 1071 l 257 1071 l 257 937 l 458 937 l 458 853 l 257 853 l 257 736 l 257 598 q 508 753 349 753 q 718 504 718 753 l 718 0 l 584 0 l 584 467 q 557 590 584 553 q 467 626 530 626 q 257 481 367 626 l 257 0 l 123 0 l 123 853 z "},"ќ":{"ha":837,"x_min":166,"x_max":745,"o":"m 300 314 l 300 0 l 166 0 l 166 736 l 300 736 l 300 414 l 329 415 q 419 436 393 415 q 486 542 445 456 l 500 573 q 588 706 549 675 q 710 736 627 736 l 710 636 q 650 617 670 636 q 598 531 631 599 l 585 504 l 568 467 q 471 370 538 405 q 555 320 527 351 q 633 197 584 290 l 660 145 q 745 0 707 55 l 597 0 q 554 81 578 38 l 517 145 q 400 314 447 271 l 300 314 m 333 870 l 496 1088 l 651 1088 l 433 870 l 333 870 z "},"ў":{"ha":837,"x_min":58,"x_max":800,"o":"m 96 -268 l 96 -168 l 151 -168 q 261 -143 227 -168 q 334 -38 296 -119 l 367 33 l 58 736 l 196 736 l 437 185 l 680 736 l 800 736 l 429 -94 q 325 -230 385 -191 q 153 -268 264 -268 l 96 -268 m 211 1071 l 294 1071 q 437 970 316 970 q 579 1071 557 970 l 663 1071 q 591 925 652 979 q 437 870 529 870 q 283 925 345 870 q 211 1071 222 979 z "},"џ":{"ha":837,"x_min":134,"x_max":703,"o":"m 134 0 l 134 736 l 268 736 l 268 100 l 569 100 l 569 736 l 703 736 l 703 0 l 481 0 l 481 -168 l 355 -168 l 355 0 l 134 0 z "},"Ґ":{"ha":837,"x_min":168,"x_max":787,"o":"m 168 0 l 168 870 l 653 870 l 653 1071 l 787 1071 l 787 870 l 787 770 l 301 770 l 301 0 l 168 0 z "},"ґ":{"ha":837,"x_min":168,"x_max":770,"o":"m 168 0 l 168 736 l 644 736 l 644 903 l 770 903 l 770 736 l 770 636 l 301 636 l 301 0 l 168 0 z "},"Ẁ":{"ha":837,"x_min":11,"x_max":825,"o":"m 140 0 l 11 870 l 125 870 l 231 147 l 233 147 l 358 686 l 487 686 l 610 155 l 612 155 l 724 870 l 825 870 l 682 0 l 537 0 l 417 511 l 416 511 l 295 0 l 140 0 m 531 945 l 422 945 l 197 1096 l 380 1096 l 531 945 z "},"ẁ":{"ha":837,"x_min":8,"x_max":828,"o":"m 142 0 l 8 736 l 132 736 l 229 160 l 231 160 l 361 669 l 491 669 l 615 140 l 617 140 l 726 736 l 828 736 l 681 0 l 549 0 l 420 551 l 418 551 l 275 0 l 142 0 m 527 870 l 427 870 l 209 1088 l 363 1088 l 527 870 z "},"Ẃ":{"ha":837,"x_min":11,"x_max":825,"o":"m 140 0 l 11 870 l 125 870 l 231 147 l 233 147 l 358 686 l 487 686 l 610 155 l 612 155 l 724 870 l 825 870 l 682 0 l 537 0 l 417 511 l 416 511 l 295 0 l 140 0 m 313 945 l 464 1096 l 648 1096 l 422 945 l 313 945 z "},"ẃ":{"ha":837,"x_min":8,"x_max":828,"o":"m 142 0 l 8 736 l 132 736 l 229 160 l 231 160 l 361 669 l 491 669 l 615 140 l 617 140 l 726 736 l 828 736 l 681 0 l 549 0 l 420 551 l 418 551 l 275 0 l 142 0 m 326 870 l 489 1088 l 644 1088 l 426 870 l 326 870 z "},"Ẅ":{"ha":837,"x_min":11,"x_max":825,"o":"m 140 0 l 11 870 l 125 870 l 231 147 l 233 147 l 358 686 l 487 686 l 610 155 l 612 155 l 724 870 l 825 870 l 682 0 l 537 0 l 417 511 l 416 511 l 295 0 l 140 0 m 198 979 l 198 1096 l 315 1096 l 315 979 l 198 979 m 532 979 l 532 1096 l 650 1096 l 650 979 l 532 979 z "},"ẅ":{"ha":837,"x_min":8,"x_max":828,"o":"m 142 0 l 8 736 l 132 736 l 229 160 l 231 160 l 361 669 l 491 669 l 615 140 l 617 140 l 726 736 l 828 736 l 681 0 l 549 0 l 420 551 l 418 551 l 275 0 l 142 0 m 235 870 l 235 987 l 353 987 l 353 870 l 235 870 m 503 870 l 503 987 l 621 987 l 621 870 l 503 870 z "},"Ỳ":{"ha":837,"x_min":22,"x_max":832,"o":"m 352 0 l 352 356 l 22 870 l 176 870 l 429 469 l 705 870 l 832 870 l 486 356 l 486 0 l 352 0 m 537 945 l 429 945 l 203 1096 l 387 1096 l 537 945 z "},"ỳ":{"ha":837,"x_min":58,"x_max":800,"o":"m 96 -268 l 96 -168 l 151 -168 q 261 -143 227 -168 q 334 -38 296 -119 l 367 33 l 58 736 l 196 736 l 437 185 l 680 736 l 800 736 l 429 -94 q 325 -230 385 -191 q 153 -268 264 -268 l 96 -268 m 537 870 l 437 870 l 219 1088 l 374 1088 l 537 870 z "},"―":{"ha":837,"x_min":67,"x_max":770,"o":"m 67 368 l 67 452 l 770 452 l 770 368 l 67 368 z "},"‗":{"ha":837,"x_min":0,"x_max":837,"o":"m 0 -92 l 0 0 l 837 0 l 837 -92 l 0 -92 m 0 -285 l 0 -193 l 837 -193 l 837 -285 l 0 -285 z "},"‼":{"ha":837,"x_min":184,"x_max":652,"o":"m 217 284 l 201 803 l 201 1004 l 334 1004 l 334 803 l 317 284 l 217 284 m 184 0 l 184 151 l 351 151 l 351 0 l 184 0 m 518 284 l 502 803 l 502 1004 l 635 1004 l 635 803 l 619 284 l 518 284 m 485 0 l 485 151 l 652 151 l 652 0 l 485 0 z "},"‾":{"ha":837,"x_min":0,"x_max":837,"o":"m 0 1013 l 0 1096 l 837 1096 l 837 1013 l 0 1013 z "},"⁄":{"ha":837,"x_min":0,"x_max":837,"o":"m 0 -25 l 715 1029 l 837 1029 l 121 -25 l 0 -25 z "},"ⁿ":{"ha":837,"x_min":176,"x_max":661,"o":"m 176 494 l 176 1017 l 293 1017 l 293 912 q 489 1029 379 1029 q 661 841 661 1029 l 661 494 l 544 494 l 544 813 q 454 932 544 932 q 293 823 375 932 l 293 494 l 176 494 z "},"₤":{"ha":837,"x_min":170,"x_max":724,"o":"m 323 117 l 724 117 l 724 0 l 170 0 l 170 117 q 305 327 305 169 l 305 389 l 188 389 l 188 473 l 305 473 l 305 574 l 188 574 l 188 657 l 305 657 l 305 732 q 372 953 305 878 q 568 1029 439 1029 q 713 1009 633 1029 l 713 895 q 564 928 623 928 q 439 785 439 928 l 439 657 l 573 657 l 573 574 l 439 574 l 439 473 l 573 473 l 573 389 l 439 389 q 416 243 439 296 q 323 117 394 190 z "},"₧":{"ha":837,"x_min":17,"x_max":830,"o":"m 17 0 l 17 1004 l 191 1004 q 417 950 344 1004 q 491 782 491 895 q 405 588 491 657 q 163 519 319 519 l 142 519 l 142 0 l 17 0 m 142 619 l 170 619 q 320 650 278 619 q 363 762 363 682 q 229 903 363 903 l 163 903 l 142 903 l 142 619 m 377 276 l 260 276 l 260 360 l 377 360 l 377 519 l 486 519 l 486 360 l 586 360 q 580 401 580 384 q 623 497 580 462 q 741 532 665 532 q 807 520 775 532 l 807 433 q 742 448 773 448 q 675 390 675 448 q 712 324 675 361 l 735 301 l 764 273 q 818 206 806 230 q 830 143 830 182 q 789 28 830 70 q 675 -13 748 -13 q 606 1 641 -13 l 606 86 q 675 71 640 71 q 734 125 734 71 q 688 208 734 160 l 662 233 l 621 276 l 486 276 l 486 154 q 496 88 486 104 q 536 71 506 71 q 555 73 543 71 l 555 -4 q 500 -13 523 -13 q 403 28 429 -13 q 377 178 377 68 l 377 276 z "},"№":{"ha":837,"x_min":42,"x_max":816,"o":"m 515 469 q 665 736 515 736 q 816 469 816 736 q 665 201 816 201 q 515 469 515 201 m 606 468 q 620 319 606 362 q 666 276 633 276 q 724 469 724 276 q 710 618 724 575 q 665 661 697 661 q 606 468 606 661 m 506 0 l 506 100 l 816 100 l 816 0 l 506 0 m 439 0 l 339 0 l 126 760 l 126 0 l 42 0 l 42 1004 l 142 1004 l 355 247 l 355 1004 l 439 1004 l 439 0 z "},"⅛":{"ha":837,"x_min":0,"x_max":820,"o":"m 92 502 l 92 920 l 0 920 l 0 1004 l 209 1029 l 209 502 l 92 502 m 10 -25 l 562 1029 l 675 1029 l 123 -25 l 10 -25 m 509 260 q 418 374 418 304 q 471 480 418 441 q 617 519 524 519 q 760 484 707 519 q 812 389 812 450 q 791 323 812 350 q 711 256 771 296 q 820 134 820 202 q 756 20 820 64 q 594 -25 693 -25 q 446 13 501 -25 q 391 113 391 50 q 509 260 391 196 m 625 304 q 692 382 692 342 q 612 435 692 435 q 531 380 531 435 q 604 313 531 349 l 625 304 m 574 222 q 506 123 506 168 q 600 58 506 58 q 671 77 644 58 q 699 124 699 95 q 610 204 699 159 l 574 222 z "},"⅜":{"ha":837,"x_min":10,"x_max":826,"o":"m 64 -25 l 616 1029 l 720 1029 l 170 -25 l 64 -25 m 10 593 q 134 568 92 568 q 222 637 222 568 q 64 728 222 728 l 64 810 l 83 810 q 223 890 223 810 q 135 950 223 950 q 10 922 97 950 l 10 1008 q 150 1029 97 1029 q 293 997 242 1029 q 345 905 345 964 q 213 768 345 810 q 347 637 347 743 q 290 526 347 566 q 134 485 233 485 q 10 505 75 485 l 10 593 m 527 259 q 441 374 441 305 q 493 479 441 440 q 631 519 544 519 q 767 484 717 519 q 818 389 818 448 q 718 257 818 322 q 826 127 826 200 q 764 18 826 62 q 608 -25 701 -25 q 467 11 521 -25 q 414 107 414 47 q 527 259 414 186 m 637 306 l 650 316 q 696 385 696 354 q 626 435 696 435 q 558 379 558 435 q 620 313 558 342 l 637 306 m 596 222 q 529 121 529 163 q 554 77 529 95 q 618 58 580 58 q 678 78 654 58 q 703 125 703 97 q 627 205 703 163 l 596 222 z "},"⅝":{"ha":837,"x_min":10,"x_max":826,"o":"m 60 -25 l 611 1029 l 716 1029 l 165 -25 l 60 -25 m 10 513 l 10 603 q 121 581 87 581 q 222 664 222 581 q 82 762 222 762 q 22 755 56 762 l 22 1029 l 329 1029 l 329 954 l 121 954 l 121 842 l 138 842 q 290 797 233 842 q 347 673 347 751 q 289 546 347 594 q 136 498 231 498 q 10 513 76 498 m 527 259 q 441 374 441 305 q 493 479 441 440 q 631 519 544 519 q 767 484 717 519 q 818 389 818 448 q 718 257 818 322 q 826 127 826 200 q 764 18 826 62 q 608 -25 701 -25 q 467 11 521 -25 q 414 107 414 47 q 527 259 414 186 m 637 306 l 650 316 q 696 385 696 354 q 626 435 696 435 q 558 379 558 435 q 620 313 558 342 l 637 306 m 596 222 q 529 121 529 163 q 554 77 529 95 q 618 58 580 58 q 678 78 654 58 q 703 125 703 97 q 627 205 703 163 l 596 222 z "},"⅞":{"ha":837,"x_min":10,"x_max":820,"o":"m 10 -25 l 561 1029 l 674 1029 l 123 -25 l 10 -25 m 508 260 q 418 374 418 304 q 471 480 418 441 q 616 519 524 519 q 759 484 707 519 q 811 389 811 450 q 791 323 811 350 q 711 256 770 296 q 820 134 820 202 q 756 20 820 64 q 594 -25 693 -25 q 446 13 501 -25 q 391 113 391 50 q 508 260 391 197 m 624 304 q 692 382 692 342 q 612 435 692 435 q 530 380 530 435 q 604 313 530 349 l 624 304 m 573 222 q 506 123 506 168 q 600 58 506 58 q 671 77 644 58 q 699 124 699 95 q 610 204 699 159 l 573 222 m 40 486 l 52 516 q 211 813 105 656 l 278 912 l 10 912 l 10 1004 l 370 1004 l 370 907 l 334 851 q 169 486 194 635 l 40 486 z "},"←":{"ha":837,"x_min":58,"x_max":778,"o":"m 778 351 l 240 351 q 332 201 310 297 l 262 201 q 58 385 180 337 l 58 418 q 262 602 179 465 l 332 602 q 240 452 310 506 l 778 452 l 778 351 z "},"↑":{"ha":837,"x_min":218,"x_max":619,"o":"m 435 1004 q 619 803 478 878 l 619 734 q 469 827 529 760 l 469 -201 l 368 -201 l 368 827 q 218 734 308 760 l 218 803 q 401 1004 359 878 l 435 1004 z "},"→":{"ha":837,"x_min":58,"x_max":778,"o":"m 58 452 l 596 452 q 505 602 526 506 l 574 602 q 778 418 657 465 l 778 385 q 574 201 656 337 l 505 201 q 596 351 526 297 l 58 351 l 58 452 z "},"↓":{"ha":837,"x_min":218,"x_max":619,"o":"m 469 1004 l 469 -24 q 619 69 529 42 l 619 0 q 435 -201 477 -76 l 401 -201 q 218 0 359 -76 l 218 69 q 368 -24 308 42 l 368 1004 l 469 1004 z "},"↔":{"ha":837,"x_min":58,"x_max":778,"o":"m 596 351 l 240 351 q 332 201 310 297 l 262 201 q 58 385 180 337 l 58 418 q 262 602 179 465 l 332 602 q 240 452 310 506 l 596 452 q 505 602 526 506 l 574 602 q 778 418 657 465 l 778 385 q 574 201 656 337 l 505 201 q 596 351 526 297 z "},"↕":{"ha":837,"x_min":218,"x_max":619,"o":"m 401 -201 q 218 0 359 -76 l 218 69 q 368 -24 308 42 l 368 827 q 218 734 308 760 l 218 803 q 401 1004 359 878 l 435 1004 q 619 803 478 878 l 619 734 q 469 827 529 760 l 469 -24 q 619 69 529 42 l 619 0 q 435 -201 477 -76 l 401 -201 z "},"↨":{"ha":837,"x_min":218,"x_max":619,"o":"m 401 -117 q 218 83 359 7 l 218 153 q 368 60 307 126 l 368 910 q 218 817 308 844 l 218 887 q 401 1088 359 962 l 435 1088 q 619 887 477 962 l 619 817 q 469 910 529 844 l 469 60 q 619 153 530 126 l 619 83 q 435 -117 477 7 l 401 -117 m 218 -284 l 218 -184 l 619 -184 l 619 -284 l 218 -284 z "},"∟":{"ha":837,"x_min":58,"x_max":778,"o":"m 778 100 l 778 0 l 58 0 l 58 720 l 159 720 l 159 100 l 778 100 z "},"∩":{"ha":837,"x_min":58,"x_max":778,"o":"m 159 0 l 58 0 l 58 389 q 166 632 58 528 q 418 736 273 736 q 670 632 563 736 q 778 389 778 528 l 778 0 l 677 0 l 677 389 q 599 561 677 486 q 418 636 520 636 q 237 561 315 636 q 159 389 159 486 l 159 0 z "},"≡":{"ha":837,"x_min":58,"x_max":778,"o":"m 58 75 l 58 176 l 778 176 l 778 75 l 58 75 m 58 309 l 58 410 l 778 410 l 778 309 l 58 309 m 58 544 l 58 644 l 778 644 l 778 544 l 58 544 z "},"⌂":{"ha":837,"x_min":92,"x_max":745,"o":"m 745 0 l 92 0 l 92 477 l 418 803 l 745 477 l 745 0 m 644 100 l 644 436 l 418 662 l 193 436 l 193 100 l 644 100 z "},"⌐":{"ha":837,"x_min":58,"x_max":778,"o":"m 58 536 l 778 536 l 778 435 l 159 435 l 159 201 l 58 201 l 58 536 z "},"⌠":{"ha":837,"x_min":351,"x_max":711,"o":"m 600 1027 q 582 1030 589 1030 q 510 967 536 1030 q 485 547 485 907 l 485 -293 l 351 -293 l 351 372 q 409 935 351 795 q 606 1096 476 1096 q 711 1015 711 1096 q 693 967 711 987 q 649 948 675 948 q 594 1002 594 948 q 600 1027 594 1012 z "},"⌡":{"ha":837,"x_min":125,"x_max":485,"o":"m 237 -224 q 255 -227 248 -227 q 326 -164 300 -227 q 351 256 351 -103 l 351 1096 l 485 1096 l 485 431 q 428 -131 485 7 q 231 -293 361 -293 q 125 -212 125 -293 q 143 -164 125 -184 q 188 -145 161 -145 q 243 -199 243 -145 q 237 -224 243 -208 z "},"─":{"ha":837,"x_min":0,"x_max":837,"o":"m 0 351 l 0 452 l 837 452 l 837 351 l 0 351 z "},"│":{"ha":837,"x_min":368,"x_max":469,"o":"m 368 1096 l 469 1096 l 469 -293 l 368 -293 l 368 1096 z "},"┌":{"ha":837,"x_min":368,"x_max":837,"o":"m 368 452 l 837 452 l 837 351 l 469 351 l 469 -293 l 368 -293 l 368 452 z "},"┐":{"ha":837,"x_min":0,"x_max":469,"o":"m 0 351 l 0 452 l 469 452 l 469 -293 l 368 -293 l 368 351 l 0 351 z "},"└":{"ha":837,"x_min":368,"x_max":837,"o":"m 368 1096 l 469 1096 l 469 452 l 837 452 l 837 351 l 368 351 l 368 1096 z "},"┘":{"ha":837,"x_min":0,"x_max":469,"o":"m 0 351 l 0 452 l 368 452 l 368 1096 l 469 1096 l 469 351 l 0 351 z "},"├":{"ha":837,"x_min":368,"x_max":837,"o":"m 368 1096 l 469 1096 l 469 452 l 837 452 l 837 351 l 469 351 l 469 -293 l 368 -293 l 368 1096 z "},"┤":{"ha":837,"x_min":0,"x_max":469,"o":"m 0 351 l 0 452 l 368 452 l 368 1096 l 469 1096 l 469 -293 l 368 -293 l 368 351 l 0 351 z "},"┬":{"ha":837,"x_min":0,"x_max":837,"o":"m 0 351 l 0 452 l 837 452 l 837 351 l 469 351 l 469 -293 l 368 -293 l 368 351 l 0 351 z "},"┴":{"ha":837,"x_min":0,"x_max":837,"o":"m 0 351 l 0 452 l 368 452 l 368 1096 l 469 1096 l 469 452 l 837 452 l 837 351 l 0 351 z "},"┼":{"ha":837,"x_min":0,"x_max":837,"o":"m 0 351 l 0 452 l 368 452 l 368 1096 l 469 1096 l 469 452 l 837 452 l 837 351 l 469 351 l 469 -293 l 368 -293 l 368 351 l 0 351 z "},"═":{"ha":837,"x_min":0,"x_max":837,"o":"m 0 452 l 0 552 l 837 552 l 837 452 l 0 452 m 0 251 l 0 351 l 837 351 l 837 251 l 0 251 z "},"║":{"ha":837,"x_min":268,"x_max":569,"o":"m 268 -293 l 268 1096 l 368 1096 l 368 -293 l 268 -293 m 469 -293 l 469 1096 l 569 1096 l 569 -293 l 469 -293 z "},"╒":{"ha":837,"x_min":368,"x_max":837,"o":"m 368 -293 l 368 552 l 837 552 l 837 452 l 469 452 l 469 351 l 837 351 l 837 251 l 469 251 l 469 -293 l 368 -293 z "},"╓":{"ha":837,"x_min":268,"x_max":837,"o":"m 268 -293 l 268 452 l 837 452 l 837 351 l 569 351 l 569 -293 l 469 -293 l 469 351 l 368 351 l 368 -293 l 268 -293 z "},"╔":{"ha":837,"x_min":268,"x_max":837,"o":"m 837 552 l 837 452 l 368 452 l 368 -293 l 268 -293 l 268 552 l 837 552 m 837 251 l 569 251 l 569 -293 l 469 -293 l 469 351 l 837 351 l 837 251 z "},"╕":{"ha":837,"x_min":0,"x_max":469,"o":"m 0 452 l 0 552 l 469 552 l 469 -293 l 368 -293 l 368 251 l 0 251 l 0 351 l 368 351 l 368 452 l 0 452 z "},"╖":{"ha":837,"x_min":0,"x_max":569,"o":"m 268 -293 l 268 351 l 0 351 l 0 452 l 569 452 l 569 -293 l 469 -293 l 469 351 l 368 351 l 368 -293 l 268 -293 z "},"╗":{"ha":837,"x_min":0,"x_max":569,"o":"m 0 251 l 0 351 l 368 351 l 368 -293 l 268 -293 l 268 251 l 0 251 m 0 452 l 0 552 l 569 552 l 569 -293 l 469 -293 l 469 452 l 0 452 z "},"╘":{"ha":837,"x_min":368,"x_max":837,"o":"m 368 1096 l 469 1096 l 469 552 l 837 552 l 837 452 l 469 452 l 469 351 l 837 351 l 837 251 l 368 251 l 368 1096 z "},"╙":{"ha":837,"x_min":268,"x_max":837,"o":"m 268 1096 l 368 1096 l 368 452 l 469 452 l 469 1096 l 569 1096 l 569 452 l 837 452 l 837 351 l 268 351 l 268 1096 z "},"╚":{"ha":837,"x_min":268,"x_max":837,"o":"m 837 452 l 469 452 l 469 1096 l 569 1096 l 569 552 l 837 552 l 837 452 m 837 251 l 268 251 l 268 1096 l 368 1096 l 368 351 l 837 351 l 837 251 z "},"╛":{"ha":837,"x_min":0,"x_max":469,"o":"m 0 452 l 0 552 l 368 552 l 368 1096 l 469 1096 l 469 251 l 0 251 l 0 351 l 368 351 l 368 452 l 0 452 z "},"╜":{"ha":837,"x_min":0,"x_max":569,"o":"m 268 1096 l 368 1096 l 368 452 l 469 452 l 469 1096 l 569 1096 l 569 351 l 0 351 l 0 452 l 268 452 l 268 1096 z "},"╝":{"ha":837,"x_min":0,"x_max":569,"o":"m 0 452 l 0 552 l 268 552 l 268 1096 l 368 1096 l 368 452 l 0 452 m 0 251 l 0 351 l 469 351 l 469 1096 l 569 1096 l 569 251 l 0 251 z "},"╞":{"ha":837,"x_min":368,"x_max":837,"o":"m 368 1096 l 469 1096 l 469 552 l 837 552 l 837 452 l 469 452 l 469 351 l 837 351 l 837 251 l 469 251 l 469 -293 l 368 -293 l 368 1096 z "},"╟":{"ha":837,"x_min":268,"x_max":837,"o":"m 268 -293 l 268 1096 l 368 1096 l 368 -293 l 268 -293 m 469 -293 l 469 1096 l 569 1096 l 569 452 l 837 452 l 837 351 l 569 351 l 569 -293 l 469 -293 z "},"╠":{"ha":837,"x_min":268,"x_max":837,"o":"m 268 1096 l 368 1096 l 368 -293 l 268 -293 l 268 1096 m 837 452 l 469 452 l 469 1096 l 569 1096 l 569 552 l 837 552 l 837 452 m 837 251 l 569 251 l 569 -293 l 469 -293 l 469 351 l 837 351 l 837 251 z "},"╡":{"ha":837,"x_min":0,"x_max":469,"o":"m 0 452 l 0 552 l 368 552 l 368 1096 l 469 1096 l 469 -293 l 368 -293 l 368 251 l 0 251 l 0 351 l 368 351 l 368 452 l 0 452 z "},"╢":{"ha":837,"x_min":0,"x_max":569,"o":"m 268 -293 l 268 351 l 0 351 l 0 452 l 268 452 l 268 1096 l 368 1096 l 368 -293 l 268 -293 m 469 -293 l 469 1096 l 569 1096 l 569 -293 l 469 -293 z "},"╣":{"ha":837,"x_min":0,"x_max":569,"o":"m 0 251 l 0 351 l 368 351 l 368 -293 l 268 -293 l 268 251 l 0 251 m 0 452 l 0 552 l 268 552 l 268 1096 l 368 1096 l 368 452 l 0 452 m 469 1096 l 569 1096 l 569 -293 l 469 -293 l 469 1096 z "},"╤":{"ha":837,"x_min":0,"x_max":837,"o":"m 0 452 l 0 552 l 837 552 l 837 452 l 0 452 m 0 251 l 0 351 l 837 351 l 837 251 l 469 251 l 469 -293 l 368 -293 l 368 251 l 0 251 z "},"╥":{"ha":837,"x_min":0,"x_max":837,"o":"m 0 351 l 0 452 l 837 452 l 837 351 l 569 351 l 569 -293 l 469 -293 l 469 351 l 368 351 l 368 -293 l 268 -293 l 268 351 l 0 351 z "},"╦":{"ha":837,"x_min":0,"x_max":837,"o":"m 0 452 l 0 552 l 837 552 l 837 452 l 0 452 m 0 251 l 0 351 l 368 351 l 368 -293 l 268 -293 l 268 251 l 0 251 m 837 251 l 569 251 l 569 -293 l 469 -293 l 469 351 l 837 351 l 837 251 z "},"╧":{"ha":837,"x_min":0,"x_max":837,"o":"m 0 452 l 0 552 l 368 552 l 368 1096 l 469 1096 l 469 552 l 837 552 l 837 452 l 0 452 m 0 251 l 0 351 l 837 351 l 837 251 l 0 251 z "},"╨":{"ha":837,"x_min":0,"x_max":837,"o":"m 0 351 l 0 452 l 268 452 l 268 1096 l 368 1096 l 368 452 l 469 452 l 469 1096 l 569 1096 l 569 452 l 837 452 l 837 351 l 0 351 z "},"╩":{"ha":837,"x_min":0,"x_max":837,"o":"m 0 452 l 0 552 l 268 552 l 268 1096 l 368 1096 l 368 452 l 0 452 m 837 452 l 469 452 l 469 1096 l 569 1096 l 569 552 l 837 552 l 837 452 m 0 251 l 0 351 l 837 351 l 837 251 l 0 251 z "},"╪":{"ha":837,"x_min":0,"x_max":837,"o":"m 0 452 l 0 552 l 368 552 l 368 1096 l 469 1096 l 469 552 l 837 552 l 837 452 l 469 452 l 469 351 l 837 351 l 837 251 l 469 251 l 469 -293 l 368 -293 l 368 251 l 0 251 l 0 351 l 368 351 l 368 452 l 0 452 z "},"╫":{"ha":837,"x_min":0,"x_max":837,"o":"m 268 -293 l 268 351 l 0 351 l 0 452 l 268 452 l 268 1096 l 368 1096 l 368 452 l 469 452 l 469 1096 l 569 1096 l 569 452 l 837 452 l 837 351 l 569 351 l 569 -293 l 469 -293 l 469 351 l 368 351 l 368 -293 l 268 -293 z "},"╬":{"ha":837,"x_min":0,"x_max":837,"o":"m 0 251 l 0 351 l 368 351 l 368 -293 l 268 -293 l 268 251 l 0 251 m 0 452 l 0 552 l 268 552 l 268 1096 l 368 1096 l 368 452 l 0 452 m 837 452 l 469 452 l 469 1096 l 569 1096 l 569 552 l 837 552 l 837 452 m 837 251 l 569 251 l 569 -293 l 469 -293 l 469 351 l 837 351 l 837 251 z "},"▀":{"ha":837,"x_min":0,"x_max":837,"o":"m 0 401 l 0 1096 l 837 1096 l 837 401 l 0 401 z "},"▄":{"ha":837,"x_min":0,"x_max":837,"o":"m 0 401 l 837 401 l 837 -293 l 0 -293 l 0 401 z "},"█":{"ha":837,"x_min":0,"x_max":837,"o":"m 0 1096 l 837 1096 l 837 -293 l 0 -293 l 0 1096 z "},"▌":{"ha":837,"x_min":0,"x_max":418,"o":"m 0 1096 l 418 1096 l 418 -293 l 0 -293 l 0 1096 z "},"▐":{"ha":837,"x_min":418,"x_max":837,"o":"m 418 1096 l 837 1096 l 837 -293 l 418 -293 l 418 1096 z "},"░":{"ha":837,"x_min":0,"x_max":697,"o":"m 0 957 l 0 1096 l 140 1096 l 140 957 l 0 957 m 0 680 l 0 819 l 140 819 l 140 680 l 0 680 m 0 401 l 0 541 l 140 541 l 140 401 l 0 401 m 0 124 l 0 262 l 140 262 l 140 124 l 0 124 m 0 -154 l 0 -15 l 140 -15 l 140 -154 l 0 -154 m 279 957 l 279 1096 l 418 1096 l 418 957 l 279 957 m 279 680 l 279 819 l 418 819 l 418 680 l 279 680 m 279 401 l 279 541 l 418 541 l 418 401 l 279 401 m 279 124 l 279 262 l 418 262 l 418 124 l 279 124 m 279 -154 l 279 -15 l 418 -15 l 418 -154 l 279 -154 m 557 957 l 557 1096 l 697 1096 l 697 957 l 557 957 m 557 680 l 557 819 l 697 819 l 697 680 l 557 680 m 557 401 l 557 541 l 697 541 l 697 401 l 557 401 m 557 124 l 557 262 l 697 262 l 697 124 l 557 124 m 557 -154 l 557 -15 l 697 -15 l 697 -154 l 557 -154 z "},"▒":{"ha":837,"x_min":0,"x_max":837,"o":"m 0 820 l 0 957 l 138 957 l 138 820 l 0 820 m 0 541 l 0 679 l 138 679 l 138 541 l 0 541 m 0 263 l 0 401 l 138 401 l 138 263 l 0 263 m 0 -15 l 0 123 l 138 123 l 138 -15 l 0 -15 m 0 -293 l 0 -155 l 138 -155 l 138 -293 l 0 -293 m 140 958 l 140 1096 l 278 1096 l 278 958 l 140 958 m 140 681 l 140 818 l 278 818 l 278 681 l 140 681 m 140 402 l 140 540 l 278 540 l 278 402 l 140 402 m 140 124 l 140 262 l 278 262 l 278 124 l 140 124 m 140 -154 l 140 -16 l 278 -16 l 278 -154 l 140 -154 m 279 820 l 279 957 l 418 957 l 418 820 l 279 820 m 279 541 l 279 679 l 418 679 l 418 541 l 279 541 m 279 263 l 279 401 l 418 401 l 418 263 l 279 263 m 279 -15 l 279 123 l 418 123 l 418 -15 l 279 -15 m 279 -293 l 279 -155 l 418 -155 l 418 -293 l 279 -293 m 419 958 l 419 1096 l 557 1096 l 557 958 l 419 958 m 419 681 l 419 818 l 557 818 l 557 681 l 419 681 m 419 402 l 419 540 l 557 540 l 557 402 l 419 402 m 419 124 l 419 262 l 557 262 l 557 124 l 419 124 m 419 -154 l 419 -16 l 557 -16 l 557 -154 l 419 -154 m 559 820 l 559 957 l 697 957 l 697 820 l 559 820 m 559 541 l 559 679 l 697 679 l 697 541 l 559 541 m 559 263 l 559 401 l 697 401 l 697 263 l 559 263 m 559 -15 l 559 123 l 697 123 l 697 -15 l 559 -15 m 559 -293 l 559 -155 l 697 -155 l 697 -293 l 559 -293 m 699 958 l 699 1096 l 837 1096 l 837 958 l 699 958 m 699 681 l 699 818 l 837 818 l 837 681 l 699 681 m 699 402 l 699 540 l 837 540 l 837 402 l 699 402 m 699 124 l 699 262 l 837 262 l 837 124 l 699 124 m 699 -154 l 699 -16 l 837 -16 l 837 -154 l 699 -154 z "},"▓":{"ha":837,"x_min":0,"x_max":837,"o":"m 0 -293 l 0 1096 l 837 1096 l 837 957 l 697 957 l 697 819 l 837 819 l 837 680 l 697 680 l 697 541 l 837 541 l 837 401 l 697 401 l 697 262 l 837 262 l 837 124 l 697 124 l 697 -15 l 837 -15 l 837 -154 l 697 -154 l 697 -293 l 557 -293 l 557 -154 l 418 -154 l 418 -293 l 279 -293 l 279 -154 l 139 -154 l 139 -293 l 0 -293 m 139 819 l 279 819 l 279 957 l 139 957 l 139 819 m 139 541 l 279 541 l 279 680 l 139 680 l 139 541 m 139 262 l 279 262 l 279 401 l 139 401 l 139 262 m 139 -15 l 279 -15 l 279 123 l 139 123 l 139 -15 m 418 819 l 557 819 l 557 957 l 418 957 l 418 819 m 418 541 l 557 541 l 557 680 l 418 680 l 418 541 m 418 262 l 557 262 l 557 401 l 418 401 l 418 262 m 418 -15 l 557 -15 l 557 123 l 418 123 l 418 -15 z "},"■":{"ha":837,"x_min":50,"x_max":787,"o":"m 50 0 l 50 736 l 787 736 l 787 0 l 50 0 z "},"▬":{"ha":837,"x_min":50,"x_max":787,"o":"m 50 424 l 50 669 l 787 669 l 787 424 l 50 424 z "},"▲":{"ha":837,"x_min":38,"x_max":800,"o":"m 800 0 l 38 0 l 418 803 l 800 0 z "},"►":{"ha":837,"x_min":38,"x_max":800,"o":"m 38 0 l 38 803 l 800 401 l 38 0 z "},"▼":{"ha":837,"x_min":38,"x_max":800,"o":"m 38 803 l 800 803 l 418 0 l 38 803 z "},"◄":{"ha":837,"x_min":38,"x_max":800,"o":"m 800 803 l 800 0 l 38 401 l 800 803 z "},"○":{"ha":837,"x_min":42,"x_max":795,"o":"m 418 -8 q 152 102 262 -8 q 42 368 42 212 q 152 634 42 524 q 418 745 262 745 q 685 634 574 745 q 795 368 795 524 q 685 102 795 212 q 418 -8 574 -8 m 418 75 q 626 161 540 75 q 711 368 711 247 q 626 575 711 490 q 418 661 540 661 q 211 575 297 661 q 125 368 125 490 q 211 161 125 247 q 418 75 297 75 z "},"◘":{"ha":837,"x_min":0,"x_max":837,"o":"m 837 -293 l 0 -293 l 0 1096 l 837 1096 l 837 -293 m 418 197 q 561 255 502 197 q 619 397 619 314 q 561 539 619 481 q 418 598 502 598 q 276 539 335 598 q 218 397 218 481 q 276 255 218 314 q 418 197 335 197 z "},"◙":{"ha":837,"x_min":0,"x_max":837,"o":"m 0 1096 l 837 1096 l 837 -293 l 0 -293 l 0 1096 m 418 -8 q 685 102 574 -8 q 795 368 795 212 q 685 634 795 524 q 418 745 574 745 q 152 634 262 745 q 42 368 42 524 q 152 102 42 212 q 418 -8 262 -8 m 418 75 q 211 161 297 75 q 125 368 125 247 q 211 575 125 490 q 418 661 297 661 q 626 575 540 661 q 711 368 711 490 q 626 161 711 247 q 418 75 540 75 z "},"☺":{"ha":837,"x_min":42,"x_max":795,"o":"m 418 -8 q 152 102 262 -8 q 42 368 42 212 q 152 634 42 524 q 418 745 262 745 q 685 634 574 745 q 795 368 795 524 q 685 102 795 212 q 418 -8 574 -8 m 418 63 q 634 152 545 63 q 724 368 724 241 q 634 584 724 494 q 418 673 545 673 q 203 584 292 673 q 114 368 114 494 q 203 152 114 241 q 418 63 292 63 m 186 347 l 239 347 q 418 201 275 201 q 597 347 562 201 l 652 347 q 574 184 637 244 q 418 123 511 123 q 263 184 326 123 q 186 347 200 245 m 299 428 q 257 445 274 428 q 239 488 239 463 q 257 530 239 513 q 299 547 274 547 q 341 530 324 547 q 359 488 359 513 q 341 445 359 463 q 299 428 324 428 m 538 428 q 496 445 513 428 q 478 488 478 463 q 496 530 478 513 q 538 547 513 547 q 580 530 563 547 q 597 488 597 513 q 580 445 597 463 q 538 428 563 428 z "},"☻":{"ha":837,"x_min":42,"x_max":795,"o":"m 418 -8 q 152 102 262 -8 q 42 368 42 212 q 152 634 42 524 q 418 745 262 745 q 685 634 574 745 q 795 368 795 524 q 685 102 795 212 q 418 -8 575 -8 m 186 347 q 263 184 200 245 q 418 123 327 123 q 574 184 511 123 q 652 347 637 244 l 598 347 q 418 201 563 201 q 239 347 275 201 l 186 347 m 299 428 q 341 445 324 428 q 359 488 359 463 q 341 530 359 513 q 299 547 324 547 q 257 530 275 547 q 239 488 239 513 q 257 445 239 463 q 299 428 275 428 m 538 428 q 581 445 563 428 q 598 488 598 463 q 581 530 598 513 q 538 547 563 547 q 496 530 513 547 q 478 488 478 513 q 496 445 478 463 q 538 428 513 428 z "},"☼":{"ha":837,"x_min":41,"x_max":795,"o":"m 418 293 q 537 342 488 293 q 586 460 586 391 q 537 579 586 530 q 418 628 488 628 q 300 579 349 628 q 251 460 251 530 q 300 342 251 391 q 418 293 349 293 m 368 83 l 368 197 q 268 239 313 210 l 187 159 l 117 229 l 197 309 q 155 410 167 357 l 41 410 l 41 511 l 155 511 q 197 611 166 562 l 117 691 l 187 762 l 268 682 q 368 724 313 711 l 368 837 l 469 837 l 469 724 q 569 682 524 711 l 649 762 l 720 691 l 640 611 q 682 511 671 562 l 795 511 l 795 410 l 682 410 q 640 309 670 357 l 720 229 l 649 159 l 568 239 q 469 197 524 210 l 469 83 l 368 83 z "},"♀":{"ha":837,"x_min":83,"x_max":753,"o":"m 368 0 l 368 134 l 201 134 l 201 234 l 368 234 l 368 340 q 164 451 245 357 q 83 671 83 545 q 181 906 83 808 q 418 1004 279 1004 q 655 906 557 1004 q 753 671 753 808 q 671 451 753 545 q 468 340 590 357 l 468 234 l 635 234 l 635 134 l 468 134 l 468 0 l 368 0 m 418 435 q 584 505 515 435 q 652 672 652 574 q 584 836 652 768 q 418 903 515 903 q 253 836 321 903 q 184 672 184 768 q 253 505 184 574 q 418 435 321 435 z "},"♂":{"ha":837,"x_min":4,"x_max":837,"o":"m 596 884 l 412 832 l 385 930 l 738 1029 l 837 673 l 740 646 l 686 839 l 547 600 q 673 336 673 488 q 575 98 673 197 q 336 0 476 0 q 101 98 199 0 q 4 335 4 197 q 103 572 4 475 q 347 669 203 669 q 461 650 397 669 l 596 884 m 104 338 q 173 170 104 239 q 340 100 242 100 q 504 169 435 100 q 573 334 573 238 q 505 501 573 433 q 338 569 437 569 q 173 501 242 569 q 104 338 104 433 z "},"♠":{"ha":837,"x_min":17,"x_max":821,"o":"m 318 0 l 389 359 q 195 234 295 234 q 69 289 121 234 q 17 421 17 344 q 117 624 17 514 l 157 667 l 201 714 q 397 970 299 818 l 418 1004 l 440 970 q 636 714 538 818 l 680 667 l 721 624 q 821 420 821 514 q 768 289 821 343 q 642 234 715 234 q 448 359 542 234 l 519 0 l 318 0 z "},"♣":{"ha":837,"x_min":17,"x_max":820,"o":"m 318 0 l 385 401 q 206 276 304 276 q 72 332 126 276 q 17 469 17 388 q 67 600 17 547 q 191 652 117 652 q 318 615 248 652 q 226 806 226 705 q 282 946 226 889 q 418 1004 338 1004 q 555 946 500 1004 q 611 806 611 889 q 519 615 611 705 q 646 652 589 652 q 770 600 720 652 q 820 469 820 547 q 765 332 820 388 q 631 276 711 276 q 452 401 532 276 l 519 0 l 318 0 z "},"♥":{"ha":837,"x_min":17,"x_max":821,"o":"m 418 0 q 135 336 252 129 q 17 706 17 543 q 72 922 17 840 q 218 1004 127 1004 q 418 845 350 1004 q 619 1004 488 1004 q 765 922 709 1004 q 821 706 821 840 q 702 335 821 543 q 418 0 584 127 z "},"♦":{"ha":837,"x_min":17,"x_max":820,"o":"m 820 502 q 602 268 673 357 q 418 0 530 178 q 236 268 307 178 q 17 502 165 357 q 237 735 159 637 q 418 1004 316 833 q 600 735 521 833 q 820 502 678 637 z "},"♪":{"ha":837,"x_min":60,"x_max":746,"o":"m 337 204 l 337 1004 l 404 1004 l 404 986 q 551 785 404 897 l 599 749 q 746 542 746 637 q 673 380 746 471 l 627 415 q 669 513 669 472 q 609 608 669 555 l 559 653 q 509 691 544 666 q 404 779 448 735 l 404 289 q 337 45 404 115 q 174 -25 270 -25 q 92 0 123 -25 q 60 66 60 26 q 119 174 60 128 q 257 220 178 220 q 337 204 298 220 z "},"♫":{"ha":837,"x_min":16,"x_max":776,"o":"m 357 675 l 357 115 q 293 -129 357 -60 q 132 -201 225 -201 q 48 -175 80 -201 q 16 -106 16 -149 q 74 2 16 -43 q 212 47 132 47 q 290 31 256 47 l 290 795 l 776 1029 l 776 345 q 763 194 776 243 q 712 104 750 144 q 551 33 646 33 q 468 58 499 33 q 436 124 436 83 q 494 231 436 186 q 636 275 553 275 q 709 260 671 275 l 709 845 l 357 675 z "},"Ș":{"ha":837,"x_min":111,"x_max":758,"o":"m 685 850 l 685 734 q 423 791 538 791 q 242 669 242 791 q 276 589 242 619 q 401 527 310 559 l 487 497 l 568 469 q 758 244 758 403 q 661 51 758 123 q 402 -21 564 -21 q 111 27 290 -21 l 111 159 q 406 79 289 79 q 564 118 505 79 q 623 223 623 157 q 588 302 623 273 q 444 372 553 332 l 355 404 q 169 506 221 454 q 117 645 117 558 q 197 827 117 762 q 421 891 277 891 q 685 850 538 891 m 352 -293 l 352 -251 q 399 -234 387 -247 q 410 -186 410 -221 l 410 -176 l 352 -176 l 352 -67 l 486 -67 l 486 -176 q 352 -293 486 -283 z "},"ș":{"ha":837,"x_min":127,"x_max":715,"o":"m 127 30 l 127 151 q 395 83 282 83 q 530 116 477 83 q 583 199 583 149 q 456 304 583 264 l 313 351 q 146 543 146 406 q 221 698 146 643 q 435 753 297 753 q 676 721 539 753 l 676 612 q 435 652 544 652 q 318 626 361 652 q 274 555 274 600 q 374 465 274 500 l 543 406 q 675 329 635 374 q 715 212 715 283 q 629 45 715 107 q 398 -17 543 -17 q 127 30 271 -17 m 363 -293 l 363 -251 q 410 -234 399 -247 q 422 -186 422 -221 l 422 -176 l 363 -176 l 363 -67 l 497 -67 l 497 -176 q 363 -293 497 -283 z "},"Ț":{"ha":837,"x_min":17,"x_max":820,"o":"m 351 0 l 351 770 l 17 770 l 17 870 l 820 870 l 820 770 l 486 770 l 486 0 l 351 0 m 351 -293 l 351 -251 q 398 -234 387 -247 q 410 -186 410 -221 l 410 -176 l 351 -176 l 351 -67 l 485 -67 l 485 -176 q 351 -293 485 -283 z "},"ț":{"ha":837,"x_min":88,"x_max":747,"o":"m 747 1 q 553 -17 647 -17 q 331 42 390 -17 q 272 264 272 100 l 272 619 l 88 619 l 88 720 l 272 720 l 272 878 l 406 878 l 406 720 l 732 720 l 732 619 l 406 619 l 406 242 q 414 155 406 179 q 448 114 422 132 q 582 83 494 83 q 747 102 665 83 l 747 1 m 406 -293 l 406 -251 q 453 -234 441 -247 q 465 -186 465 -221 l 465 -176 l 406 -176 l 406 -67 l 540 -67 l 540 -176 q 406 -293 540 -283 z "},"€":{"ha":838,"x_min":12,"x_max":766,"o":"m 254 368 l 256 364 q 367 161 283 239 q 555 83 451 83 q 754 165 644 83 l 766 52 q 525 -25 648 -25 q 423 -13 472 -25 q 331 23 374 -1 q 251 81 288 47 q 186 158 214 115 q 133 266 157 201 q 109 364 109 331 l 109 368 l 12 368 l 33 468 l 98 468 l 98 536 l 12 536 l 33 636 l 110 636 l 111 640 q 254 923 143 817 q 518 1029 366 1029 q 743 958 628 1029 l 743 836 q 521 928 628 928 q 446 915 482 928 q 379 877 410 901 q 322 817 348 852 q 274 725 297 781 q 252 640 252 669 l 252 636 l 637 636 l 616 536 l 240 536 l 240 468 l 604 468 l 582 368 l 254 368 z "}}}
